<svg width="369" height="369" viewBox="0 0 369 369" fill="none" xmlns="http://www.w3.org/2000/svg">
<path d="M182.072 359.775C278.079 359.775 355.908 314.839 355.908 259.407C355.908 203.975 278.079 159.039 182.072 159.039C86.065 159.039 8.23602 203.975 8.23602 259.407C8.23602 314.839 86.065 359.775 182.072 359.775Z" fill="#F5F5F5"/>
<path d="M100.545 338.69L35.5125 301.148C33.483 299.974 33.483 298.078 35.5125 296.904L149.563 231.053C150.706 230.47 151.97 230.166 153.253 230.166C154.536 230.166 155.8 230.47 156.943 231.053L221.946 268.632C223.976 269.805 223.976 271.702 221.946 272.875L107.896 338.69C106.757 339.268 105.497 339.57 104.22 339.57C102.943 339.57 101.684 339.268 100.545 338.69V338.69Z" fill="#E0E0E0"/>
<path d="M99.4971 294.19C99.4971 294.19 98.9879 277.216 91.7259 263.519C84.464 249.821 73.6597 240.7 63.0251 238.958C52.3905 237.216 42.922 246.338 53.8149 254.072C64.7078 261.806 84.4862 270.389 91.7407 296.47L99.4971 294.19Z" fill="#1CC3EC"/>
<g opacity="0.15">
<path d="M99.4971 294.19C99.4971 294.19 98.9879 277.216 91.7259 263.519C84.464 249.821 73.6597 240.7 63.0251 238.958C52.3905 237.216 42.922 246.338 53.8149 254.072C64.7078 261.806 84.4862 270.389 91.7407 296.47L99.4971 294.19Z" fill="black"/>
</g>
<path d="M96.7223 289.568H96.8404C96.9143 289.546 96.983 289.508 97.0422 289.459C97.1015 289.409 97.1501 289.348 97.1852 289.279C97.2204 289.21 97.2413 289.135 97.2467 289.058C97.2521 288.981 97.2419 288.903 97.2167 288.83C88.2353 260.048 67.6967 246.646 58.1027 243.576C58.0289 243.544 57.9494 243.529 57.8691 243.53C57.7889 243.531 57.7098 243.549 57.6368 243.582C57.5639 243.616 57.4988 243.664 57.4456 243.724C57.3924 243.784 57.3524 243.855 57.3281 243.931C57.3039 244.008 57.2958 244.088 57.3046 244.168C57.3133 244.248 57.3386 244.325 57.3789 244.394C57.4192 244.464 57.4735 244.524 57.5384 244.571C57.6034 244.618 57.6774 244.651 57.7559 244.668C67.1654 247.679 87.2759 260.853 96.1319 289.177C96.1747 289.297 96.2555 289.4 96.3619 289.471C96.4684 289.541 96.5948 289.576 96.7223 289.568Z" fill="white"/>
<path d="M44.28 279.975C45.018 282.122 47.1508 283.406 49.1582 284.447C51.1655 285.487 53.3574 286.602 54.3242 288.653C56.2282 292.801 51.97 297.982 54.0585 302.048C54.9293 303.746 56.7596 304.771 58.6046 305.288C60.1512 305.654 61.7152 305.943 63.2909 306.151C64.0446 306.212 64.8013 306.224 65.5565 306.188C67.7705 306.078 70.1174 306.188 71.9993 307.495C74.9513 309.546 75.5491 313.583 77.1653 316.808C78.1704 318.716 79.5779 320.384 81.2904 321.695C83.0029 323.006 84.9796 323.93 87.084 324.402C90.5821 325.207 95.94 324.911 97.0396 323.428C97.844 322.299 96.1024 318.513 96.1909 317.125C96.4114 313.573 96.2952 310.007 95.8441 306.476C95.5691 304.875 95.4922 303.247 95.6153 301.627C95.7998 299.819 95.9695 298.004 96.1245 296.196C96.3016 294.233 96.9068 292.735 96.3828 290.698C95.8012 288.765 94.9303 286.931 93.7998 285.259C92.7666 283.576 91.7162 281.901 90.6485 280.233C89.4681 278.215 88.04 276.354 86.3977 274.69C84.909 273.312 83.1552 272.251 81.2431 271.572C79.331 270.893 77.3007 270.611 75.276 270.742C71.9255 270.986 68.5307 272.536 65.1433 272.063C61.7558 271.591 58.7005 270.41 55.2983 270.329C51.7486 270.24 48.0069 271.399 45.7043 274.24C44.3759 275.834 43.6232 278.026 44.28 279.975Z" fill="#1CC3EC"/>
<path d="M94.9214 314.388C95.055 314.365 95.174 314.29 95.2527 314.179C95.3314 314.069 95.3635 313.932 95.3421 313.798C90.0211 282.211 57.9772 274.684 50.3241 274.543C50.189 274.543 50.0595 274.597 49.964 274.693C49.8685 274.788 49.8149 274.918 49.8149 275.053C49.8149 275.188 49.8685 275.317 49.964 275.413C50.0595 275.508 50.189 275.562 50.3241 275.562C57.8074 275.724 89.1577 283.067 94.3606 313.938C94.367 314.005 94.3867 314.069 94.4185 314.128C94.4504 314.187 94.4937 314.239 94.546 314.281C94.5983 314.323 94.6584 314.354 94.7229 314.373C94.7874 314.391 94.8549 314.396 94.9214 314.388V314.388Z" fill="white"/>
<path d="M60.3167 295.355C60.4188 295.345 60.5161 295.307 60.5971 295.244C60.6857 295.163 69.7335 287.783 83.2758 291.097C83.408 291.129 83.5475 291.107 83.6637 291.037C83.78 290.966 83.8635 290.852 83.8958 290.72C83.9281 290.588 83.9065 290.448 83.836 290.332C83.7654 290.216 83.6515 290.133 83.5194 290.1C69.4531 286.669 60.0362 294.381 59.9403 294.462C59.8857 294.505 59.8405 294.558 59.8074 294.619C59.7743 294.68 59.7541 294.747 59.7478 294.816C59.7416 294.886 59.7496 294.955 59.7713 295.021C59.7929 295.087 59.8278 295.148 59.8739 295.2C59.9305 295.258 60.0001 295.303 60.0769 295.33C60.1538 295.357 60.2359 295.365 60.3167 295.355V295.355Z" fill="white"/>
<path d="M214.197 20.8189L107.445 82.4493C106.397 83.1371 105.524 84.0619 104.899 85.149C104.273 86.2361 103.912 87.4551 103.844 88.7075V328.904C103.844 331.207 105.46 332.144 107.445 330.986L214.197 269.37C215.245 268.681 216.117 267.756 216.743 266.669C217.368 265.582 217.73 264.364 217.799 263.112V22.8779C217.799 20.5975 216.182 19.6602 214.197 20.8189ZM212.603 245.909C212.603 247.879 211.223 249.134 209.511 250.116L111.77 306.573C110.065 307.554 108.678 306.757 108.678 304.779V105.8C108.737 104.726 109.047 103.68 109.585 102.748C110.122 101.816 110.87 101.024 111.77 100.434L209.511 44.0069C211.223 43.0179 212.603 43.8224 212.603 45.7928V245.909Z" fill="#1CC3EC"/>
<path opacity="0.5" d="M214.197 20.8189L107.445 82.4493C106.397 83.1371 105.524 84.0619 104.899 85.149C104.273 86.2361 103.912 87.4551 103.844 88.7075V328.904C103.844 331.207 105.46 332.144 107.445 330.986L214.197 269.37C215.245 268.681 216.117 267.756 216.743 266.669C217.368 265.582 217.73 264.364 217.799 263.112V22.8779C217.799 20.5975 216.182 19.6602 214.197 20.8189ZM212.603 245.909C212.603 247.879 211.223 249.134 209.511 250.116L111.77 306.573C110.065 307.554 108.678 306.757 108.678 304.779V105.8C108.737 104.726 109.047 103.68 109.585 102.748C110.122 101.816 110.87 101.024 111.77 100.434L209.511 44.0069C211.223 43.0179 212.603 43.8224 212.603 45.7928V245.909Z" fill="black"/>
<path d="M107.01 331.215C105.932 331.671 104.768 331.887 103.598 331.849C102.429 331.811 101.281 331.519 100.235 330.993L96.1098 328.602C95.0545 327.921 94.1759 326.999 93.5459 325.913C92.916 324.826 92.5529 323.605 92.4863 322.351V82.1617C92.51 81.2305 92.7234 80.3139 93.1136 79.468C93.2398 79.1699 93.3827 78.8792 93.5416 78.5972L104.907 85.158C104.664 85.5813 104.454 86.023 104.28 86.479C104.006 87.1859 103.859 87.9353 103.844 88.693V328.905C103.844 331.023 105.217 331.989 107.01 331.215Z" fill="#1CC3EC"/>
<path opacity="0.6" d="M107.01 331.215C105.932 331.671 104.768 331.887 103.598 331.849C102.429 331.811 101.281 331.519 100.235 330.993L96.1098 328.602C95.0545 327.921 94.1759 326.999 93.5459 325.913C92.916 324.826 92.5529 323.605 92.4863 322.351V82.1617C92.51 81.2305 92.7234 80.3139 93.1136 79.468C93.2398 79.1699 93.3827 78.8792 93.5416 78.5972L104.907 85.158C104.664 85.5813 104.454 86.023 104.28 86.479C104.006 87.1859 103.859 87.9353 103.844 88.693V328.905C103.844 331.023 105.217 331.989 107.01 331.215Z" fill="black"/>
<path d="M163.187 283.687C165.032 283.687 165.231 285.753 165.231 286.639C165.116 288.423 164.59 290.156 163.694 291.703C162.798 293.25 161.556 294.568 160.065 295.554C159.464 295.928 158.779 296.143 158.072 296.181C156.227 296.181 156.028 294.108 156.028 293.229C156.141 291.445 156.666 289.711 157.563 288.164C158.459 286.617 159.702 285.3 161.194 284.314C161.793 283.937 162.48 283.721 163.187 283.687ZM163.187 282.58C162.285 282.613 161.408 282.88 160.641 283.355C158.989 284.442 157.616 285.902 156.632 287.617C155.649 289.332 155.083 291.255 154.98 293.229C154.98 295.805 156.264 297.296 158.131 297.296C159.034 297.262 159.912 296.992 160.677 296.514C162.338 295.435 163.721 293.979 164.711 292.264C165.701 290.549 166.271 288.624 166.375 286.646C166.375 284.071 165.091 282.58 163.224 282.58H163.187Z" fill="#37474F"/>
<path d="M160.744 55.3493C162.08 54.6113 163.164 55.2017 163.164 56.7441C163.118 57.5838 162.875 58.4007 162.455 59.129C162.034 59.8572 161.448 60.4762 160.744 60.9359C159.408 61.6739 158.323 61.0835 158.323 59.5337C158.369 58.695 158.612 57.8788 159.032 57.1517C159.453 56.4245 160.039 55.807 160.744 55.3493Z" fill="#37474F"/>
<path d="M147.74 70.3087L173.902 55.1945C175.017 54.5524 175.925 55.01 175.925 56.2129C175.874 56.8919 175.665 57.5495 175.314 58.1327C174.962 58.716 174.479 59.2086 173.902 59.5708L147.74 74.6851C146.619 75.3271 145.718 74.8696 145.718 73.6592C145.769 72.9814 145.979 72.3251 146.33 71.7431C146.681 71.1611 147.164 70.6698 147.74 70.3087V70.3087Z" fill="#37474F"/>
<path d="M212.603 245.924C212.603 247.894 211.223 249.149 209.511 250.131L111.77 306.573C110.065 307.554 108.678 306.757 108.678 304.779V105.8C108.737 104.726 109.047 103.681 109.584 102.749C110.122 101.817 110.87 101.024 111.77 100.435L209.511 44.0072C211.223 43.0183 212.603 43.8227 212.603 45.7931V245.924Z" fill="#1CC3EC"/>
<path opacity="0.8" d="M212.603 245.924C212.603 247.894 211.223 249.149 209.511 250.131L111.77 306.573C110.065 307.554 108.678 306.757 108.678 304.779V105.8C108.737 104.726 109.047 103.681 109.584 102.749C110.122 101.817 110.87 101.024 111.77 100.435L209.511 44.0072C211.223 43.0183 212.603 43.8227 212.603 45.7931V245.924Z" fill="white"/>
<path d="M191.297 251.259L118.973 293.015C117.608 293.805 116.501 292.742 116.501 290.639V286.344C116.501 284.24 117.608 281.916 118.973 281.111L191.297 239.355C192.662 238.566 193.769 239.628 193.769 241.732V246.019C193.769 248.13 192.662 250.469 191.297 251.259Z" fill="white"/>
<path d="M197.629 245.694V237.635C197.629 236.587 197.954 236.1 199.053 236.004L206.692 235.547C207.481 235.694 207.703 236.381 207.186 237.075L198.559 246.373C198.072 246.89 197.629 246.75 197.629 245.694Z" fill="#1CC3EC"/>
<path d="M217.769 22.3247C217.511 20.4502 216.005 19.7712 214.197 20.8487L107.445 82.4496C106.377 83.1141 105.5 84.0449 104.899 85.1506L93.5342 78.5898C94.1426 77.491 95.0247 76.5681 96.095 75.9109L202.832 14.2657C203.952 13.6978 205.189 13.4019 206.444 13.4019C207.7 13.4019 208.937 13.6978 210.057 14.2657L214.197 16.6421C215.163 17.2798 215.982 18.1169 216.598 19.097C217.214 20.0771 217.613 21.1776 217.769 22.3247V22.3247Z" fill="#1CC3EC"/>
<path opacity="0.3" d="M217.769 22.3247C217.511 20.4502 216.005 19.7712 214.197 20.8487L107.445 82.4496C106.377 83.1141 105.5 84.0449 104.899 85.1506L93.5342 78.5898C94.1426 77.491 95.0247 76.5681 96.095 75.9109L202.832 14.2657C203.952 13.6978 205.189 13.4019 206.444 13.4019C207.7 13.4019 208.937 13.6978 210.057 14.2657L214.197 16.6421C215.163 17.2798 215.982 18.1169 216.598 19.097C217.214 20.0771 217.613 21.1776 217.769 22.3247V22.3247Z" fill="black"/>
<path d="M183.533 244.78L180.928 243.304C180.651 243.121 180.421 242.875 180.255 242.587C180.09 242.299 179.995 241.976 179.976 241.644V174.597C179.995 174.264 180.091 173.94 180.258 173.652C180.425 173.364 180.657 173.118 180.936 172.936L313.923 96.1841C314.22 96.0314 314.549 95.9517 314.883 95.9517C315.216 95.9517 315.545 96.0314 315.842 96.1841L318.44 97.6601C318.719 97.8419 318.951 98.087 319.118 98.3756C319.285 98.6641 319.381 98.9879 319.399 99.3206V166.338C319.382 166.671 319.286 166.995 319.119 167.284C318.952 167.573 318.719 167.818 318.44 167.999L185.46 244.751C185.163 244.906 184.834 244.99 184.5 244.995C184.165 245 183.834 244.926 183.533 244.78V244.78Z" fill="#37474F"/>
<path d="M185.452 175.548L318.432 98.7963C318.964 98.4937 319.392 98.7372 319.392 99.3498V166.368C319.374 166.7 319.278 167.024 319.111 167.313C318.945 167.602 318.712 167.847 318.432 168.028L185.452 244.78C184.921 245.083 184.493 244.832 184.493 244.227V177.209C184.51 176.876 184.606 176.552 184.773 176.263C184.94 175.975 185.172 175.73 185.452 175.548V175.548Z" fill="#455A64"/>
<path d="M185.238 244.876C184.963 244.977 184.671 245.02 184.378 245.002C184.086 244.984 183.801 244.906 183.541 244.772L180.943 243.296C180.664 243.114 180.433 242.868 180.266 242.58C180.099 242.292 180.003 241.968 179.983 241.636V174.596C179.994 174.262 180.09 173.937 180.264 173.651L184.78 176.257C184.607 176.542 184.51 176.867 184.5 177.201V244.219C184.5 244.743 184.803 245.016 185.238 244.876Z" fill="#263238"/>
<path d="M191.422 204.05L198.802 199.785C199.688 199.275 200.404 199.637 200.404 200.589C200.365 201.127 200.2 201.648 199.921 202.109C199.643 202.571 199.26 202.96 198.802 203.246L191.422 207.511C190.544 208.021 189.828 207.659 189.828 206.7C189.868 206.164 190.033 205.645 190.31 205.185C190.587 204.725 190.968 204.336 191.422 204.05Z" fill="#E0E0E0"/>
<path d="M204.293 196.611L223.097 185.755C223.976 185.246 224.692 185.607 224.692 186.567C224.652 187.102 224.487 187.621 224.21 188.081C223.933 188.541 223.552 188.93 223.097 189.216L204.286 200.08C203.408 200.589 202.692 200.227 202.692 199.268C202.731 198.73 202.896 198.209 203.174 197.748C203.453 197.286 203.836 196.897 204.293 196.611V196.611Z" fill="#E0E0E0"/>
<path d="M227.791 183.024L248.064 171.334C248.95 170.825 249.665 171.186 249.665 172.138C249.626 172.676 249.461 173.197 249.183 173.658C248.905 174.12 248.521 174.51 248.064 174.795L227.791 186.485C226.906 186.994 226.19 186.633 226.19 185.681C226.229 185.143 226.394 184.622 226.672 184.16C226.951 183.699 227.334 183.309 227.791 183.024Z" fill="#E0E0E0"/>
<path d="M191.415 183.282L210.227 172.426C211.105 171.916 211.821 172.278 211.821 173.23C211.782 173.767 211.618 174.287 211.341 174.749C211.064 175.21 210.682 175.6 210.227 175.887L191.415 186.713C190.537 187.223 189.821 186.861 189.821 185.902C189.865 185.371 190.032 184.858 190.309 184.404C190.586 183.949 190.964 183.565 191.415 183.282Z" fill="#E0E0E0"/>
<path d="M214.92 169.739L232.308 159.702C233.193 159.193 233.902 159.555 233.902 160.514C233.864 161.05 233.699 161.57 233.422 162.03C233.145 162.49 232.763 162.879 232.308 163.164L214.913 173.208C214.035 173.717 213.319 173.355 213.319 172.396C213.358 171.858 213.523 171.337 213.801 170.876C214.08 170.414 214.463 170.025 214.92 169.739V169.739Z" fill="#E0E0E0"/>
<path d="M237.105 156.891L248.573 150.249C249.451 149.74 250.167 150.101 250.167 151.061C250.127 151.596 249.962 152.115 249.686 152.575C249.409 153.035 249.028 153.424 248.573 153.71L237.105 160.352C236.219 160.861 235.503 160.5 235.503 159.54C235.543 159.004 235.709 158.484 235.987 158.024C236.266 157.564 236.648 157.176 237.105 156.891Z" fill="#E0E0E0"/>
<path d="M191.415 214.418L210.227 203.562C211.105 203.053 211.821 203.415 211.821 204.374C211.781 204.91 211.616 205.428 211.339 205.888C211.062 206.349 210.681 206.737 210.227 207.023L191.415 217.887C190.537 218.396 189.821 218.034 189.821 217.075C189.86 216.538 190.024 216.018 190.301 215.556C190.578 215.095 190.96 214.705 191.415 214.418V214.418Z" fill="#E0E0E0"/>
<path d="M214.92 200.853L232.308 190.817C233.193 190.3 233.902 190.669 233.902 191.621C233.864 192.158 233.7 192.679 233.423 193.141C233.146 193.602 232.764 193.992 232.308 194.278L214.913 204.315C214.035 204.824 213.319 204.462 213.319 203.51C213.358 202.973 213.523 202.452 213.801 201.99C214.08 201.528 214.463 201.139 214.92 200.853V200.853Z" fill="#E0E0E0"/>
<path d="M237.105 188.027L248.573 181.422C249.451 180.913 250.167 181.275 250.167 182.227C250.129 182.764 249.964 183.284 249.687 183.745C249.41 184.207 249.029 184.597 248.573 184.884L237.105 191.525C236.219 192.035 235.503 191.673 235.503 190.714C235.538 190.171 235.701 189.644 235.979 189.177C236.258 188.71 236.644 188.316 237.105 188.027Z" fill="#E0E0E0"/>
<path d="M191.415 193.666L226.876 173.201C227.762 172.692 228.477 173.053 228.477 174.013C228.437 174.549 228.271 175.068 227.993 175.529C227.715 175.989 227.332 176.377 226.876 176.662L191.415 197.134C190.537 197.643 189.821 197.282 189.821 196.322C189.86 195.786 190.024 195.265 190.301 194.804C190.578 194.342 190.96 193.952 191.415 193.666V193.666Z" fill="#E0E0E0"/>
<path d="M232.02 170.22L248.042 160.995C248.927 160.485 249.643 160.847 249.643 161.799C249.604 162.337 249.439 162.857 249.161 163.319C248.882 163.781 248.499 164.17 248.042 164.456L232.02 173.681C231.134 174.197 230.418 173.828 230.418 172.876C230.457 172.339 230.623 171.818 230.901 171.356C231.179 170.895 231.563 170.505 232.02 170.22V170.22Z" fill="#E0E0E0"/>
<path d="M316.395 169.172L317.466 178.028C317.49 178.232 317.458 178.439 317.372 178.626C317.285 178.813 317.149 178.972 316.977 179.085C316.805 179.199 316.605 179.262 316.4 179.268C316.194 179.274 315.991 179.223 315.812 179.12L307.34 174.264L316.395 169.172Z" fill="#455A64"/>
<path d="M198.81 220.84C198.674 220.78 198.528 220.748 198.38 220.746C198.232 220.743 198.085 220.77 197.948 220.825C197.811 220.88 197.686 220.962 197.58 221.066C197.475 221.17 197.391 221.293 197.334 221.43L193.157 231.371L192.16 230.404C191.946 230.226 191.672 230.135 191.393 230.15C191.114 230.165 190.851 230.285 190.657 230.486C190.463 230.686 190.352 230.953 190.346 231.232C190.34 231.511 190.44 231.782 190.625 231.991L192.78 234.087C192.979 234.279 193.242 234.39 193.518 234.397C193.592 234.404 193.666 234.404 193.74 234.397C193.915 234.362 194.08 234.284 194.219 234.171C194.358 234.058 194.467 233.912 194.537 233.747L199.341 222.308C199.465 222.043 199.478 221.739 199.379 221.464C199.279 221.189 199.075 220.964 198.81 220.84V220.84Z" fill="#1CC3EC"/>
<path d="M208.168 215.399C208.032 215.339 207.886 215.306 207.738 215.303C207.59 215.3 207.442 215.327 207.305 215.382C207.167 215.437 207.042 215.519 206.937 215.624C206.831 215.728 206.748 215.852 206.692 215.99L202.515 225.93L201.518 224.964C201.416 224.851 201.291 224.761 201.152 224.699C201.014 224.637 200.863 224.604 200.711 224.602C200.559 224.6 200.408 224.63 200.268 224.69C200.128 224.749 200.002 224.836 199.897 224.947C199.792 225.057 199.711 225.188 199.659 225.331C199.607 225.474 199.586 225.626 199.595 225.778C199.604 225.93 199.645 226.078 199.714 226.214C199.784 226.349 199.88 226.469 199.998 226.565L202.153 228.661C202.284 228.786 202.442 228.877 202.616 228.927C202.789 228.977 202.972 228.985 203.149 228.949C203.326 228.912 203.49 228.834 203.629 228.719C203.768 228.605 203.877 228.458 203.946 228.292L208.751 216.86C208.809 216.726 208.84 216.582 208.843 216.436C208.845 216.289 208.818 216.144 208.764 216.008C208.71 215.872 208.629 215.749 208.527 215.644C208.424 215.539 208.302 215.456 208.168 215.399V215.399Z" fill="#1CC3EC"/>
<path d="M285.68 120.478C270.817 129.069 258.765 149.932 258.765 167.098C258.765 184.264 270.846 191.223 285.68 182.64C300.514 174.057 312.609 153.179 312.595 136.021C312.58 118.862 300.528 111.895 285.68 120.478Z" fill="#1CC3EC"/>
<path opacity="0.4" d="M285.68 120.478C270.817 129.069 258.765 149.932 258.765 167.098C258.765 184.264 270.846 191.223 285.68 182.64C300.514 174.057 312.609 153.179 312.595 136.021C312.58 118.862 300.528 111.895 285.68 120.478Z" fill="white"/>
<path d="M230.994 158.825C234.191 164.388 237.669 169.785 241.415 174.995C242.337 176.235 244.935 179.652 246.293 179.991C248.027 180.419 249.496 179.054 250.411 178.419C253.54 176.242 269.732 160.146 269.732 160.146C274.772 153.121 273.503 148.641 272.816 148.641C272.13 148.641 266.964 147.283 262.543 151.593C259.193 154.862 247.747 166.692 247.747 166.692C245.046 163.519 243.274 161.947 240.581 158.766C239.267 157.216 237.274 155.549 237.178 153.423C237.19 152.448 237.278 151.476 237.444 150.515C237.6 148.292 237.456 146.058 237.016 143.873C237.006 143.774 236.981 143.677 236.942 143.586C236.872 143.462 236.759 143.367 236.625 143.32C236.376 143.248 236.11 143.262 235.87 143.358C235.629 143.454 235.427 143.628 235.297 143.851C235.044 144.303 234.907 144.81 234.898 145.327C234.882 145.836 234.769 146.337 234.566 146.803C234.522 146.898 234.456 146.982 234.374 147.047C234.28 147.103 234.173 147.133 234.064 147.135C233.444 147.135 233.119 146.464 232.891 145.977C232.36 144.838 231.931 143.655 231.607 142.442C231.385 141.608 231.001 140.803 230.714 139.977C230.602 139.484 230.345 139.037 229.976 138.693C229.304 138.206 228.359 138.479 227.621 138.848C227.207 139.05 226.816 139.298 226.455 139.586C225.398 140.558 224.698 141.857 224.47 143.276C224.175 144.921 224.287 146.613 224.795 148.205C225.432 150.44 226.484 152.536 227.894 154.383C228.928 155.859 230.064 157.268 230.994 158.825Z" fill="#FFA8A7"/>
<path d="M274.255 148.618C274.255 148.618 269.215 146.633 264.661 149.57C260.108 152.508 247.746 166.699 247.746 166.699L244.64 163.245C244.64 163.245 242.994 169.349 237.843 169.887C237.843 169.887 241.887 176.485 244.145 178.921C246.403 181.356 248.204 180.906 250.787 178.921C253.37 176.935 265.96 165.312 265.96 165.312C268.764 163.582 271.027 161.101 272.493 158.15C273.959 155.2 274.57 151.898 274.255 148.618V148.618Z" fill="#1CC3EC"/>
<path opacity="0.25" d="M274.255 148.618C274.255 148.618 269.215 146.633 264.661 149.57C260.108 152.508 247.746 166.699 247.746 166.699L244.64 163.245C244.64 163.245 242.994 169.349 237.843 169.887C237.843 169.887 241.887 176.485 244.145 178.921C246.403 181.356 248.204 180.906 250.787 178.921C253.37 176.935 265.96 165.312 265.96 165.312C268.764 163.582 271.027 161.101 272.493 158.15C273.959 155.2 274.57 151.898 274.255 148.618V148.618Z" fill="black"/>
<path d="M299.805 163.783L299.584 170.152C299.03 170.89 298.455 171.562 297.872 172.241C294.417 176.364 290.296 179.878 285.68 182.639C277.185 187.547 269.614 187.37 264.684 183.119C264.617 175.37 264.632 165.783 265.045 161.459C265.783 153.577 268.433 149.569 272.425 148.699C274.329 148.278 288.602 149.577 288.602 149.577L296.506 151.555C296.677 151.635 296.842 151.726 297.001 151.828C298.211 152.566 298.809 153.946 299.436 155.931C299.886 157.37 299.805 161.104 299.805 163.783Z" fill="#F5F5F5"/>
<path d="M287.739 126.198C287.602 128.107 286.901 129.933 285.725 131.443C284.549 132.954 282.951 134.082 281.134 134.683C279.317 135.285 277.362 135.333 275.517 134.823C273.672 134.312 272.02 133.265 270.771 131.815C269.522 130.365 268.731 128.576 268.499 126.676C268.267 124.776 268.605 122.85 269.469 121.141C270.333 119.433 271.685 118.02 273.353 117.081C275.021 116.142 276.93 115.719 278.838 115.866C281.386 116.062 283.753 117.259 285.421 119.195C287.088 121.132 287.922 123.649 287.739 126.198Z" fill="#263238"/>
<path d="M294.241 133.578C294.241 133.578 292.115 140.803 291.392 141.962C290.917 142.671 290.188 143.17 289.355 143.357L289.864 138.191L294.241 133.578Z" fill="#263238"/>
<path d="M293.03 122.913C293.113 122.686 293.243 122.479 293.41 122.305C293.578 122.131 293.78 121.994 294.004 121.902C294.306 121.811 294.625 121.794 294.934 121.851C296.89 122.109 298.026 123.865 298.137 125.747C298.158 127.128 297.889 128.499 297.347 129.769C297.023 130.77 296.507 131.697 295.827 132.5C295.501 132.861 295.104 133.15 294.661 133.35C294.218 133.549 293.738 133.654 293.252 133.659C292.592 133.602 291.929 133.621 291.274 133.718C291.495 132.37 291.721 131.024 291.953 129.681L292.506 126.375C292.587 125.887 292.691 125.4 292.75 124.899C292.76 124.241 292.85 123.587 293.015 122.95L293.03 122.913Z" fill="#263238"/>
<path d="M290.388 133.651C290.949 134.05 291.864 132.98 292.669 132.271C293.473 131.563 295.908 130.707 296.905 133.297C297.901 135.887 295.429 139.12 293.488 139.57C290.189 140.308 289.864 138.227 289.864 138.227L288.728 150.182C284.3 155.009 273.134 154.832 278.174 149.821L278.543 145.186C277.09 145.303 275.628 145.266 274.182 145.075C271.835 144.529 270.492 142.544 269.968 139.909C269.126 135.695 268.942 132.338 270.543 124.308C272.3 115.504 282.639 116.19 287.953 120.146C293.266 124.101 290.388 133.651 290.388 133.651Z" fill="#FFA8A7"/>
<path d="M294.004 126.278C294.241 125.43 293.82 124.559 294.004 123.695C294.189 122.832 294.742 122.478 295.052 121.777C295.621 120.434 294.875 119.371 293.827 118.515C289.702 115.157 283.872 114.876 279.23 112.293C278.56 111.872 277.853 111.511 277.119 111.216C276.749 111.073 276.353 111.009 275.957 111.026C275.56 111.044 275.172 111.144 274.816 111.319C274.514 111.518 274.254 111.775 274.053 112.075C273.851 112.375 273.712 112.713 273.643 113.068C273.549 113.782 273.516 114.503 273.547 115.223C272.868 115.223 272.263 114.758 271.569 114.692C270.826 114.609 270.074 114.737 269.399 115.061C268.946 115.25 268.573 115.592 268.344 116.028C268.207 116.375 268.149 116.748 268.174 117.12C268.212 118.315 268.534 119.485 269.114 120.531C269.694 121.577 270.516 122.47 271.51 123.135C272.204 123.577 272.947 123.939 273.724 124.212C275.026 124.736 276.416 125.007 277.82 125.009C279.235 125.005 280.599 124.48 281.65 123.533C282.279 124.84 283.315 125.907 284.602 126.574C285.254 126.894 285.973 127.056 286.699 127.044C287.425 127.033 288.138 126.849 288.779 126.507C288.86 128.47 289.097 130.419 289.215 132.411C289.178 133.047 289.386 133.674 289.798 134.16C290.942 135.223 291.931 132.854 292.624 132.315C293.03 131.998 293.067 131.201 293.119 130.743C293.17 130.286 293.215 129.791 293.229 129.319C293.176 129.014 293.152 128.706 293.156 128.397C293.377 127.614 293.812 126.98 294.004 126.278Z" fill="#263238"/>
<path d="M295.001 122.633L298.691 120.988C298.595 120.739 298.451 120.513 298.265 120.322C298.08 120.131 297.858 119.979 297.612 119.876C297.367 119.774 297.103 119.722 296.837 119.724C296.57 119.726 296.307 119.782 296.063 119.888C295.569 120.123 295.183 120.538 294.985 121.049C294.787 121.56 294.793 122.127 295.001 122.633V122.633Z" fill="#263238"/>
<path d="M278.543 145.187C278.543 145.187 283.916 144.523 285.842 143.711C286.971 143.228 287.928 142.415 288.587 141.379C288.226 142.44 287.654 143.416 286.905 144.25C285.429 145.881 278.433 146.626 278.433 146.626L278.543 145.187Z" fill="#F28F8F"/>
<path d="M279.849 131.51C279.843 131.718 279.897 131.924 280.007 132.101C280.116 132.278 280.274 132.42 280.463 132.508C280.652 132.595 280.862 132.626 281.068 132.595C281.274 132.565 281.466 132.474 281.621 132.335C281.776 132.196 281.887 132.015 281.94 131.814C281.992 131.612 281.985 131.4 281.918 131.203C281.851 131.006 281.728 130.833 281.564 130.705C281.399 130.577 281.201 130.501 280.993 130.485C280.851 130.477 280.708 130.497 280.573 130.544C280.439 130.591 280.315 130.665 280.209 130.76C280.102 130.855 280.016 130.971 279.954 131.099C279.893 131.228 279.857 131.368 279.849 131.51Z" fill="#263238"/>
<path d="M281.281 127.593L283.451 129.017C283.637 128.719 283.701 128.36 283.628 128.016C283.555 127.672 283.351 127.369 283.06 127.172C282.917 127.079 282.756 127.016 282.588 126.987C282.419 126.957 282.247 126.962 282.08 127.002C281.914 127.041 281.757 127.114 281.62 127.215C281.483 127.317 281.367 127.446 281.281 127.593V127.593Z" fill="#263238"/>
<path d="M279.916 138.449L276.89 139.327C276.94 139.529 277.03 139.719 277.154 139.886C277.278 140.053 277.435 140.193 277.615 140.298C277.794 140.404 277.993 140.472 278.199 140.499C278.406 140.526 278.616 140.511 278.816 140.456C279.223 140.328 279.565 140.048 279.77 139.673C279.975 139.299 280.027 138.861 279.916 138.449Z" fill="#F28F8F"/>
<path d="M270.942 127.673L273.156 126.241C273.07 126.093 272.954 125.965 272.817 125.863C272.679 125.762 272.522 125.689 272.356 125.651C272.189 125.612 272.016 125.608 271.848 125.638C271.68 125.669 271.52 125.733 271.377 125.828C271.081 126.02 270.871 126.32 270.79 126.663C270.709 127.007 270.763 127.368 270.942 127.673Z" fill="#263238"/>
<path d="M271.362 130.56C271.356 130.768 271.41 130.974 271.52 131.151C271.629 131.328 271.787 131.47 271.976 131.557C272.165 131.645 272.375 131.676 272.581 131.645C272.787 131.615 272.979 131.524 273.134 131.385C273.289 131.246 273.4 131.065 273.453 130.863C273.505 130.662 273.498 130.45 273.431 130.253C273.364 130.055 273.241 129.882 273.077 129.755C272.912 129.627 272.714 129.55 272.506 129.534C272.364 129.526 272.221 129.547 272.086 129.594C271.952 129.641 271.828 129.715 271.722 129.81C271.615 129.905 271.529 130.021 271.467 130.149C271.406 130.278 271.37 130.418 271.362 130.56V130.56Z" fill="#263238"/>
<path d="M276.374 129.962L275.532 136.316L272.292 134.921L276.374 129.962Z" fill="#F28F8F"/>
<path d="M307.008 158.16C304.959 162.412 302.46 166.433 299.554 170.153C299.001 170.891 298.425 171.562 297.842 172.241C294.1 165.599 293.193 154.529 295.215 151.238L297.303 151.555C299.327 151.814 301.26 152.547 302.947 153.695C304.633 154.843 306.025 156.373 307.008 158.16Z" fill="#1CC3EC"/>
<g opacity="0.25">
<path d="M307.008 158.16C304.959 162.412 302.46 166.433 299.554 170.153C299.001 170.891 298.425 171.562 297.842 172.241C294.1 165.599 293.193 154.529 295.215 151.238L297.303 151.555C299.327 151.814 301.26 152.547 302.947 153.695C304.633 154.843 306.025 156.373 307.008 158.16Z" fill="black"/>
</g>
<path d="M120.582 184.19L117.977 182.714C117.697 182.532 117.465 182.287 117.298 181.998C117.132 181.71 117.035 181.386 117.017 181.053V114.013C117.035 113.68 117.131 113.356 117.298 113.068C117.464 112.779 117.697 112.534 117.977 112.353L250.957 35.6006C251.255 35.4513 251.583 35.3735 251.916 35.3735C252.249 35.3735 252.578 35.4513 252.876 35.6006L255.481 37.0766C255.76 37.2584 255.993 37.5035 256.159 37.7921C256.326 38.0806 256.422 38.4044 256.44 38.7371V105.755C256.423 106.088 256.327 106.412 256.16 106.7C255.993 106.989 255.76 107.234 255.481 107.415L122.508 184.19C122.21 184.344 121.88 184.424 121.545 184.424C121.21 184.424 120.879 184.344 120.582 184.19V184.19Z" fill="#1CC3EC"/>
<path opacity="0.4" d="M256.403 38.4493C256.278 38.0508 255.909 37.9253 255.481 38.1836L122.508 114.958C122.224 115.144 121.991 115.397 121.829 115.696L117.305 113.091C117.465 112.791 117.698 112.536 117.984 112.353L250.972 35.6006C251.269 35.4513 251.598 35.3735 251.931 35.3735C252.264 35.3735 252.593 35.4513 252.891 35.6006L255.488 37.0766C255.725 37.2323 255.928 37.434 256.086 37.6698C256.243 37.9057 256.351 38.1708 256.403 38.4493V38.4493Z" fill="white"/>
<path d="M122.508 114.966L255.488 38.2138C256.02 37.9112 256.448 38.1547 256.448 38.7673V105.756C256.43 106.088 256.334 106.412 256.168 106.701C256.001 106.99 255.768 107.235 255.488 107.416L122.508 184.19C121.977 184.5 121.549 184.249 121.549 183.637V116.604C121.57 116.275 121.667 115.955 121.834 115.671C122 115.386 122.231 115.145 122.508 114.966V114.966Z" fill="#1CC3EC"/>
<path opacity="0.15" d="M122.272 184.294C121.998 184.395 121.707 184.437 121.416 184.42C121.125 184.402 120.841 184.324 120.582 184.19L117.984 182.714C117.706 182.532 117.474 182.286 117.307 181.998C117.141 181.71 117.044 181.386 117.025 181.054V114.014C117.032 113.681 117.127 113.355 117.298 113.069L121.822 115.674C121.646 115.959 121.547 116.285 121.534 116.619V183.637C121.534 184.161 121.851 184.419 122.272 184.294Z" fill="black"/>
<path d="M124.538 183.024V189.857C124.537 190.095 124.612 190.326 124.752 190.517C124.892 190.708 125.09 190.849 125.317 190.919C125.543 190.989 125.786 190.985 126.01 190.907C126.234 190.829 126.426 190.681 126.56 190.485L136.53 176.094L124.538 183.024Z" fill="#1CC3EC"/>
<path d="M189.098 107.667L196.478 103.402C197.356 102.892 198.072 103.254 198.072 104.213C198.032 104.749 197.867 105.268 197.59 105.728C197.313 106.188 196.932 106.577 196.478 106.863L189.098 111.128C188.212 111.638 187.496 111.276 187.496 110.324C187.535 109.786 187.701 109.266 187.979 108.804C188.257 108.342 188.641 107.953 189.098 107.667V107.667Z" fill="#FAFAFA"/>
<path d="M201.961 100.235L220.765 89.3793C221.651 88.8701 222.367 89.2317 222.367 90.1837C222.328 90.7214 222.162 91.2422 221.884 91.7039C221.606 92.1655 221.222 92.555 220.765 92.8405L201.961 103.697C201.075 104.206 200.36 103.844 200.36 102.885C200.4 102.348 200.566 101.829 200.844 101.369C201.122 100.908 201.505 100.52 201.961 100.235Z" fill="#FAFAFA"/>
<path d="M225.459 86.6631L246.684 74.4196C247.562 73.9104 248.278 74.272 248.278 75.2314C248.238 75.767 248.073 76.2857 247.796 76.7458C247.519 77.206 247.138 77.5948 246.684 77.8809L225.459 90.1243C224.581 90.6335 223.865 90.2719 223.865 89.3198C223.904 88.783 224.068 88.2628 224.345 87.8013C224.622 87.3398 225.004 86.9499 225.459 86.6631V86.6631Z" fill="#FAFAFA"/>
<path d="M189.09 86.8999L207.895 76.0144C208.78 75.5051 209.489 75.8668 209.489 76.8262C209.451 77.3621 209.286 77.8815 209.009 78.342C208.732 78.8024 208.35 79.1908 207.895 79.4756L189.09 90.3316C188.205 90.8408 187.489 90.4792 187.489 89.5271C187.532 88.9946 187.7 88.4797 187.978 88.0235C188.256 87.5673 188.637 87.1825 189.09 86.8999V86.8999Z" fill="#FAFAFA"/>
<path d="M212.588 73.3349L229.976 63.2907C230.861 62.7815 231.577 63.1431 231.577 64.1025C231.537 64.6389 231.371 65.1582 231.093 65.6185C230.815 66.0788 230.432 66.4671 229.976 66.7519L212.588 76.7961C211.703 77.3053 210.987 76.9437 210.987 75.9843C211.028 75.4483 211.195 74.9293 211.473 74.4692C211.751 74.0091 212.133 73.6206 212.588 73.3349V73.3349Z" fill="#FAFAFA"/>
<path d="M234.773 60.5153L247.186 53.3493C248.071 52.8401 248.787 53.2017 248.787 54.1611C248.749 54.7 248.585 55.2224 248.306 55.6854C248.028 56.1484 247.644 56.539 247.186 56.8253L234.773 63.9913C233.894 64.5005 233.179 64.1389 233.179 63.1869C233.215 62.6475 233.378 62.1243 233.656 61.6601C233.933 61.1958 234.315 60.8036 234.773 60.5153Z" fill="#FAFAFA"/>
<path d="M189.09 118.08L207.895 107.224C208.78 106.715 209.489 107.076 209.489 108.028C209.451 108.566 209.287 109.086 209.01 109.548C208.733 110.01 208.351 110.399 207.895 110.685L189.09 121.541C188.205 122.05 187.489 121.689 187.489 120.729C187.529 120.193 187.695 119.674 187.973 119.213C188.251 118.753 188.634 118.365 189.09 118.08V118.08Z" fill="#FAFAFA"/>
<path d="M212.588 104.471L229.976 94.4638C230.861 93.9546 231.577 94.3162 231.577 95.2682C231.538 95.8058 231.373 96.3267 231.095 96.7884C230.816 97.25 230.433 97.6395 229.976 97.925L212.588 107.962C211.703 108.471 210.987 108.109 210.987 107.157C211.023 106.615 211.186 106.089 211.465 105.622C211.743 105.155 212.128 104.76 212.588 104.471Z" fill="#FAFAFA"/>
<path d="M234.773 91.6513L247.186 84.4853C248.071 83.9761 248.787 84.3377 248.787 85.2897C248.748 85.8273 248.583 86.3482 248.305 86.8098C248.026 87.2715 247.643 87.661 247.186 87.9465L234.773 95.1125C233.894 95.6217 233.179 95.2601 233.179 94.3007C233.218 93.7651 233.383 93.2464 233.66 92.7863C233.937 92.3261 234.318 91.9373 234.773 91.6513V91.6513Z" fill="#FAFAFA"/>
<path d="M189.09 97.2902L224.514 76.8181C225.393 76.3088 226.108 76.6705 226.108 77.6299C226.069 78.1654 225.904 78.6841 225.627 79.1443C225.35 79.6044 224.969 79.9932 224.514 80.2793L189.09 100.751C188.205 101.261 187.489 100.899 187.489 99.9396C187.529 99.4033 187.695 98.8839 187.973 98.4236C188.251 97.9633 188.634 97.575 189.09 97.2902V97.2902Z" fill="#FAFAFA"/>
<path d="M229.688 73.8444L246.662 64.0585C247.547 63.5493 248.263 63.9109 248.263 64.8629C248.224 65.4006 248.059 65.9214 247.781 66.3831C247.502 66.8447 247.119 67.2342 246.662 67.5197L229.688 77.3056C228.802 77.8148 228.086 77.4532 228.094 76.4938C228.133 75.9583 228.299 75.4396 228.575 74.9794C228.852 74.5192 229.233 74.1305 229.688 73.8444V73.8444Z" fill="#FAFAFA"/>
<path d="M240.773 99.6814C240.637 99.6219 240.491 99.59 240.343 99.5876C240.195 99.5851 240.048 99.6121 239.911 99.6671C239.773 99.7221 239.648 99.8038 239.543 99.9077C239.437 100.011 239.354 100.135 239.297 100.272L235.119 110.22L234.153 109.224C233.94 109.03 233.661 108.927 233.374 108.936C233.086 108.944 232.814 109.064 232.613 109.27C232.413 109.476 232.301 109.752 232.3 110.04C232.3 110.327 232.411 110.604 232.61 110.81L234.773 112.906C234.969 113.103 235.233 113.217 235.511 113.224C235.584 113.231 235.658 113.231 235.732 113.224C235.909 113.188 236.074 113.11 236.213 112.995C236.352 112.881 236.461 112.734 236.529 112.567L241.363 101.106C241.467 100.838 241.464 100.54 241.354 100.275C241.244 100.01 241.036 99.7969 240.773 99.6814Z" fill="#455A64"/>
<path d="M250.138 94.2424C250.002 94.1819 249.856 94.1492 249.708 94.1462C249.56 94.1433 249.412 94.1701 249.275 94.2252C249.137 94.2802 249.012 94.3624 248.907 94.4668C248.801 94.5712 248.718 94.6956 248.662 94.8328L244.507 104.796L243.54 103.807C243.328 103.613 243.048 103.51 242.761 103.519C242.474 103.527 242.201 103.647 242.001 103.854C241.8 104.06 241.688 104.336 241.687 104.623C241.687 104.91 241.798 105.187 241.998 105.394L244.153 107.49C244.254 107.591 244.375 107.671 244.508 107.726C244.641 107.78 244.784 107.808 244.927 107.807H245.141C245.318 107.769 245.483 107.69 245.623 107.576C245.763 107.461 245.874 107.316 245.946 107.15L250.75 95.711C250.809 95.5747 250.84 95.4279 250.841 95.2795C250.841 95.131 250.812 94.9839 250.755 94.8469C250.698 94.7099 250.614 94.5857 250.508 94.4819C250.402 94.3781 250.276 94.2966 250.138 94.2424V94.2424Z" fill="#455A64"/>
<path d="M154.434 100.109C139.571 108.699 127.519 129.562 127.526 146.728C127.534 163.894 139.578 170.854 154.441 162.271C169.305 153.688 181.364 132.81 181.349 115.651C181.334 98.4927 169.283 91.5112 154.434 100.109Z" fill="#455A64"/>
<path d="M165.681 140.958C160.663 140.752 147.334 139.054 147.334 139.054C143.361 136.466 140.153 132.862 138.043 128.616C135.933 124.37 134.998 119.636 135.335 114.907L135.63 110.759C135.879 106.935 137.425 103.31 140.012 100.482C142.598 97.6537 146.071 95.7915 149.858 95.2023C152.146 94.8559 154.483 95.0283 156.696 95.7067C158.908 96.3851 160.94 97.5523 162.64 99.1218C164.341 100.691 165.667 102.623 166.52 104.774C167.374 106.925 167.733 109.24 167.57 111.549C167.423 113.586 167.644 115.446 169.046 117.04C169.852 117.841 170.746 118.549 171.711 119.15C173.081 120.04 174.274 121.176 175.231 122.501C175.704 123.167 176.036 123.924 176.205 124.724C176.374 125.523 176.376 126.349 176.212 127.15C175.929 128.169 175.361 129.086 174.574 129.792C174.431 129.891 174.333 130.042 174.301 130.213C174.306 130.336 174.344 130.456 174.412 130.56C175.607 132.73 175.961 135.527 174.685 137.652C173.814 138.977 172.51 139.959 170.995 140.427C169.497 140.886 167.932 141.085 166.367 141.017C166.19 140.958 165.932 140.958 165.681 140.958Z" fill="#263238"/>
<path d="M142.176 141.09C141.803 143.869 140.353 146.389 138.139 148.109C137.411 148.681 136.599 149.139 135.733 149.467C135.733 149.467 135.733 149.467 135.733 149.467L131.947 161.208C129.157 157.924 127.519 153.002 127.519 146.714C127.539 144.185 127.786 141.663 128.257 139.179V139.179C130.198 134.367 132.685 132.36 138.102 131.799C138.368 131.961 143.091 135.171 142.176 141.09Z" fill="#FFA8A7"/>
<path d="M199.998 140.552C196.805 146.116 193.329 151.512 189.585 156.721C188.655 157.961 186.057 161.386 184.699 161.718C182.972 162.146 181.504 160.78 180.581 160.146C177.452 157.976 161.261 141.88 161.261 141.88C156.22 134.854 157.489 130.375 158.176 130.367C158.862 130.36 164.028 129.009 168.449 133.319C171.799 136.589 183.246 148.419 183.246 148.419C185.947 145.245 187.718 143.674 190.412 140.493C191.725 138.943 193.725 137.275 193.814 135.142C193.805 134.168 193.718 133.195 193.555 132.235C193.392 130.012 193.534 127.777 193.976 125.593C193.985 125.493 194.01 125.396 194.05 125.305C194.122 125.182 194.234 125.089 194.367 125.039C194.615 124.967 194.881 124.979 195.121 125.074C195.361 125.169 195.564 125.341 195.696 125.563C195.949 126.015 196.088 126.521 196.101 127.039C196.115 127.547 196.225 128.048 196.426 128.515C196.469 128.611 196.535 128.695 196.618 128.759C196.712 128.821 196.823 128.852 196.935 128.847C197.548 128.847 197.88 128.183 198.101 127.696C198.635 126.556 199.065 125.37 199.386 124.153C199.607 123.319 199.991 122.515 200.279 121.688C200.391 121.199 200.648 120.754 201.017 120.412C201.681 119.917 202.625 120.19 203.371 120.567C203.782 120.771 204.17 121.019 204.529 121.305C205.591 122.274 206.291 123.575 206.515 124.995C206.813 126.637 206.702 128.328 206.19 129.917C205.557 132.154 204.505 134.25 203.09 136.094C202.087 137.585 200.943 138.995 199.998 140.552Z" fill="#FFA8A7"/>
<path d="M163.976 150.987L163.792 154.936C161.015 157.785 157.87 160.252 154.441 162.271C151.397 164.117 148.01 165.324 144.486 165.821C142.007 166.156 139.483 165.869 137.143 164.987L137.696 163.245L135.718 149.482C136.014 149.2 136.277 148.886 136.501 148.545C136.611 148.39 136.722 148.22 136.847 148.021C136.99 147.799 137.121 147.57 137.239 147.334C137.327 147.172 137.408 147.002 137.497 146.818C137.585 146.633 137.667 146.449 137.755 146.249L137.903 145.917C137.991 145.696 138.08 145.452 138.168 145.179C138.197 145.11 138.222 145.038 138.242 144.965V144.965C138.66 143.705 138.957 142.407 139.128 141.091C139.866 135.622 138.508 132.345 138.072 131.785C138.301 131.711 143.334 131.43 143.334 131.43L153.423 130.25L158.257 130.434C161.939 132.709 164.786 136.113 166.375 140.139C168.95 146.478 163.976 150.987 163.976 150.987Z" fill="#FAFAFA"/>
<path opacity="0.1" d="M144.486 165.821C142.007 166.156 139.483 165.869 137.143 164.987L137.696 163.245L135.718 149.481C136.014 149.2 136.277 148.886 136.501 148.544C136.611 148.389 136.722 148.219 136.847 148.02C136.99 147.799 137.121 147.57 137.239 147.334C137.327 147.171 137.408 147.002 137.497 146.817C137.585 146.633 137.667 146.448 137.755 146.249L137.903 145.917C137.991 145.695 138.08 145.452 138.168 145.179C138.197 145.109 138.222 145.038 138.242 144.965C138.198 145.703 138.139 146.854 138.124 148.101C138.103 149.511 138.167 150.921 138.316 152.323C138.759 155.924 142.619 163.776 144.131 165.024C144.262 165.107 144.366 165.227 144.429 165.369C144.492 165.511 144.511 165.668 144.486 165.821V165.821Z" fill="black"/>
<path d="M163.467 104.316C164.419 105.452 165.6 108.338 164.626 117.526C163.799 125.312 161.113 127.032 159.799 127.482C158.485 127.932 156.065 127.386 153.718 126.795L153.401 130.596C155.652 132.36 157.582 134.5 159.105 136.921C160.906 140.02 152.301 140.611 147.224 135.821C144.508 133.26 142.796 131.452 142.796 131.452L143.792 120.19C143.792 120.19 142.316 121.438 140.102 119.164C138.286 117.29 137.888 114.345 139.519 112.914C139.945 112.578 140.446 112.348 140.979 112.243C141.512 112.138 142.062 112.162 142.584 112.312C143.106 112.462 143.584 112.734 143.981 113.106C144.377 113.477 144.679 113.937 144.862 114.449C144.862 114.449 148.648 114.906 153.932 112.545C159.216 110.183 162.877 107.312 163.467 104.316Z" fill="#FFA8A7"/>
<path d="M156.456 115.047C156.462 115.183 156.439 115.319 156.389 115.446C156.34 115.573 156.265 115.688 156.168 115.785C156.072 115.881 155.957 115.957 155.83 116.007C155.703 116.057 155.567 116.08 155.431 116.075C155.295 116.07 155.161 116.036 155.038 115.977C154.915 115.918 154.806 115.834 154.717 115.73C154.629 115.627 154.562 115.506 154.522 115.376C154.482 115.245 154.47 115.108 154.486 114.973C154.48 114.837 154.503 114.701 154.552 114.574C154.602 114.447 154.677 114.331 154.773 114.235C154.87 114.138 154.985 114.062 155.112 114.012C155.239 113.963 155.375 113.939 155.511 113.945C155.647 113.95 155.781 113.983 155.904 114.042C156.026 114.101 156.136 114.185 156.224 114.289C156.313 114.392 156.38 114.513 156.419 114.644C156.459 114.774 156.472 114.911 156.456 115.047V115.047Z" fill="#263238"/>
<path d="M155.349 121.224L157.88 122.265C157.82 122.435 157.726 122.591 157.603 122.724C157.481 122.857 157.333 122.964 157.168 123.038C157.003 123.113 156.825 123.153 156.645 123.157C156.464 123.161 156.284 123.129 156.117 123.062C155.782 122.907 155.518 122.632 155.376 122.292C155.234 121.952 155.225 121.571 155.349 121.224Z" fill="#F28F8F"/>
<path d="M164.515 113.069L162.36 111.984C162.423 111.84 162.515 111.709 162.631 111.602C162.746 111.494 162.882 111.411 163.031 111.358C163.179 111.305 163.337 111.282 163.495 111.292C163.652 111.302 163.806 111.344 163.947 111.416C164.235 111.566 164.455 111.821 164.561 112.129C164.666 112.437 164.65 112.773 164.515 113.069V113.069Z" fill="#263238"/>
<path d="M163.467 115.401C163.452 115.593 163.382 115.776 163.264 115.928C163.147 116.08 162.987 116.194 162.806 116.256C162.624 116.318 162.428 116.326 162.242 116.277C162.056 116.229 161.888 116.127 161.759 115.985C161.631 115.842 161.547 115.665 161.518 115.475C161.489 115.285 161.516 115.091 161.597 114.916C161.677 114.742 161.807 114.595 161.97 114.493C162.134 114.392 162.323 114.341 162.515 114.346C162.647 114.353 162.776 114.385 162.895 114.442C163.015 114.499 163.122 114.578 163.21 114.676C163.298 114.774 163.367 114.889 163.411 115.013C163.455 115.138 163.474 115.27 163.467 115.401V115.401Z" fill="#263238"/>
<path d="M159.526 113.992L158.943 120.375L162.131 119.674L159.526 113.992Z" fill="#F28F8F"/>
<path d="M153.718 126.795C151.231 126.256 146.198 124.345 145.6 122.241C145.837 123.301 146.393 124.262 147.194 124.994C148.626 126.47 153.622 128.352 153.622 128.352L153.718 126.795Z" fill="#F28F8F"/>
<path d="M144.286 117.275C144.809 117.275 145.31 117.068 145.68 116.698C146.049 116.329 146.257 115.828 146.257 115.305C146.257 114.782 146.049 114.281 145.68 113.912C145.31 113.542 144.809 113.334 144.286 113.334V117.275Z" fill="#263238"/>
<path d="M267.348 244.928L298.565 224.936L312.314 229.349L267.348 244.928Z" fill="#1CC3EC"/>
<path d="M267.348 244.927L294.329 222.425L288.329 215.503L267.348 244.927Z" fill="#1CC3EC"/>
<path d="M294.329 222.426V227.651L267.348 244.928L294.329 222.426Z" fill="#1CC3EC"/>
<path opacity="0.3" d="M294.329 222.426V227.651L267.348 244.928L294.329 222.426Z" fill="black"/>
<path d="M332.926 85.298L309.901 70.5527L299.761 73.8073L332.926 85.298Z" fill="#1CC3EC"/>
<path d="M332.926 85.2974L313.023 68.6997L317.451 63.5928L332.926 85.2974Z" fill="#1CC3EC"/>
<path d="M313.023 68.7012V72.5535L332.926 85.2988L313.023 68.7012Z" fill="#1CC3EC"/>
<path opacity="0.3" d="M313.023 68.7012V72.5535L332.926 85.2988L313.023 68.7012Z" fill="black"/>
<path d="M308.949 67.5862C308.789 67.5862 308.634 67.5344 308.506 67.4386C308.218 67.2172 307.923 67.0031 307.628 66.7891C307.549 66.7326 307.481 66.661 307.43 66.5784C307.378 66.4958 307.344 66.4039 307.328 66.3078C307.312 66.2118 307.316 66.1136 307.338 66.0189C307.36 65.9242 307.401 65.8348 307.458 65.7559C307.515 65.6772 307.587 65.6106 307.67 65.5599C307.753 65.5091 307.845 65.4752 307.941 65.4601C308.037 65.445 308.135 65.4491 308.229 65.472C308.324 65.4949 308.413 65.5362 308.491 65.5936C308.794 65.8076 309.096 66.029 309.392 66.2578C309.516 66.3507 309.607 66.4803 309.653 66.6281C309.699 66.776 309.698 66.9346 309.649 67.0815C309.6 67.2285 309.506 67.3563 309.38 67.4469C309.255 67.5374 309.104 67.5862 308.949 67.5862V67.5862Z" fill="#E0E0E0"/>
<path d="M304.794 64.7375C304.656 64.7379 304.52 64.6995 304.403 64.6268C303.748 64.2135 303.084 63.815 302.41 63.4312C302.24 63.3333 302.116 63.1718 302.064 62.9822C302.013 62.7926 302.039 62.5904 302.137 62.4201C302.235 62.2499 302.397 62.1254 302.586 62.0742C302.776 62.023 302.978 62.0492 303.148 62.1471C303.842 62.5456 304.521 62.9515 305.193 63.3722C305.329 63.4568 305.434 63.5837 305.492 63.7336C305.55 63.8835 305.557 64.0482 305.513 64.2027C305.469 64.3572 305.376 64.493 305.247 64.5895C305.119 64.686 304.962 64.738 304.801 64.7375H304.794ZM299.311 61.7117C299.201 61.7126 299.092 61.6873 298.993 61.6379C298.3 61.3058 297.584 60.981 296.883 60.6858C296.79 60.6506 296.705 60.5971 296.633 60.5283C296.562 60.4596 296.505 60.377 296.466 60.2857C296.426 60.1944 296.406 60.0961 296.406 59.9968C296.406 59.8975 296.426 59.7991 296.465 59.7077C296.503 59.6162 296.56 59.5336 296.632 59.4646C296.703 59.3956 296.788 59.3418 296.881 59.3064C296.973 59.2709 297.072 59.2545 297.172 59.2582C297.271 59.2619 297.368 59.2856 297.458 59.3279C298.196 59.6379 298.934 59.9626 299.628 60.3095C299.778 60.3821 299.899 60.5034 299.971 60.6536C300.044 60.8038 300.063 60.974 300.026 61.1366C299.989 61.2991 299.899 61.4445 299.769 61.5489C299.639 61.6533 299.477 61.7107 299.311 61.7117V61.7117ZM293.51 59.3574C293.43 59.356 293.35 59.3435 293.274 59.3205C292.536 59.077 291.798 58.8482 291.06 58.6416C290.959 58.6233 290.863 58.5843 290.778 58.5269C290.693 58.4695 290.621 58.395 290.566 58.3082C290.512 58.2214 290.476 58.1242 290.461 58.0227C290.446 57.9213 290.452 57.8178 290.48 57.719C290.507 57.6201 290.555 57.5281 290.619 57.4486C290.684 57.3692 290.765 57.3041 290.856 57.2576C290.948 57.2111 291.048 57.1842 291.15 57.1785C291.253 57.1728 291.355 57.1885 291.451 57.2246C292.189 57.4313 292.979 57.6674 293.731 57.9183C293.824 57.9484 293.91 57.9966 293.984 58.0601C294.058 58.1236 294.119 58.2012 294.163 58.2884C294.207 58.3755 294.233 58.4706 294.24 58.5679C294.247 58.6653 294.235 58.7631 294.204 58.8556C294.156 58.9975 294.066 59.1215 293.946 59.2111C293.826 59.3008 293.682 59.3518 293.532 59.3574H293.51ZM266.595 59.2098C266.439 59.2097 266.288 59.1604 266.162 59.069C266.036 58.9775 265.942 58.8486 265.894 58.7006C265.833 58.5156 265.848 58.3141 265.935 58.1399C266.022 57.9657 266.174 57.833 266.359 57.7707C267.097 57.5124 267.879 57.2837 268.639 57.0327C268.733 57.007 268.831 56.9999 268.927 57.012C269.023 57.024 269.116 57.0549 269.2 57.1028C269.285 57.1508 269.359 57.215 269.418 57.2916C269.478 57.3682 269.521 57.4558 269.547 57.5493C269.573 57.6429 269.58 57.7406 269.568 57.8368C269.556 57.9331 269.525 58.026 269.477 58.1103C269.429 58.1946 269.365 58.2686 269.288 58.3281C269.212 58.3876 269.124 58.4315 269.031 58.4571C268.293 58.6637 267.555 58.8851 266.817 59.1287C266.755 59.167 266.688 59.1945 266.617 59.2098H266.595ZM287.451 57.7855H287.311C286.573 57.6453 285.791 57.5198 285.038 57.4239C284.941 57.4113 284.847 57.3797 284.763 57.331C284.678 57.2823 284.604 57.2173 284.544 57.1399C284.484 57.0624 284.441 56.974 284.415 56.8797C284.39 56.7853 284.383 56.6869 284.396 56.5899C284.408 56.493 284.44 56.3995 284.489 56.3148C284.537 56.2301 284.602 56.1558 284.68 56.0962C284.757 56.0366 284.846 55.9928 284.94 55.9673C285.034 55.9419 285.133 55.9353 285.23 55.9479C286.012 56.0512 286.802 56.1767 287.584 56.3243C287.78 56.3419 287.96 56.4365 288.086 56.5874C288.212 56.7382 288.273 56.933 288.255 57.1287C288.238 57.3244 288.143 57.5051 287.992 57.6311C287.841 57.757 287.647 57.8179 287.451 57.8003V57.7855ZM272.691 57.6674C272.594 57.6757 272.496 57.6647 272.404 57.6352C272.311 57.6058 272.225 57.5583 272.151 57.4956C272.076 57.4329 272.015 57.3562 271.97 57.2698C271.926 57.1834 271.899 57.0891 271.89 56.9921C271.882 56.8952 271.893 56.7976 271.922 56.705C271.952 56.6123 271.999 56.5263 272.062 56.4519C272.125 56.3776 272.202 56.3163 272.288 56.2716C272.374 56.2269 272.469 56.1997 272.566 56.1914C273.348 56.0586 274.145 55.9405 274.935 55.8519C275.13 55.8294 275.327 55.8856 275.481 56.0081C275.636 56.1306 275.735 56.3093 275.757 56.5051C275.78 56.7008 275.724 56.8975 275.601 57.0518C275.479 57.2061 275.3 57.3054 275.104 57.3279C274.366 57.4165 273.577 57.5272 272.816 57.66L272.691 57.6674ZM281.267 57.0844C280.529 57.0844 279.724 57.0844 278.957 57.0844C278.761 57.0844 278.573 57.0066 278.435 56.8682C278.296 56.7298 278.219 56.5421 278.219 56.3464C278.219 56.1507 278.296 55.963 278.435 55.8246C278.573 55.6862 278.761 55.6084 278.957 55.6084C279.761 55.6084 280.551 55.6084 281.348 55.6084C281.543 55.6084 281.731 55.6862 281.87 55.8246C282.008 55.963 282.086 56.1507 282.086 56.3464C282.086 56.5421 282.008 56.7298 281.87 56.8682C281.731 57.0066 281.543 57.0844 281.348 57.0844H281.267Z" fill="#E0E0E0"/>
<path d="M261.946 61.0773C261.779 61.0763 261.618 61.019 261.488 60.9145C261.358 60.8101 261.267 60.6648 261.23 60.5022C261.193 60.3397 261.213 60.1694 261.285 60.0192C261.357 59.869 261.478 59.7478 261.628 59.6751L262.654 59.2102C262.743 59.1709 262.838 59.1495 262.935 59.1472C263.032 59.1449 263.129 59.1616 263.219 59.1966C263.31 59.2315 263.392 59.284 263.463 59.3509C263.533 59.4178 263.589 59.4979 263.628 59.5865C263.668 59.6752 263.689 59.7708 263.691 59.8677C263.694 59.9647 263.677 60.0611 263.642 60.1516C263.607 60.242 263.555 60.3247 263.488 60.3949C263.421 60.4651 263.341 60.5215 263.252 60.5607C262.92 60.7009 262.588 60.8559 262.256 61.0109C262.158 61.0552 262.053 61.0779 261.946 61.0773V61.0773Z" fill="#E0E0E0"/>
<path d="M303.443 219.673C303.288 219.672 303.137 219.621 303.011 219.529C302.886 219.437 302.793 219.308 302.745 219.16C302.698 219.012 302.698 218.852 302.747 218.705C302.795 218.557 302.889 218.428 303.015 218.337L303.916 217.695C303.994 217.637 304.083 217.595 304.178 217.572C304.272 217.549 304.371 217.545 304.467 217.559C304.563 217.574 304.656 217.608 304.739 217.658C304.822 217.709 304.895 217.775 304.953 217.853C305.01 217.932 305.052 218.021 305.075 218.116C305.098 218.21 305.103 218.308 305.088 218.405C305.073 218.501 305.04 218.593 304.989 218.677C304.939 218.76 304.872 218.833 304.794 218.89L303.894 219.54C303.762 219.632 303.604 219.678 303.443 219.673Z" fill="#E0E0E0"/>
<path d="M307.311 216.854C307.196 216.854 307.083 216.828 306.981 216.777C306.878 216.725 306.789 216.651 306.72 216.559C306.603 216.403 306.552 216.206 306.58 216.012C306.608 215.818 306.711 215.643 306.868 215.526L308.617 214.198C308.772 214.092 308.962 214.05 309.148 214.08C309.333 214.109 309.5 214.209 309.615 214.357C309.73 214.506 309.784 214.693 309.766 214.88C309.747 215.067 309.658 215.24 309.517 215.364C308.934 215.814 308.351 216.264 307.753 216.707C307.626 216.803 307.47 216.854 307.311 216.854V216.854ZM311.953 213.231C311.801 213.23 311.654 213.182 311.531 213.094C311.407 213.006 311.314 212.883 311.263 212.74C311.212 212.598 311.207 212.443 311.247 212.297C311.287 212.151 311.371 212.021 311.488 211.925L313.178 210.522C313.25 210.45 313.336 210.394 313.431 210.357C313.526 210.32 313.628 210.304 313.729 210.308C313.831 210.312 313.931 210.337 314.023 210.382C314.114 210.427 314.195 210.49 314.261 210.568C314.327 210.645 314.376 210.736 314.406 210.833C314.435 210.931 314.444 211.034 314.431 211.135C314.419 211.236 314.386 211.333 314.334 211.421C314.282 211.509 314.212 211.585 314.13 211.644C313.569 212.124 312.993 212.596 312.417 213.068C312.286 213.174 312.122 213.232 311.953 213.231V213.231ZM316.425 209.401C316.275 209.402 316.129 209.357 316.005 209.274C315.882 209.19 315.786 209.07 315.732 208.931C315.678 208.792 315.667 208.64 315.701 208.494C315.735 208.349 315.812 208.217 315.923 208.117C316.469 207.622 317.008 207.128 317.532 206.641C317.6 206.571 317.682 206.516 317.772 206.479C317.862 206.441 317.958 206.422 318.056 206.422C318.153 206.422 318.25 206.441 318.34 206.479C318.43 206.516 318.511 206.571 318.58 206.641C318.717 206.779 318.794 206.966 318.794 207.161C318.794 207.356 318.717 207.543 318.58 207.681C318.041 208.19 317.502 208.692 316.949 209.194C316.808 209.329 316.62 209.404 316.425 209.401V209.401ZM320.661 205.312C320.468 205.313 320.283 205.239 320.144 205.105C320.007 204.967 319.93 204.78 319.93 204.585C319.93 204.39 320.007 204.203 320.144 204.065C320.654 203.534 321.155 203.002 321.62 202.471C321.756 202.341 321.936 202.268 322.123 202.266C322.311 202.264 322.492 202.334 322.63 202.46C322.768 202.587 322.853 202.762 322.867 202.949C322.881 203.136 322.823 203.321 322.705 203.467C322.211 204.013 321.702 204.552 321.185 205.091C321.117 205.16 321.035 205.216 320.945 205.254C320.855 205.292 320.759 205.312 320.661 205.312V205.312ZM324.58 200.928C324.407 200.929 324.24 200.869 324.107 200.759C324.032 200.697 323.97 200.622 323.924 200.536C323.878 200.45 323.849 200.356 323.84 200.26C323.83 200.163 323.84 200.066 323.868 199.973C323.896 199.88 323.942 199.793 324.004 199.718C324.469 199.15 324.919 198.582 325.355 198.006C325.476 197.86 325.65 197.766 325.839 197.745C326.027 197.724 326.217 197.776 326.369 197.891C326.52 198.006 326.621 198.175 326.651 198.363C326.68 198.551 326.636 198.743 326.528 198.899C326.085 199.489 325.62 200.072 325.148 200.655C325.079 200.74 324.993 200.808 324.895 200.856C324.796 200.903 324.689 200.928 324.58 200.928V200.928ZM328.063 196.183C327.931 196.183 327.801 196.147 327.687 196.079C327.573 196.012 327.48 195.915 327.416 195.798C327.353 195.682 327.322 195.551 327.327 195.419C327.332 195.287 327.372 195.158 327.443 195.047C327.842 194.441 328.225 193.821 328.594 193.202C328.637 193.107 328.699 193.023 328.776 192.955C328.853 192.886 328.944 192.834 329.042 192.803C329.14 192.771 329.244 192.761 329.347 192.772C329.449 192.783 329.549 192.816 329.638 192.867C329.727 192.919 329.805 192.989 329.865 193.073C329.926 193.157 329.968 193.252 329.989 193.353C330.01 193.454 330.01 193.559 329.989 193.66C329.967 193.761 329.925 193.856 329.864 193.94C329.487 194.582 329.089 195.224 328.683 195.844C328.616 195.948 328.525 196.033 328.416 196.092C328.308 196.152 328.187 196.183 328.063 196.183V196.183ZM330.963 191.069C330.854 191.065 330.746 191.04 330.646 190.995C330.558 190.953 330.479 190.894 330.414 190.822C330.349 190.749 330.299 190.665 330.267 190.573C330.234 190.481 330.221 190.383 330.226 190.286C330.232 190.189 330.257 190.094 330.299 190.006C330.617 189.349 330.912 188.685 331.185 188.028C331.222 187.939 331.277 187.857 331.346 187.789C331.414 187.72 331.496 187.666 331.586 187.629C331.675 187.592 331.772 187.573 331.869 187.573C331.966 187.573 332.062 187.592 332.152 187.63C332.241 187.667 332.323 187.722 332.391 187.79C332.46 187.859 332.514 187.941 332.551 188.03C332.588 188.12 332.607 188.216 332.607 188.314C332.607 188.411 332.587 188.507 332.55 188.596C332.27 189.275 331.96 189.962 331.628 190.648C331.568 190.774 331.474 190.88 331.356 190.954C331.239 191.029 331.103 191.068 330.963 191.069V191.069ZM333.104 185.593C333.033 185.603 332.961 185.603 332.89 185.593C332.704 185.535 332.55 185.406 332.458 185.235C332.367 185.064 332.347 184.864 332.403 184.678C332.609 183.984 332.801 183.283 332.963 182.589C333.008 182.398 333.127 182.233 333.294 182.13C333.461 182.027 333.662 181.994 333.853 182.039C334.044 182.084 334.209 182.203 334.312 182.37C334.415 182.537 334.448 182.738 334.403 182.929C334.233 183.667 334.034 184.405 333.812 185.143C333.754 185.281 333.655 185.398 333.528 185.478C333.402 185.559 333.253 185.599 333.104 185.593V185.593Z" fill="#E0E0E0"/>
<path d="M334.314 179.835H334.218C334.024 179.81 333.849 179.708 333.73 179.553C333.611 179.398 333.558 179.203 333.583 179.009C333.628 178.655 333.665 178.271 333.694 177.939C333.712 177.743 333.806 177.562 333.957 177.436C334.108 177.31 334.303 177.25 334.498 177.267C334.694 177.285 334.875 177.379 335.001 177.53C335.127 177.681 335.188 177.876 335.17 178.072C335.133 178.448 335.089 178.81 335.045 179.193C335.021 179.371 334.934 179.534 334.8 179.652C334.666 179.77 334.493 179.835 334.314 179.835V179.835Z" fill="#E0E0E0"/>
</svg>
