<svg width="492" height="478" viewBox="0 0 492 478" fill="none" xmlns="http://www.w3.org/2000/svg">
<path d="M492 365.575H0V365.814H492V365.575Z" fill="#EBEBEB"/>
<path d="M442.702 380.958H410.112V381.197H442.702V380.958Z" fill="#EBEBEB"/>
<path d="M325.921 383.556H317.37V383.795H325.921V383.556Z" fill="#EBEBEB"/>
<path d="M409.128 372.085H390.245V372.324H409.128V372.085Z" fill="#EBEBEB"/>
<path d="M94.1196 373.691H51.6207V373.93H94.1196V373.691Z" fill="#EBEBEB"/>
<path d="M109.116 373.691H102.887V373.93H109.116V373.691Z" fill="#EBEBEB"/>
<path d="M221.548 377.725H129.366V377.964H221.548V377.725Z" fill="#EBEBEB"/>
<path d="M233.208 322.937H43.2075C41.719 322.934 40.2924 322.358 39.2408 321.335C38.1893 320.311 37.5987 318.924 37.5987 317.478V57.991C37.6116 56.5532 38.2079 55.1785 39.2581 54.1653C40.3083 53.1522 41.7275 52.5825 43.2075 52.5801H233.208C234.698 52.5801 236.127 53.1552 237.181 54.1789C238.235 55.2026 238.827 56.5911 238.827 58.0388V317.478C238.827 318.926 238.235 320.314 237.181 321.338C236.127 322.362 234.698 322.937 233.208 322.937V322.937ZM43.2075 52.7713C41.7843 52.7738 40.4202 53.3249 39.4148 54.3035C38.4094 55.2821 37.8447 56.6083 37.8447 57.991V317.478C37.8447 318.861 38.4094 320.187 39.4148 321.166C40.4202 322.144 41.7843 322.695 43.2075 322.698H233.208C234.632 322.695 235.997 322.145 237.004 321.166C238.011 320.188 238.578 318.862 238.581 317.478V57.991C238.578 56.6074 238.011 55.2812 237.004 54.3029C235.997 53.3246 234.632 52.7738 233.208 52.7713H43.2075Z" fill="#EBEBEB"/>
<path d="M446.057 322.937H256.047C254.557 322.934 253.13 322.358 252.077 321.335C251.023 320.312 250.431 318.925 250.428 317.478V57.991C250.444 56.5524 251.042 55.1776 252.094 54.1647C253.146 53.1519 254.566 52.5825 256.047 52.5801H446.057C447.535 52.5851 448.952 53.1558 450 54.1687C451.048 55.1816 451.643 56.5549 451.656 57.991V317.478C451.656 318.923 451.067 320.308 450.017 321.331C448.968 322.354 447.544 322.932 446.057 322.937ZM256.047 52.7713C254.622 52.7738 253.257 53.3246 252.25 54.3029C251.243 55.2812 250.677 56.6074 250.674 57.991V317.478C250.677 318.862 251.243 320.188 252.25 321.166C253.257 322.145 254.622 322.695 256.047 322.698H446.057C447.481 322.695 448.846 322.145 449.853 321.166C450.86 320.188 451.427 318.862 451.43 317.478V57.991C451.427 56.6074 450.86 55.2812 449.853 54.3029C448.846 53.3246 447.481 52.7738 446.057 52.7713H256.047Z" fill="#EBEBEB"/>
<path d="M248.275 113.546C259.023 111.081 265.679 100.619 263.142 90.1771C260.606 79.7354 249.837 73.2685 239.089 75.733C228.341 78.1975 221.685 88.66 224.222 99.1018C226.758 109.544 237.527 116.01 248.275 113.546Z" fill="#E0E0E0"/>
<path d="M247.588 110.717C256.728 108.621 262.388 99.724 260.231 90.8444C258.074 81.9648 248.916 76.4654 239.776 78.5612C230.636 80.657 224.976 89.5543 227.133 98.4339C229.29 107.313 238.448 112.813 247.588 110.717Z" fill="#F0F0F0"/>
<path d="M242.891 105.963V94.4141L235.019 98.7447" fill="#F0F0F0"/>
<path d="M242.89 106.785C242.666 106.785 242.451 106.699 242.292 106.544C242.133 106.39 242.044 106.181 242.044 105.963V95.8294L235.432 99.4622C235.335 99.5155 235.228 99.5498 235.117 99.5631C235.007 99.5763 234.895 99.5683 234.787 99.5395C234.68 99.5106 234.58 99.4615 234.492 99.3949C234.404 99.3284 234.33 99.2456 234.276 99.1515C234.221 99.0573 234.185 98.9536 234.172 98.8462C234.158 98.7388 234.166 98.6298 234.196 98.5255C234.226 98.4212 234.276 98.3236 234.345 98.2382C234.413 98.1529 234.498 98.0815 234.595 98.0282L242.467 93.6975C242.596 93.6275 242.741 93.5914 242.889 93.5928C243.037 93.5942 243.181 93.6331 243.308 93.7056C243.436 93.778 243.541 93.8816 243.615 94.006C243.688 94.1303 243.727 94.2711 243.727 94.4145V105.963C243.727 106.179 243.639 106.387 243.482 106.541C243.326 106.695 243.113 106.783 242.89 106.785Z" fill="#E0E0E0"/>
<path d="M435.341 191.392V128.506H352.046V191.392H435.341Z" fill="#E0E0E0"/>
<path d="M432.822 131.106H354.575V188.791H432.822V131.106Z" fill="#EBEBEB"/>
<path d="M369.482 137.33H360.046V150.293H369.482V137.33Z" fill="#F5F5F5"/>
<path d="M381.782 141.152H371.844V155.024H381.782V141.152Z" fill="#F5F5F5"/>
<path d="M370.162 170.244L360.323 168.988L358.467 182.721L368.306 183.976L370.162 170.244Z" fill="#F5F5F5"/>
<path d="M394.85 169.393H384.911V183.265H394.85V169.393Z" fill="#F5F5F5"/>
<path d="M382.973 167.931H373.034V181.803H382.973V167.931Z" fill="#F5F5F5"/>
<path d="M411.922 138.267H405.752V144.261H411.922V138.267Z" fill="#F5F5F5"/>
<path d="M420.891 140.081L415.129 137.938L412.924 143.537L418.686 145.679L420.891 140.081Z" fill="#F5F5F5"/>
<path d="M408.842 139.032C408.84 139.124 408.8 139.212 408.732 139.276C408.664 139.34 408.573 139.376 408.478 139.376C408.426 139.384 408.373 139.382 408.322 139.368C408.271 139.354 408.223 139.33 408.183 139.297C408.143 139.264 408.11 139.222 408.088 139.176C408.066 139.129 408.054 139.078 408.054 139.027C408.054 138.976 408.066 138.925 408.088 138.878C408.11 138.832 408.143 138.79 408.183 138.757C408.223 138.724 408.271 138.7 408.322 138.686C408.373 138.672 408.426 138.67 408.478 138.678C408.575 138.678 408.667 138.715 408.736 138.782C408.804 138.848 408.842 138.938 408.842 139.032V139.032Z" fill="#E0E0E0"/>
<path d="M415.937 139.03C415.937 139.1 415.915 139.169 415.875 139.227C415.835 139.285 415.779 139.331 415.712 139.357C415.646 139.384 415.572 139.391 415.502 139.377C415.431 139.364 415.366 139.33 415.315 139.281C415.264 139.231 415.23 139.168 415.216 139.099C415.202 139.031 415.209 138.96 415.236 138.895C415.264 138.83 415.311 138.775 415.37 138.736C415.43 138.698 415.501 138.677 415.573 138.677C415.669 138.677 415.762 138.714 415.83 138.78C415.898 138.847 415.937 138.937 415.937 139.03V139.03Z" fill="#E0E0E0"/>
<path d="M377.167 142.177C377.153 142.259 377.109 142.335 377.043 142.389C376.978 142.443 376.894 142.473 376.808 142.473C376.722 142.473 376.638 142.443 376.573 142.389C376.507 142.335 376.463 142.259 376.449 142.177C376.44 142.126 376.443 142.074 376.457 142.025C376.471 141.975 376.496 141.929 376.53 141.89C376.564 141.851 376.607 141.819 376.655 141.798C376.703 141.776 376.755 141.765 376.808 141.765C376.861 141.765 376.913 141.776 376.961 141.798C377.009 141.819 377.052 141.851 377.086 141.89C377.12 141.929 377.145 141.975 377.159 142.025C377.173 142.074 377.176 142.126 377.167 142.177V142.177Z" fill="#E0E0E0"/>
<path d="M365.123 138.266C365.132 138.316 365.129 138.368 365.115 138.418C365.101 138.467 365.076 138.513 365.042 138.552C365.007 138.591 364.965 138.623 364.917 138.644C364.869 138.666 364.817 138.677 364.764 138.677C364.711 138.677 364.659 138.666 364.611 138.644C364.563 138.623 364.52 138.591 364.486 138.552C364.452 138.513 364.427 138.467 364.413 138.418C364.399 138.368 364.396 138.316 364.405 138.266C364.419 138.183 364.463 138.108 364.528 138.054C364.594 137.999 364.678 137.97 364.764 137.97C364.85 137.97 364.933 137.999 364.999 138.054C365.065 138.108 365.109 138.183 365.123 138.266V138.266Z" fill="#E0E0E0"/>
<path d="M361.738 170.388C361.738 170.434 361.729 170.48 361.71 170.522C361.692 170.565 361.665 170.603 361.631 170.635C361.597 170.667 361.557 170.692 361.513 170.709C361.468 170.726 361.421 170.734 361.374 170.732C361.322 170.741 361.268 170.738 361.217 170.724C361.166 170.711 361.119 170.687 361.079 170.653C361.039 170.62 361.006 170.579 360.984 170.532C360.962 170.486 360.95 170.435 360.95 170.384C360.95 170.332 360.962 170.281 360.984 170.235C361.006 170.188 361.039 170.147 361.079 170.114C361.119 170.08 361.166 170.056 361.217 170.043C361.268 170.029 361.322 170.026 361.374 170.035C361.422 170.033 361.47 170.041 361.515 170.059C361.56 170.076 361.6 170.102 361.634 170.135C361.668 170.168 361.695 170.208 361.713 170.251C361.731 170.295 361.739 170.341 361.738 170.388Z" fill="#E0E0E0"/>
<path d="M378.368 168.726C378.368 168.796 378.346 168.864 378.306 168.922C378.266 168.98 378.21 169.026 378.143 169.053C378.076 169.079 378.003 169.086 377.933 169.073C377.862 169.059 377.797 169.025 377.746 168.976C377.695 168.926 377.661 168.863 377.647 168.795C377.633 168.726 377.64 168.655 377.667 168.59C377.695 168.526 377.742 168.471 377.801 168.432C377.861 168.393 377.932 168.372 378.004 168.372C378.1 168.372 378.193 168.409 378.261 168.476C378.329 168.542 378.368 168.632 378.368 168.726V168.726Z" fill="#E0E0E0"/>
<path d="M390.235 170.034C390.235 170.104 390.213 170.173 390.173 170.231C390.133 170.289 390.076 170.334 390.01 170.361C389.943 170.388 389.87 170.395 389.8 170.381C389.729 170.368 389.664 170.334 389.613 170.284C389.562 170.235 389.528 170.172 389.513 170.103C389.499 170.035 389.507 169.964 389.534 169.899C389.562 169.834 389.608 169.779 389.668 169.74C389.728 169.701 389.799 169.681 389.871 169.681C389.967 169.681 390.06 169.718 390.128 169.784C390.196 169.851 390.235 169.941 390.235 170.034Z" fill="#E0E0E0"/>
<path d="M427.902 157.013H408.114V169.068H427.902V157.013Z" fill="#E0E0E0"/>
<path d="M421.132 170.732H403.853V183.982H421.132V170.732Z" fill="#E0E0E0"/>
<path d="M139.964 191.392V128.506H56.6685V191.392H139.964Z" fill="#E0E0E0"/>
<path d="M137.435 131.106H59.1876V188.791H137.435V131.106Z" fill="#EBEBEB"/>
<path d="M96.8748 158.296H87.4382V171.259H96.8748V158.296Z" fill="#F5F5F5"/>
<path d="M109.175 162.128H99.2364V176H109.175V162.128Z" fill="#F5F5F5"/>
<path d="M106.841 138.946L96.9875 137.687L95.1264 151.44L104.98 152.699L106.841 138.946Z" fill="#F5F5F5"/>
<path d="M131.049 137.692H121.111V151.564H131.049V137.692Z" fill="#F5F5F5"/>
<path d="M119.172 136.239H109.234V150.111H119.172V136.239Z" fill="#F5F5F5"/>
<path d="M72.1567 135.83H65.987V141.824H72.1567V135.83Z" fill="#F5F5F5"/>
<path d="M81.1217 137.647L75.3595 135.504L73.1545 141.103L78.9167 143.245L81.1217 137.647Z" fill="#F5F5F5"/>
<path d="M69.0768 136.583C69.0788 136.654 69.0591 136.723 69.0203 136.782C68.9815 136.842 68.9253 136.889 68.859 136.917C68.7927 136.945 68.7192 136.954 68.6479 136.941C68.5767 136.928 68.5109 136.896 68.459 136.847C68.4071 136.797 68.3714 136.734 68.3565 136.666C68.3417 136.597 68.3483 136.525 68.3755 136.46C68.4028 136.395 68.4494 136.339 68.5095 136.3C68.5695 136.26 68.6403 136.239 68.7127 136.239C68.8076 136.239 68.8987 136.275 68.9667 136.339C69.0347 136.404 69.0742 136.491 69.0768 136.583V136.583Z" fill="#E0E0E0"/>
<path d="M76.1714 136.583C76.1801 136.634 76.1773 136.686 76.1632 136.735C76.1492 136.785 76.1242 136.831 76.09 136.87C76.0558 136.909 76.0133 136.941 75.9653 136.962C75.9173 136.984 75.8651 136.995 75.8123 136.995C75.7594 136.995 75.7072 136.984 75.6592 136.962C75.6112 136.941 75.5687 136.909 75.5345 136.87C75.5003 136.831 75.4754 136.785 75.4613 136.735C75.4472 136.686 75.4444 136.634 75.4531 136.583C75.4672 136.501 75.5111 136.426 75.5768 136.371C75.6426 136.317 75.726 136.288 75.8123 136.288C75.8985 136.288 75.9819 136.317 76.0477 136.371C76.1134 136.426 76.1573 136.501 76.1714 136.583Z" fill="#E0E0E0"/>
<path d="M102.002 151.047C102.003 151.118 101.984 151.187 101.945 151.246C101.906 151.306 101.85 151.353 101.784 151.381C101.717 151.409 101.644 151.417 101.573 151.405C101.501 151.392 101.436 151.359 101.384 151.31C101.332 151.261 101.296 151.198 101.281 151.129C101.266 151.061 101.273 150.989 101.3 150.924C101.327 150.859 101.374 150.803 101.434 150.763C101.494 150.724 101.565 150.703 101.637 150.703C101.732 150.703 101.823 150.739 101.891 150.803C101.959 150.868 101.999 150.955 102.002 151.047V151.047Z" fill="#E0E0E0"/>
<path d="M92.496 159.241C92.496 159.311 92.4746 159.379 92.4346 159.437C92.3946 159.496 92.3378 159.541 92.2712 159.568C92.2047 159.594 92.1315 159.602 92.0609 159.588C91.9903 159.574 91.9254 159.541 91.8745 159.491C91.8236 159.442 91.7889 159.379 91.7748 159.31C91.7608 159.241 91.768 159.17 91.7955 159.106C91.8231 159.041 91.8698 158.986 91.9296 158.947C91.9895 158.908 92.0599 158.887 92.1319 158.887C92.2277 158.89 92.3189 158.928 92.3866 158.993C92.4544 159.059 92.4935 159.148 92.496 159.241Z" fill="#E0E0E0"/>
<path d="M97.9375 138.696C97.9234 138.779 97.8795 138.854 97.8138 138.908C97.748 138.962 97.6646 138.992 97.5784 138.992C97.4921 138.992 97.4087 138.962 97.3429 138.908C97.2772 138.854 97.2333 138.779 97.2192 138.696C97.2105 138.646 97.2133 138.594 97.2274 138.544C97.2415 138.495 97.2664 138.449 97.3006 138.41C97.3348 138.37 97.3774 138.339 97.4253 138.317C97.4733 138.296 97.5255 138.285 97.5784 138.285C97.6312 138.285 97.6834 138.296 97.7314 138.317C97.7794 138.339 97.8219 138.37 97.8561 138.41C97.8903 138.449 97.9153 138.495 97.9293 138.544C97.9434 138.594 97.9462 138.646 97.9375 138.696V138.696Z" fill="#E0E0E0"/>
<path d="M114.203 137.376C114.404 137.376 114.567 137.218 114.567 137.023C114.567 136.827 114.404 136.669 114.203 136.669C114.002 136.669 113.839 136.827 113.839 137.023C113.839 137.218 114.002 137.376 114.203 137.376Z" fill="#E0E0E0"/>
<path d="M126.434 138.343C126.443 138.393 126.44 138.445 126.426 138.495C126.412 138.544 126.387 138.59 126.353 138.629C126.319 138.669 126.276 138.7 126.228 138.722C126.18 138.743 126.128 138.755 126.075 138.755C126.022 138.755 125.97 138.743 125.922 138.722C125.874 138.7 125.831 138.669 125.797 138.629C125.763 138.59 125.738 138.544 125.724 138.495C125.71 138.445 125.707 138.393 125.716 138.343C125.707 138.292 125.71 138.24 125.724 138.191C125.738 138.141 125.763 138.095 125.797 138.056C125.831 138.017 125.874 137.986 125.922 137.964C125.97 137.942 126.022 137.931 126.075 137.931C126.128 137.931 126.18 137.942 126.228 137.964C126.276 137.986 126.319 138.017 126.353 138.056C126.387 138.095 126.412 138.141 126.426 138.191C126.44 138.24 126.443 138.292 126.434 138.343V138.343Z" fill="#E0E0E0"/>
<path d="M132.584 172.261H112.796V184.316H132.584V172.261Z" fill="#E0E0E0"/>
<path d="M84.811 170.732H67.5319V183.982H84.811V170.732Z" fill="#E0E0E0"/>
<path d="M246 408.747C351.369 408.747 436.788 403.902 436.788 397.925C436.788 391.948 351.369 387.103 246 387.103C140.631 387.103 55.2122 391.948 55.2122 397.925C55.2122 403.902 140.631 408.747 246 408.747Z" fill="#F5F5F5"/>
<path d="M416.852 339.381C416.685 340.557 419.971 341.293 422.648 341.771C422.431 343.913 420.965 346.073 418.948 348.09C416.399 346.695 412.768 344.859 412.06 345.309C411.351 345.758 415.012 348.129 417.374 349.505C415.71 350.916 413.948 352.213 412.099 353.387C410.968 352.354 409.629 351.475 408.832 351.934C408.035 352.393 408.232 354.046 408.636 355.471C405.871 357.039 403.794 357.995 403.794 357.995C402.989 355.492 402.371 352.936 401.944 350.347C402.082 350.079 402.22 349.811 402.348 349.524C402.8 348.521 402.348 348.1 401.63 347.957C401.417 346.128 401.4 344.282 401.58 342.45C404.719 341.819 408.527 340.634 407.101 338.808C406.235 337.708 404.66 337.584 403.027 337.852C403.246 337.486 403.503 337.144 403.794 336.829C409.501 330.72 413.477 336.829 413.477 336.829C416.793 334.142 421.447 334.869 422.451 339.056C420.631 338.617 417.068 337.928 416.852 339.381Z" fill="#407BFF"/>
<path opacity="0.3" d="M416.852 339.381C416.685 340.557 419.971 341.293 422.648 341.771C422.431 343.913 420.965 346.073 418.948 348.09C416.399 346.695 412.768 344.859 412.06 345.309C411.351 345.758 415.012 348.129 417.374 349.505C415.71 350.916 413.948 352.213 412.099 353.387C410.968 352.354 409.629 351.475 408.832 351.934C408.035 352.393 408.232 354.046 408.636 355.471C405.871 357.039 403.794 357.995 403.794 357.995C402.989 355.492 402.371 352.936 401.944 350.347C402.082 350.079 402.22 349.811 402.348 349.524C402.8 348.521 402.348 348.1 401.63 347.957C401.417 346.128 401.4 344.282 401.58 342.45C404.719 341.819 408.527 340.634 407.101 338.808C406.235 337.708 404.66 337.584 403.027 337.852C403.246 337.486 403.503 337.144 403.794 336.829C409.501 330.72 413.477 336.829 413.477 336.829C416.793 334.142 421.447 334.869 422.451 339.056C420.631 338.617 417.068 337.928 416.852 339.381Z" fill="white"/>
<path d="M409.738 384.246L410.564 384.179C410.564 383.768 407.189 342.889 416.626 339.036C417.076 338.832 417.569 338.732 418.066 338.743C418.562 338.755 419.05 338.878 419.489 339.103C422.904 340.834 424.537 347.984 424.547 348.061L425.354 347.889C425.285 347.583 423.622 340.298 419.873 338.396C419.327 338.114 418.721 337.958 418.103 337.942C417.485 337.925 416.872 338.048 416.311 338.3C406.323 342.373 409.59 382.534 409.738 384.246Z" fill="#407BFF"/>
<path d="M408.547 383.357C408.714 381.521 412.572 338.272 405.359 333.645C403.637 332.545 402.092 332.306 400.783 332.947C397.379 334.62 396.936 341.694 396.916 341.991L397.743 342.039C397.743 341.972 398.176 335.127 401.157 333.664C402.141 333.167 403.45 333.377 404.916 334.314C411.706 338.645 407.77 382.802 407.73 383.252L408.547 383.357Z" fill="#407BFF"/>
<path d="M407.465 386.855C407.524 385.45 408.704 352.343 402.141 349.447C401.526 349.165 400.854 349.019 400.173 349.019C399.493 349.019 398.821 349.165 398.205 349.447C393.698 351.359 390.914 359.532 390.805 359.877L391.583 360.125C391.583 360.039 394.368 351.961 398.53 350.183C399.036 349.952 399.589 349.832 400.149 349.832C400.708 349.832 401.261 349.952 401.767 350.183C406.795 352.401 406.963 377.391 406.599 386.836L407.465 386.855Z" fill="#407BFF"/>
<path d="M409.137 385.345L409.954 385.249C408.803 375.393 406.589 349.141 410.2 346.005C410.375 345.8 410.608 345.65 410.871 345.571C411.133 345.493 411.413 345.491 411.676 345.566C414.097 346.464 415.612 355.011 415.937 358.223L416.754 358.137C416.616 356.904 415.297 346.053 411.971 344.82C411.567 344.688 411.132 344.673 410.719 344.779C410.306 344.884 409.934 345.104 409.649 345.413C404.985 349.457 408.96 383.873 409.137 385.345Z" fill="#407BFF"/>
<path d="M422.894 366.665H393.265L395.745 398.911H420.424L422.894 366.665Z" fill="#407BFF"/>
<path opacity="0.2" d="M413.9 366.665L413.073 398.911H395.745L393.265 366.665H413.9Z" fill="white"/>
<path d="M418.859 354.831C419.174 355.615 421.477 354.993 423.278 354.372C423.838 356.043 423.821 357.845 423.228 359.506C421.162 359.506 418.308 359.563 418.023 360.07C417.738 360.576 420.857 360.815 422.776 360.892C422.25 362.313 421.622 363.696 420.896 365.031C419.833 364.773 418.682 364.658 418.367 365.232C418.052 365.806 418.741 366.733 419.499 367.479C418.348 369.391 417.403 370.643 417.403 370.643C416.023 369.372 414.74 368.005 413.565 366.551C413.565 366.341 413.565 366.131 413.565 365.911C413.487 365.146 413.064 365.022 412.581 365.184C411.81 364.124 411.15 362.99 410.613 361.8C412.326 360.366 414.254 358.368 412.729 357.718C412.228 357.581 411.697 357.58 411.195 357.717C410.693 357.853 410.24 358.122 409.885 358.492C409.891 358.193 409.927 357.895 409.994 357.603C411.361 351.934 415.966 354.372 415.966 354.372C417.068 351.619 420.188 350.548 422.294 352.766C420.926 353.1 418.485 353.865 418.859 354.831Z" fill="#407BFF"/>
<path opacity="0.3" d="M418.859 354.831C419.174 355.615 421.477 354.993 423.278 354.372C423.838 356.043 423.821 357.845 423.228 359.506C421.162 359.506 418.308 359.563 418.023 360.07C417.738 360.576 420.857 360.815 422.776 360.892C422.25 362.313 421.622 363.696 420.896 365.031C419.833 364.773 418.682 364.658 418.367 365.232C418.052 365.806 418.741 366.733 419.499 367.479C418.348 369.391 417.403 370.643 417.403 370.643C416.023 369.372 414.74 368.005 413.565 366.551C413.565 366.341 413.565 366.131 413.565 365.911C413.487 365.146 413.064 365.022 412.581 365.184C411.81 364.124 411.15 362.99 410.613 361.8C412.326 360.366 414.254 358.368 412.729 357.718C412.228 357.581 411.697 357.58 411.195 357.717C410.693 357.853 410.24 358.122 409.885 358.492C409.891 358.193 409.927 357.895 409.994 357.603C411.361 351.934 415.966 354.372 415.966 354.372C417.068 351.619 420.188 350.548 422.294 352.766C420.926 353.1 418.485 353.865 418.859 354.831Z" fill="white"/>
<path d="M396.857 358.654C397.782 358.731 398.694 358.918 399.573 359.208C399.809 358.596 399.942 357.95 399.967 357.296C400.154 351.493 395.883 353.941 393.62 352.229C393.105 351.793 392.502 351.466 391.85 351.268C391.198 351.071 390.51 351.007 389.831 351.082C390.029 351.386 390.2 351.706 390.343 352.038C390.388 352.166 390.405 352.301 390.392 352.435C390.379 352.569 390.338 352.698 390.27 352.816C390.202 352.933 390.11 353.035 389.998 353.115C389.887 353.195 389.76 353.252 389.625 353.281C389.056 353.388 388.467 353.317 387.942 353.08C387.79 352.997 387.645 352.901 387.509 352.793C387.154 353.394 386.879 354.037 386.692 354.705C386.471 355.518 386.342 356.351 386.309 357.191C386.642 357.265 386.97 357.357 387.293 357.468C387.423 357.522 387.539 357.603 387.632 357.707C387.725 357.811 387.792 357.934 387.828 358.067C387.864 358.2 387.868 358.34 387.84 358.474C387.812 358.609 387.753 358.736 387.667 358.845C387.312 359.194 386.895 359.479 386.437 359.686C386.59 360.617 386.841 361.53 387.184 362.411H387.489C387.716 362.459 387.922 362.506 388.139 362.573C388.262 362.6 388.381 362.642 388.493 362.698C388.638 362.761 388.764 362.858 388.862 362.98C388.959 363.101 389.025 363.244 389.054 363.395C389.078 363.554 389.058 363.715 388.996 363.863C388.934 364.012 388.831 364.14 388.7 364.237C388.56 364.337 388.411 364.427 388.257 364.504C388.826 365.466 389.643 366.267 390.628 366.828C391.491 366.442 392.332 366.011 393.147 365.537C392.96 365.298 392.783 365.068 392.616 364.829C392.419 364.55 392.332 364.211 392.37 363.873C392.39 363.714 392.444 363.559 392.526 363.42C392.609 363.28 392.72 363.158 392.852 363.061C393.118 362.861 393.454 362.772 393.787 362.812C394.121 362.857 394.424 363.025 394.633 363.281C394.83 363.568 395.047 363.835 395.263 364.112C396.404 363.292 397.426 362.328 398.304 361.244H398.205C397.654 361.104 397.091 361.011 396.523 360.967C396.191 360.922 395.892 360.753 395.688 360.495C395.483 360.238 395.391 359.913 395.43 359.591C395.507 359.291 395.696 359.03 395.959 358.857C396.222 358.684 396.542 358.612 396.857 358.654V358.654Z" fill="#407BFF"/>
<path opacity="0.5" d="M396.857 358.654C397.782 358.731 398.694 358.918 399.573 359.208C399.809 358.596 399.942 357.95 399.967 357.296C400.154 351.493 395.883 353.941 393.62 352.229C393.105 351.793 392.502 351.466 391.85 351.268C391.198 351.071 390.51 351.007 389.831 351.082C390.029 351.386 390.2 351.706 390.343 352.038C390.388 352.166 390.405 352.301 390.392 352.435C390.379 352.569 390.338 352.698 390.27 352.816C390.202 352.933 390.11 353.035 389.998 353.115C389.887 353.195 389.76 353.252 389.625 353.281C389.056 353.388 388.467 353.317 387.942 353.08C387.79 352.997 387.645 352.901 387.509 352.793C387.154 353.394 386.879 354.037 386.692 354.705C386.471 355.518 386.342 356.351 386.309 357.191C386.642 357.265 386.97 357.357 387.293 357.468C387.423 357.522 387.539 357.603 387.632 357.707C387.725 357.811 387.792 357.934 387.828 358.067C387.864 358.2 387.868 358.34 387.84 358.474C387.812 358.609 387.753 358.736 387.667 358.845C387.312 359.194 386.895 359.479 386.437 359.686C386.59 360.617 386.841 361.53 387.184 362.411H387.489C387.716 362.459 387.922 362.506 388.139 362.573C388.262 362.6 388.381 362.642 388.493 362.698C388.638 362.761 388.764 362.858 388.862 362.98C388.959 363.101 389.025 363.244 389.054 363.395C389.078 363.554 389.058 363.715 388.996 363.863C388.934 364.012 388.831 364.14 388.7 364.237C388.56 364.337 388.411 364.427 388.257 364.504C388.826 365.466 389.643 366.267 390.628 366.828C391.491 366.442 392.332 366.011 393.147 365.537C392.96 365.298 392.783 365.068 392.616 364.829C392.419 364.55 392.332 364.211 392.37 363.873C392.39 363.714 392.444 363.559 392.526 363.42C392.609 363.28 392.72 363.158 392.852 363.061C393.118 362.861 393.454 362.772 393.787 362.812C394.121 362.857 394.424 363.025 394.633 363.281C394.83 363.568 395.047 363.835 395.263 364.112C396.404 363.292 397.426 362.328 398.304 361.244H398.205C397.654 361.104 397.091 361.011 396.523 360.967C396.191 360.922 395.892 360.753 395.688 360.495C395.483 360.238 395.391 359.913 395.43 359.591C395.507 359.291 395.696 359.03 395.959 358.857C396.222 358.684 396.542 358.612 396.857 358.654V358.654Z" fill="white"/>
<path d="M395.155 338.635C394.634 338.285 394.073 337.996 393.482 337.775C393.625 337.352 393.845 336.957 394.131 336.608C396.65 333.473 397.792 336.608 399.75 336.608C400.217 336.596 400.682 336.678 401.114 336.851C401.547 337.024 401.937 337.283 402.259 337.612C402.012 337.696 401.772 337.799 401.541 337.918C401.455 337.961 401.38 338.023 401.323 338.098C401.265 338.174 401.227 338.261 401.21 338.354C401.192 338.446 401.197 338.541 401.224 338.631C401.251 338.722 401.299 338.805 401.364 338.874C401.616 339.175 401.961 339.389 402.348 339.486C402.469 339.496 402.591 339.496 402.712 339.486C402.622 339.959 402.47 340.418 402.259 340.853C402.014 341.377 401.707 341.871 401.344 342.325C401.133 342.218 400.916 342.123 400.695 342.039C400.602 342.012 400.505 342.007 400.41 342.023C400.315 342.038 400.225 342.075 400.146 342.129C400.068 342.183 400.003 342.254 399.956 342.336C399.91 342.418 399.883 342.509 399.878 342.603C399.909 342.934 399.999 343.257 400.144 343.559C399.642 343.98 399.098 344.352 398.52 344.668L398.333 344.553L397.93 344.362C397.85 344.327 397.768 344.298 397.684 344.276C397.579 344.246 397.468 344.243 397.361 344.266C397.254 344.29 397.155 344.339 397.074 344.409C396.99 344.483 396.928 344.576 396.893 344.68C396.859 344.784 396.853 344.895 396.877 345.002C396.906 345.114 396.946 345.223 396.995 345.327C396.262 345.588 395.472 345.661 394.702 345.538C394.422 344.969 394.175 344.385 393.964 343.788L394.555 343.635C394.775 343.583 394.968 343.454 395.096 343.272C395.158 343.178 395.201 343.073 395.221 342.963C395.241 342.853 395.239 342.74 395.214 342.631C395.162 342.414 395.025 342.226 394.832 342.106C394.639 341.986 394.405 341.945 394.181 341.991C393.944 342.058 393.708 342.105 393.472 342.153C393.236 341.241 393.134 340.302 393.167 339.362H393.226C393.57 339.526 393.899 339.718 394.21 339.935C394.405 340.054 394.64 340.094 394.865 340.045C395.089 339.997 395.286 339.865 395.411 339.677C395.494 339.501 395.514 339.302 395.467 339.113C395.421 338.925 395.311 338.756 395.155 338.635V338.635Z" fill="#407BFF"/>
<path opacity="0.3" d="M395.155 338.635C394.634 338.285 394.073 337.996 393.482 337.775C393.625 337.352 393.845 336.957 394.131 336.608C396.65 333.473 397.792 336.608 399.75 336.608C400.217 336.596 400.682 336.678 401.114 336.851C401.547 337.024 401.937 337.283 402.259 337.612C402.012 337.696 401.772 337.799 401.541 337.918C401.455 337.961 401.38 338.023 401.323 338.098C401.265 338.174 401.227 338.261 401.21 338.354C401.192 338.446 401.197 338.541 401.224 338.631C401.251 338.722 401.299 338.805 401.364 338.874C401.616 339.175 401.961 339.389 402.348 339.486C402.469 339.496 402.591 339.496 402.712 339.486C402.622 339.959 402.47 340.418 402.259 340.853C402.014 341.377 401.707 341.871 401.344 342.325C401.133 342.218 400.916 342.123 400.695 342.039C400.602 342.012 400.505 342.007 400.41 342.023C400.315 342.038 400.225 342.075 400.146 342.129C400.068 342.183 400.003 342.254 399.956 342.336C399.91 342.418 399.883 342.509 399.878 342.603C399.909 342.934 399.999 343.257 400.144 343.559C399.642 343.98 399.098 344.352 398.52 344.668L398.333 344.553L397.93 344.362C397.85 344.327 397.768 344.298 397.684 344.276C397.579 344.246 397.468 344.243 397.361 344.266C397.254 344.29 397.155 344.339 397.074 344.409C396.99 344.483 396.928 344.576 396.893 344.68C396.859 344.784 396.853 344.895 396.877 345.002C396.906 345.114 396.946 345.223 396.995 345.327C396.262 345.588 395.472 345.661 394.702 345.538C394.422 344.969 394.175 344.385 393.964 343.788L394.555 343.635C394.775 343.583 394.968 343.454 395.096 343.272C395.158 343.178 395.201 343.073 395.221 342.963C395.241 342.853 395.239 342.74 395.214 342.631C395.162 342.414 395.025 342.226 394.832 342.106C394.639 341.986 394.405 341.945 394.181 341.991C393.944 342.058 393.708 342.105 393.472 342.153C393.236 341.241 393.134 340.302 393.167 339.362H393.226C393.57 339.526 393.899 339.718 394.21 339.935C394.405 340.054 394.64 340.094 394.865 340.045C395.089 339.997 395.286 339.865 395.411 339.677C395.494 339.501 395.514 339.302 395.467 339.113C395.421 338.925 395.311 338.756 395.155 338.635V338.635Z" fill="white"/>
<path d="M419.292 344.448C419.469 345.623 416.183 346.407 413.497 346.838C413.713 348.979 415.179 351.14 417.206 353.157C419.745 351.761 423.386 349.925 424.094 350.375C424.803 350.824 421.142 353.243 418.771 354.572C420.422 355.995 422.171 357.308 424.006 358.501C425.147 357.468 426.485 356.589 427.273 357.048C428.06 357.507 427.883 359.16 427.469 360.594C430.244 362.162 432.311 363.109 432.311 363.109C433.115 360.606 433.734 358.05 434.161 355.461C434.023 355.193 433.885 354.916 433.757 354.629C433.314 353.625 433.757 353.205 434.485 353.061C434.682 351.234 434.682 349.391 434.485 347.564C431.356 346.924 427.597 345.738 428.975 343.912C429.831 342.813 431.405 342.689 433.049 342.956C432.829 342.588 432.569 342.245 432.271 341.933C426.574 335.824 422.589 341.933 422.589 341.933C419.282 339.247 414.628 340.021 413.615 344.17C415.524 343.683 419.076 342.994 419.292 344.448Z" fill="#407BFF"/>
<path opacity="0.5" d="M419.292 344.448C419.469 345.623 416.183 346.407 413.497 346.838C413.713 348.979 415.179 351.14 417.206 353.157C419.745 351.761 423.386 349.925 424.094 350.375C424.803 350.824 421.142 353.243 418.771 354.572C420.422 355.995 422.171 357.308 424.006 358.501C425.147 357.468 426.485 356.589 427.273 357.048C428.06 357.507 427.883 359.16 427.469 360.594C430.244 362.162 432.311 363.109 432.311 363.109C433.115 360.606 433.734 358.05 434.161 355.461C434.023 355.193 433.885 354.916 433.757 354.629C433.314 353.625 433.757 353.205 434.485 353.061C434.682 351.234 434.682 349.391 434.485 347.564C431.356 346.924 427.597 345.738 428.975 343.912C429.831 342.813 431.405 342.689 433.049 342.956C432.829 342.588 432.569 342.245 432.271 341.933C426.574 335.824 422.589 341.933 422.589 341.933C419.282 339.247 414.628 340.021 413.615 344.17C415.524 343.683 419.076 342.994 419.292 344.448Z" fill="white"/>
<path d="M85.1159 374.044H84.3386C84.3386 372.935 85.3226 346.817 89.9671 342.391C94.6115 337.965 100.437 342.334 100.496 342.391L100.004 342.965C99.7874 342.802 94.8182 338.873 90.5083 342.965C86.0507 347.114 85.1159 373.796 85.1159 374.044Z" fill="#407BFF"/>
<path d="M84.7322 379.292L83.9647 379.216C83.9647 378.9 86.9855 347.496 75.2759 334.437L75.8565 333.949C87.7826 347.247 84.7617 378.967 84.7322 379.292Z" fill="#407BFF"/>
<path d="M85.0963 375.938C84.9979 374.456 82.7445 339.543 91.7481 331.503L92.2696 332.048C83.5317 339.859 85.8441 375.527 85.8638 375.881L85.0963 375.938Z" fill="#407BFF"/>
<path d="M83.9647 375.909C83.9647 375.679 83.6793 352.219 77.2833 348.653C76.7366 348.308 76.1133 348.095 75.4649 348.03C74.8165 347.965 74.1615 348.051 73.5539 348.28C69.7951 349.791 67.7975 356.75 67.7779 356.817L67.0399 356.626C67.1284 356.32 69.1555 349.236 73.2587 347.592C73.975 347.316 74.7486 347.211 75.5153 347.284C76.282 347.357 77.0197 347.607 77.6671 348.013C84.437 351.779 84.7223 374.924 84.7322 375.909H83.9647Z" fill="#407BFF"/>
<path d="M86.592 375.928C86.592 375.173 85.608 357.391 90.7445 350.814C92.1221 349.064 93.6965 348.223 95.3201 348.347C99.0101 348.596 101.864 353.453 101.992 353.663L101.313 354.026C101.313 353.978 98.5377 349.313 95.261 349.093C93.8834 348.988 92.5648 349.734 91.325 351.263C86.3164 357.63 87.3201 375.708 87.33 375.89L86.592 375.928Z" fill="#407BFF"/>
<path d="M85.6079 378.395L84.8404 378.338C84.8404 377.908 88.1073 335.538 82.7346 328.473L83.3546 328.033C88.8453 335.318 85.6965 376.665 85.6079 378.395Z" fill="#407BFF"/>
<path d="M71.7631 351.808C71.7631 351.808 75.089 353.003 74.105 355.804C73.121 358.605 62.602 363.28 62.602 363.28C62.602 363.28 58.2036 359.361 62.2478 352.994C66.292 346.627 71.6745 349.801 71.7631 351.808Z" fill="#407BFF"/>
<path opacity="0.2" d="M71.7631 351.808C71.7631 351.808 75.089 353.003 74.105 355.804C73.121 358.605 62.602 363.28 62.602 363.28C62.602 363.28 58.2036 359.361 62.2478 352.994C66.292 346.627 71.6745 349.801 71.7631 351.808Z" fill="white"/>
<path d="M86.2081 346.464C86.2081 346.464 82.6756 346.321 82.4689 349.275C82.2623 352.229 90.1343 360.412 90.1343 360.412C90.1343 360.412 95.7529 358.443 94.5426 351.043C93.3323 343.644 87.0937 344.638 86.2081 346.464Z" fill="#407BFF"/>
<path opacity="0.2" d="M86.2081 346.464C86.2081 346.464 82.6756 346.321 82.4689 349.275C82.2623 352.229 90.1343 360.412 90.1343 360.412C90.1343 360.412 95.7529 358.443 94.5426 351.043C93.3323 343.644 87.0937 344.638 86.2081 346.464Z" fill="white"/>
<path d="M89.2094 332.278C89.2094 332.278 86.8478 332.029 87.0347 330.634C87.2217 329.238 96.2056 325.643 101.509 331.456C101.509 331.456 98.1146 337.115 93.2142 337.192C88.3139 337.268 89.2094 332.278 89.2094 332.278Z" fill="#407BFF"/>
<path opacity="0.2" d="M89.2094 332.278C89.2094 332.278 86.8478 332.029 87.0347 330.634C87.2217 329.238 96.2056 325.643 101.509 331.456C101.509 331.456 98.1146 337.115 93.2142 337.192C88.3139 337.268 89.2094 332.278 89.2094 332.278Z" fill="white"/>
<path d="M84.8109 328.863C84.8109 328.863 86.9462 329.867 87.5464 328.586C88.1467 327.304 82.4788 319.637 74.8233 321.846C74.8233 321.846 74.6167 328.394 78.7593 330.985C82.9019 333.576 84.8109 328.863 84.8109 328.863Z" fill="#407BFF"/>
<path opacity="0.2" d="M84.8109 328.863C84.8109 328.863 86.9462 329.867 87.5464 328.586C88.1467 327.304 82.4788 319.637 74.8233 321.846C74.8233 321.846 74.6167 328.394 78.7593 330.985C82.9019 333.576 84.8109 328.863 84.8109 328.863Z" fill="white"/>
<path d="M95.9793 350.68C95.9793 350.68 94.3557 349.399 96.1072 348.768C97.8587 348.137 106.488 348.319 106.577 356.617C106.577 356.617 96.5402 358.242 95.2905 355.078C94.0408 351.913 95.9793 350.68 95.9793 350.68Z" fill="#407BFF"/>
<path opacity="0.2" d="M95.9793 350.68C95.9793 350.68 94.3557 349.399 96.1072 348.768C97.8587 348.137 106.488 348.319 106.577 356.617C106.577 356.617 96.5402 358.242 95.2905 355.078C94.0408 351.913 95.9793 350.68 95.9793 350.68Z" fill="white"/>
<path d="M75.5023 332.067C75.5023 332.067 77.1357 330.796 75.3744 330.155C73.613 329.514 64.9932 329.725 64.944 338.023C64.944 338.023 74.9906 339.639 76.2304 336.484C77.4703 333.329 75.5023 332.067 75.5023 332.067Z" fill="#407BFF"/>
<path opacity="0.2" d="M75.5023 332.067C75.5023 332.067 77.1357 330.796 75.3744 330.155C73.613 329.514 64.9932 329.725 64.944 338.023C64.944 338.023 74.9906 339.639 76.2304 336.484C77.4703 333.329 75.5023 332.067 75.5023 332.067Z" fill="white"/>
<path d="M80.8158 338.749C80.8158 338.749 80.9536 337.201 79.6646 337.793C78.3755 338.386 73.8786 343.109 78.5428 347.583C78.5428 347.583 84.8109 343.07 83.6793 340.719C82.5477 338.367 80.8158 338.749 80.8158 338.749Z" fill="#407BFF"/>
<path opacity="0.2" d="M80.8158 338.749C80.8158 338.749 80.9536 337.201 79.6646 337.793C78.3755 338.386 73.8786 343.109 78.5428 347.583C78.5428 347.583 84.8109 343.07 83.6793 340.719C82.5477 338.367 80.8158 338.749 80.8158 338.749Z" fill="white"/>
<path d="M97.4159 340.966C97.4159 340.966 96.4319 339.724 97.8686 339.571C99.3052 339.418 105.682 341.071 104.196 347.266C104.196 347.266 96.4122 346.702 96.0777 344.131C95.7431 341.559 97.4159 340.966 97.4159 340.966Z" fill="#407BFF"/>
<path opacity="0.2" d="M97.4159 340.966C97.4159 340.966 96.4319 339.724 97.8686 339.571C99.3052 339.418 105.682 341.071 104.196 347.266C104.196 347.266 96.4122 346.702 96.0777 344.131C95.7431 341.559 97.4159 340.966 97.4159 340.966Z" fill="white"/>
<path d="M71.1431 398.91H97.8489L100.722 370.507H68.26L71.1431 398.91Z" fill="#407BFF"/>
<path opacity="0.5" d="M71.1431 398.91H97.8489L100.722 370.507H68.26L71.1431 398.91Z" fill="white"/>
<path d="M66.8332 373.644H102.149V367.373H66.8332V373.644Z" fill="#407BFF"/>
<path opacity="0.2" d="M66.8332 373.644H102.149V367.373H66.8332V373.644Z" fill="white"/>
<path d="M317.488 398.318H312.154V258.436H305.434V398.318H300.1C299.71 398.325 299.339 398.481 299.065 398.75C298.791 399.02 298.637 399.383 298.634 399.762V401.836H319.013V399.762C319.012 399.569 318.971 399.379 318.893 399.202C318.816 399.025 318.703 398.864 318.561 398.73C318.419 398.596 318.251 398.49 318.067 398.419C317.883 398.349 317.686 398.314 317.488 398.318V398.318Z" fill="#263238"/>
<path d="M191.457 398.318H186.124V258.436H179.403V398.318H174.07C173.675 398.318 173.296 398.47 173.015 398.74C172.735 399.011 172.577 399.378 172.574 399.762V401.836H192.953V399.762C192.95 399.378 192.791 399.011 192.511 398.74C192.231 398.47 191.852 398.318 191.457 398.318V398.318Z" fill="#263238"/>
<g opacity="0.3">
<path d="M317.488 398.318H312.154V258.436H305.434V398.318H300.1C299.711 398.325 299.339 398.481 299.065 398.75C298.791 399.02 298.637 399.383 298.634 399.762V401.836H319.013V399.762C319.012 399.569 318.971 399.379 318.893 399.202C318.816 399.025 318.703 398.864 318.561 398.73C318.419 398.596 318.251 398.49 318.067 398.419C317.883 398.349 317.686 398.314 317.488 398.318V398.318Z" fill="white"/>
<path d="M191.457 398.318H186.124V258.436H179.403V398.318H174.07C173.675 398.318 173.296 398.47 173.015 398.74C172.735 399.011 172.577 399.378 172.574 399.762V401.836H192.953V399.762C192.95 399.378 192.791 399.011 192.511 398.74C192.231 398.47 191.852 398.318 191.457 398.318V398.318Z" fill="white"/>
</g>
<path d="M341.005 130.972H150.552V267.432H341.005V130.972Z" fill="#263238"/>
<path opacity="0.4" d="M341.005 130.972H150.552V267.432H341.005V130.972Z" fill="white"/>
<path d="M336.075 262.66V135.76H155.462V262.66H336.075Z" fill="#407BFF"/>
<path opacity="0.2" d="M336.075 262.66V135.76H155.462V262.66H336.075Z" fill="black"/>
<path opacity="0.1" d="M321.788 199.863C320.262 198.008 318.993 195.943 317.301 194.127C316.978 193.786 316.742 193.377 316.612 192.932C315.269 192.76 313.905 192.962 312.676 193.515C307.913 195.589 303.574 199.098 299.805 202.559C298.998 203.295 298.172 203.993 297.345 204.7C301.065 200.666 304.784 196.622 308.553 192.626C309.108 192.065 309.543 191.403 309.832 190.677C310.12 189.952 310.258 189.178 310.236 188.4C308.497 186.474 306.577 184.71 304.499 183.133C304.112 182.877 303.778 182.552 303.515 182.177C302.038 182.3 300.672 182.988 299.717 184.089C291.658 192.597 283.677 200.962 274.772 208.591C275.49 207.635 276.209 206.679 276.898 205.656C281.572 198.916 286.58 192.444 291.805 186.096C295.485 181.622 301.842 176.125 303.013 170.198C302.777 169.911 302.531 169.615 302.275 169.328C302.019 169.041 301.616 168.592 301.291 168.238C300.963 168.177 300.649 168.057 300.366 167.884C298.801 166.928 297.808 164.863 299.057 163.2C299.326 162.828 299.659 162.505 300.041 162.244C301.94 159.921 303.8 157.579 305.571 155.16C305.664 155.034 305.749 154.903 305.827 154.768C304.558 151.221 301.527 148.65 298.575 146.231C297.503 146.479 296.535 147.039 295.8 147.837C292.248 151.575 288.174 154.873 284.888 158.841C281.355 163.095 278.442 167.798 275.097 172.177C275.036 172.243 274.98 172.313 274.93 172.387C270.876 176.766 266.812 181.135 262.876 185.609C259.451 188.974 255.988 192.301 252.603 195.57C247.26 200.828 241.838 206.086 236.209 211.143C237.606 209.136 239.004 207.138 240.44 205.149C246.777 196.383 253.813 188.113 260.593 179.672C263.938 175.513 266.999 171.164 270.236 166.938C272.794 163.611 276.622 160.571 278.629 156.91C279.044 156.178 279.311 155.377 279.417 154.548C279.188 154.359 278.98 154.148 278.797 153.917C277.118 151.986 275.026 150.433 272.666 149.367C272.141 149.118 271.708 148.717 271.427 148.22C270.48 148.491 269.604 148.957 268.858 149.587C265.679 152.25 262.678 155.108 259.874 158.143C260.792 156.663 261.522 155.08 262.049 153.43C263.643 148.143 257.572 144.252 252.908 146.604L252.504 146.814C251.96 145.299 250.874 144.025 249.443 143.223C248.013 142.421 246.333 142.145 244.711 142.445C242.91 140.113 239.791 138.889 236.928 140.983C225.257 149.644 214.138 159.233 203.127 168.707C202.143 169.567 201.159 170.437 200.175 171.307C202.08 168.394 204.136 165.576 206.335 162.865C208.864 159.749 212.387 156.498 213.735 152.627C213.596 152.545 213.468 152.449 213.351 152.34C210.459 149.786 208.022 146.785 206.138 143.459C206.142 143.43 206.142 143.401 206.138 143.373C201.218 144.443 196.082 147.531 191.929 149.854C186.574 152.941 181.516 156.489 176.815 160.456C176.821 160.956 176.731 161.452 176.549 161.919C176.438 162.189 176.306 162.451 176.156 162.703V163.554C176.561 164.331 176.891 165.144 177.14 165.982C177.904 166.33 178.552 166.88 179.009 167.569C179.448 168.34 179.662 169.212 179.629 170.093C179.629 170.332 179.57 170.571 179.531 170.81C180 171.157 180.344 171.639 180.515 172.186C181.645 171.983 182.696 171.484 183.555 170.743C184.854 169.643 186.173 168.582 187.491 167.54C185.789 170.303 184.165 173.114 182.512 175.8C179.619 180.532 176.608 185.121 173.273 189.595C170.744 192.999 167.369 195.962 166.945 199.729C169.297 201.641 170.931 204.098 172.968 206.344C173.071 206.465 173.167 206.593 173.253 206.727C175.381 206.554 177.422 205.824 179.157 204.614C178.616 205.235 178.084 205.866 177.592 206.526C173.135 212.453 166.837 217.243 162.832 223.418C162.352 224.116 162.018 224.899 161.848 225.722L163.246 227.443C163.642 227.876 163.914 228.402 164.034 228.97C164.153 229.538 164.115 230.126 163.925 230.675L164.023 230.761C163.856 230.952 163.688 231.133 163.531 231.334C162.861 232.158 162.384 233.114 162.134 234.135C163.997 236.976 166.323 239.505 169.022 241.621C172.682 241.363 175.91 239.049 179.147 237.242C181.351 236.009 183.546 234.747 185.72 233.418C184.615 234.766 183.689 236.243 182.965 237.816C182.699 238.426 182.523 239.07 182.443 239.728C182.625 239.827 182.8 239.939 182.965 240.062C185.675 241.978 188.189 244.142 190.473 246.525C190.81 246.403 191.139 246.259 191.457 246.095C193.591 244.964 195.652 243.706 197.627 242.328C197.31 243.214 197.147 244.144 197.144 245.081C197.635 245.014 198.134 245.051 198.608 245.189C199.082 245.328 199.519 245.565 199.89 245.884C201.661 247.366 203.088 249.259 204.81 250.76C205.375 250.627 205.911 250.397 206.394 250.081C211.029 247.032 214.955 243.016 219.383 239.69C220.495 238.848 221.616 238.026 222.738 237.204C222.443 238.059 222.336 238.964 222.423 239.862C222.866 239.977 223.279 240.182 223.634 240.464C225.759 242.127 227.835 243.839 229.941 245.531C230.478 245.339 230.985 245.076 231.447 244.747C233.534 243.298 235.507 241.7 237.351 239.967C237.404 240.325 237.483 240.68 237.587 241.028C237.995 240.845 238.446 240.768 238.895 240.805C239.343 240.841 239.774 240.991 240.145 241.238C241.864 242.434 243.507 243.731 245.065 245.12C247.515 244.489 249.218 242.749 251.196 241.296L252.18 240.55C252.307 240.789 252.452 241.019 252.612 241.238C253.234 241.153 253.865 241.296 254.384 241.64C255.228 242.247 256.031 242.908 256.785 243.619L257.109 243.915C257.947 244.071 258.81 244.048 259.638 243.848C264.184 242.663 268.248 239.623 272.145 236.955C271.377 237.816 270.61 238.686 269.862 239.575C267.018 242.969 262.846 246.659 261.4 250.951C261.592 251.131 261.761 251.333 261.901 251.554C262.443 252.424 263.053 253.293 263.702 254.144C265.849 255.366 267.779 256.916 269.419 258.733C269.735 258.654 270.044 258.552 270.344 258.427C274.92 256.515 278.334 252.94 281.759 249.546C284.209 247.137 286.56 244.642 288.853 242.099C288.988 242.434 289.159 242.755 289.365 243.055C289.924 242.882 290.52 242.852 291.094 242.97C291.668 243.087 292.202 243.347 292.642 243.724C293.626 244.517 294.698 245.244 295.751 245.98C296.688 245.924 297.602 245.669 298.427 245.235C299.253 244.801 299.972 244.197 300.533 243.466C305.64 237.013 319.967 219.413 315.195 209.47C317.581 207.231 319.575 204.628 321.099 201.765C321.419 201.166 321.651 200.525 321.788 199.863Z" fill="white"/>
<path opacity="0.1" d="M168.185 199.278C169.711 201.133 170.98 203.198 172.672 205.014C172.994 205.357 173.233 205.765 173.371 206.209C174.713 206.382 176.079 206.18 177.307 205.626C182.07 203.552 186.409 200.043 190.188 196.583C190.985 195.846 191.811 195.139 192.648 194.441C188.918 198.475 185.209 202.519 181.44 206.515C180.883 207.075 180.447 207.738 180.157 208.463C179.866 209.188 179.727 209.963 179.747 210.741C181.488 212.665 183.408 214.429 185.484 216.008C185.871 216.264 186.205 216.589 186.468 216.964C187.945 216.841 189.311 216.153 190.266 215.052C198.325 206.544 206.306 198.179 215.211 190.55C214.502 191.506 213.774 192.462 213.085 193.485C208.411 200.177 203.403 206.697 198.188 213.045C194.498 217.519 188.141 223.016 186.97 228.943C187.216 229.23 187.452 229.526 187.708 229.813C187.964 230.1 188.377 230.549 188.692 230.903C189.02 230.964 189.334 231.084 189.617 231.257C191.181 232.213 192.175 234.278 190.926 235.941C190.66 236.315 190.327 236.639 189.942 236.897C188.042 239.22 186.193 241.562 184.412 243.981C184.319 244.107 184.234 244.238 184.156 244.373C185.435 247.92 188.456 250.482 191.408 252.91C192.48 252.664 193.449 252.103 194.183 251.304C197.745 247.566 201.809 244.268 205.095 240.3C208.628 236.046 211.54 231.343 214.886 226.916L215.063 226.706C219.107 222.328 223.171 217.959 227.107 213.485C230.541 210.119 233.995 206.793 237.38 203.523C242.723 198.265 248.145 193.007 253.774 187.95C252.376 189.957 250.979 191.955 249.542 193.944C243.206 202.71 236.17 210.98 229.39 219.421C226.045 223.58 222.984 227.93 219.747 232.155C217.189 235.482 213.361 238.522 211.353 242.184C210.939 242.915 210.672 243.716 210.566 244.545C210.797 244.732 211.005 244.943 211.186 245.176C212.866 247.11 214.962 248.663 217.326 249.727C217.849 249.976 218.279 250.377 218.556 250.874C219.505 250.605 220.381 250.139 221.125 249.507C224.306 246.826 227.31 243.952 230.118 240.903C229.197 242.383 228.464 243.965 227.934 245.616C226.34 250.902 232.411 254.793 237.075 252.442L237.479 252.231C238.023 253.746 239.109 255.021 240.54 255.823C241.97 256.625 243.65 256.901 245.272 256.6C247.073 258.933 250.192 260.157 253.055 258.063C264.726 249.402 275.845 239.813 286.866 230.339L289.818 227.739C287.912 230.652 285.856 233.469 283.658 236.18C281.129 239.297 277.606 242.547 276.268 246.419C276.403 246.505 276.531 246.601 276.652 246.706C279.495 249.259 281.892 252.246 283.746 255.549C283.746 255.549 283.746 255.606 283.746 255.635C288.666 254.564 293.803 251.476 297.965 249.153C303.315 246.064 308.37 242.516 313.07 238.551C313.063 238.052 313.154 237.555 313.335 237.088C313.45 236.82 313.582 236.558 313.729 236.304C313.729 236.027 313.729 235.74 313.729 235.453C313.319 234.678 312.99 233.864 312.745 233.025C311.98 232.678 311.332 232.128 310.875 231.438C310.437 230.667 310.222 229.795 310.255 228.914C310.255 228.675 310.314 228.436 310.354 228.197C309.902 227.844 309.575 227.363 309.419 226.821C308.286 227.024 307.232 227.523 306.368 228.264C305.07 229.364 303.751 230.425 302.432 231.467C304.125 228.704 305.758 225.893 307.402 223.207C310.295 218.427 313.306 213.886 316.651 209.412C319.17 206.009 322.555 203.045 322.969 199.278C320.617 197.366 318.983 194.91 316.946 192.663C316.843 192.542 316.747 192.414 316.661 192.281C314.533 192.453 312.492 193.183 310.757 194.393C311.298 193.772 311.83 193.141 312.322 192.481C316.779 186.554 323.077 181.765 327.082 175.589C327.562 174.891 327.896 174.108 328.066 173.285L326.668 171.564C326.274 171.13 326.004 170.603 325.885 170.036C325.766 169.469 325.802 168.882 325.989 168.333L325.891 168.247C326.058 168.055 326.226 167.874 326.383 167.673C327.053 166.848 327.532 165.893 327.79 164.872C325.923 162.033 323.597 159.506 320.902 157.387C317.242 157.645 314.014 159.958 310.777 161.765C308.573 163.001 306.382 164.276 304.204 165.589C305.311 164.246 306.237 162.772 306.959 161.201C307.225 160.591 307.401 159.947 307.48 159.289C307.3 159.192 307.129 159.08 306.969 158.954C304.253 157.042 301.736 154.877 299.451 152.492C299.114 152.614 298.785 152.758 298.467 152.922C296.333 154.053 294.272 155.311 292.297 156.689C292.619 155.804 292.782 154.873 292.779 153.935C292.289 154.002 291.79 153.964 291.316 153.826C290.843 153.687 290.405 153.45 290.034 153.132C288.263 151.651 286.836 149.758 285.114 148.257C284.549 148.39 284.012 148.62 283.53 148.935C278.895 151.985 274.969 156 270.541 159.327C269.429 160.169 268.307 160.991 267.186 161.813C267.485 160.959 267.593 160.053 267.5 159.155C267.058 159.04 266.645 158.835 266.29 158.553C264.165 156.889 262.089 155.178 259.993 153.486C259.451 153.675 258.941 153.939 258.477 154.27C256.39 155.719 254.417 157.317 252.573 159.05C252.525 158.691 252.446 158.336 252.337 157.989C251.928 158.172 251.478 158.249 251.029 158.212C250.581 158.175 250.15 158.026 249.779 157.778C248.057 156.585 246.414 155.289 244.859 153.897C242.399 154.528 240.696 156.268 238.718 157.721L237.734 158.467C237.607 158.228 237.462 157.998 237.302 157.778C236.68 157.863 236.049 157.72 235.53 157.377C234.688 156.767 233.886 156.106 233.129 155.398L232.805 155.102C231.967 154.946 231.104 154.969 230.276 155.169C225.74 156.354 221.676 159.394 217.779 162.061C218.537 161.201 219.304 160.331 220.052 159.442C222.896 156.048 227.068 152.358 228.514 148.066C228.325 147.883 228.157 147.681 228.013 147.463C227.471 146.593 226.861 145.723 226.222 144.872C224.07 143.653 222.136 142.103 220.495 140.284C220.182 140.363 219.876 140.465 219.58 140.59C215.004 142.502 211.58 146.077 208.155 149.471C205.715 151.88 203.354 154.375 201.071 156.918C200.933 156.582 200.758 156.261 200.549 155.962C199.99 156.135 199.394 156.165 198.82 156.047C198.246 155.93 197.712 155.67 197.272 155.293C196.288 154.499 195.226 153.773 194.163 153.037C193.226 153.093 192.312 153.347 191.487 153.782C190.661 154.216 189.942 154.82 189.381 155.551C184.274 162.004 169.947 179.604 174.719 189.546C172.342 191.772 170.349 194.354 168.815 197.194C168.505 197.857 168.293 198.558 168.185 199.278V199.278Z" fill="white"/>
<g opacity="0.4">
<path d="M326.058 245.988C326.01 246.002 325.959 246.002 325.911 245.988L318.885 241.141C317.665 241.686 308.592 245.376 302.049 238.971C299.225 236.217 299.097 231.973 301.753 228.149C303.58 225.496 306.307 223.549 309.459 222.648C312.611 221.747 315.988 221.948 319.003 223.216C323.037 224.86 325.428 227.04 326.107 229.774C327.091 233.741 324.071 237.279 323.943 237.422C323.923 237.45 323.898 237.474 323.869 237.492C323.84 237.51 323.807 237.522 323.773 237.526C323.738 237.531 323.703 237.529 323.67 237.519C323.637 237.51 323.606 237.494 323.579 237.473C323.553 237.451 323.531 237.424 323.516 237.394C323.501 237.363 323.493 237.33 323.492 237.297C323.491 237.263 323.497 237.229 323.51 237.198C323.524 237.167 323.544 237.139 323.569 237.116C323.569 237.116 326.521 233.598 325.625 229.879C324.986 227.317 322.673 225.223 318.806 223.646C315.895 222.428 312.636 222.238 309.596 223.112C306.557 223.985 303.928 225.865 302.167 228.426C300.199 231.294 299.215 235.51 302.393 238.646C309.143 245.233 318.698 240.711 318.796 240.663C318.835 240.642 318.879 240.631 318.924 240.631C318.969 240.631 319.013 240.642 319.052 240.663L325.202 244.888L322.781 240.969C322.761 240.942 322.747 240.911 322.74 240.878C322.733 240.845 322.733 240.812 322.74 240.779C322.747 240.746 322.761 240.715 322.781 240.688C322.801 240.661 322.827 240.638 322.857 240.622C322.887 240.605 322.92 240.594 322.954 240.591C322.988 240.587 323.023 240.59 323.055 240.601C323.088 240.611 323.118 240.628 323.144 240.65C323.17 240.672 323.19 240.699 323.205 240.73L326.265 245.644C326.298 245.686 326.315 245.738 326.315 245.792C326.315 245.845 326.298 245.897 326.265 245.94C326.237 245.964 326.204 245.981 326.168 245.989C326.132 245.997 326.094 245.997 326.058 245.988V245.988Z" fill="white"/>
</g>
<g opacity="0.4">
<path d="M183.506 254.583C183.471 254.583 183.435 254.575 183.403 254.56C183.371 254.545 183.342 254.524 183.319 254.497C183.287 254.454 183.269 254.402 183.269 254.349C183.269 254.295 183.287 254.243 183.319 254.201L185.71 251.094L177.11 251.4C177.078 251.401 177.046 251.396 177.015 251.385C176.985 251.374 176.957 251.358 176.933 251.336C176.91 251.315 176.89 251.289 176.877 251.261C176.863 251.232 176.856 251.201 176.854 251.17C176.854 251.107 176.878 251.047 176.922 251.001C176.966 250.955 177.026 250.926 177.091 250.922L186.212 250.596C186.258 250.596 186.303 250.607 186.343 250.629C186.383 250.65 186.416 250.682 186.439 250.721C186.46 250.761 186.471 250.805 186.471 250.85C186.471 250.895 186.46 250.939 186.439 250.979L184.323 253.723L189.007 251.6C189.039 251.591 189.073 251.591 189.105 251.6H201.326V238.274C191.427 238.149 176.726 238.054 175.506 238.274C175.319 238.885 176.038 242.824 176.854 246.381C176.862 246.411 176.863 246.443 176.857 246.474C176.852 246.505 176.84 246.535 176.822 246.562C176.805 246.588 176.782 246.611 176.756 246.63C176.729 246.648 176.699 246.661 176.667 246.667C176.636 246.674 176.604 246.675 176.573 246.67C176.541 246.664 176.512 246.653 176.485 246.636C176.458 246.619 176.435 246.597 176.418 246.571C176.4 246.545 176.388 246.516 176.382 246.486C175.123 241.027 174.739 238.121 175.231 237.882C175.723 237.643 195.55 237.777 201.582 237.882C201.646 237.884 201.706 237.91 201.75 237.955C201.794 238 201.819 238.059 201.818 238.121V251.906C201.818 251.97 201.793 252.03 201.746 252.075C201.7 252.12 201.638 252.145 201.572 252.145H189.145L183.624 254.65L183.506 254.583Z" fill="white"/>
</g>
<g opacity="0.4">
<path d="M310.354 167.358C310.314 167.358 310.276 167.348 310.242 167.33C310.207 167.311 310.178 167.285 310.157 167.253L306.339 162.215L292.317 163.869C292.286 163.873 292.254 163.87 292.223 163.862C292.193 163.854 292.165 163.84 292.14 163.821C292.113 163.802 292.092 163.778 292.076 163.749C292.061 163.721 292.052 163.69 292.051 163.658L290.28 149.194C290.275 149.162 290.277 149.13 290.286 149.098C290.294 149.067 290.309 149.038 290.329 149.012C290.377 148.965 290.439 148.935 290.506 148.926L312.076 147.282C312.14 147.279 312.204 147.3 312.253 147.341C312.302 147.382 312.334 147.439 312.341 147.502C312.344 147.565 312.323 147.626 312.28 147.674C312.238 147.722 312.179 147.753 312.115 147.76L290.762 149.376L292.465 163.314L306.378 161.679C306.421 161.675 306.465 161.681 306.505 161.698C306.544 161.714 306.579 161.741 306.605 161.775L309.557 165.599L308.159 161.775C308.145 161.745 308.138 161.712 308.138 161.679C308.138 161.646 308.145 161.614 308.159 161.584C308.177 161.553 308.201 161.526 308.23 161.505C308.258 161.483 308.291 161.468 308.327 161.459L313.532 160.503L312.213 150.15C312.208 150.087 312.227 150.024 312.267 149.974C312.307 149.925 312.365 149.892 312.43 149.882C312.462 149.878 312.495 149.881 312.526 149.889C312.558 149.897 312.587 149.912 312.613 149.931C312.639 149.951 312.66 149.975 312.676 150.003C312.692 150.031 312.702 150.061 312.705 150.093L314.053 160.666C314.057 160.727 314.039 160.788 314.001 160.837C313.963 160.886 313.908 160.92 313.847 160.934L308.701 161.89L310.57 166.966C310.589 167.021 310.588 167.081 310.566 167.135C310.545 167.189 310.504 167.234 310.452 167.262C310.429 167.302 310.395 167.335 310.354 167.358V167.358Z" fill="white"/>
</g>
<g opacity="0.4">
<path d="M184.854 167.681C178.852 167.681 172.003 165.301 170.478 160.741C167.979 153.274 176.677 148.752 178.261 148.007L174.384 141.229C174.359 141.18 174.352 141.124 174.362 141.071C174.373 141.017 174.402 140.969 174.444 140.932C174.487 140.899 174.541 140.881 174.596 140.881C174.651 140.881 174.705 140.899 174.749 140.932L181.44 145.626C181.471 145.642 181.499 145.664 181.521 145.691C181.543 145.718 181.559 145.75 181.567 145.783C181.575 145.817 181.576 145.852 181.569 145.886C181.562 145.919 181.548 145.951 181.527 145.979C181.506 146.007 181.479 146.03 181.448 146.047C181.417 146.064 181.383 146.074 181.348 146.077C181.312 146.08 181.277 146.075 181.243 146.064C181.21 146.052 181.18 146.033 181.154 146.009L175.359 141.946L178.822 148.007C178.837 148.037 178.845 148.069 178.845 148.102C178.845 148.135 178.837 148.168 178.822 148.198C178.8 148.26 178.754 148.311 178.694 148.341C178.586 148.341 168.343 152.854 170.931 160.607C172.2 164.383 178.163 167.213 184.844 167.213H184.943C191.683 167.213 196.603 164.412 198.099 159.794C198.509 158.77 198.661 157.665 198.541 156.572C198.421 155.479 198.033 154.43 197.41 153.513C193.996 148.8 184.067 148.36 183.969 148.36C183.936 148.359 183.905 148.352 183.875 148.339C183.846 148.325 183.819 148.307 183.798 148.284C183.776 148.261 183.759 148.234 183.747 148.204C183.736 148.175 183.731 148.143 183.732 148.112C183.732 148.08 183.739 148.049 183.752 148.019C183.765 147.99 183.784 147.964 183.808 147.943C183.833 147.921 183.861 147.904 183.892 147.894C183.923 147.884 183.956 147.88 183.988 147.882C184.402 147.882 194.251 148.332 197.814 153.236C198.481 154.212 198.897 155.329 199.027 156.493C199.157 157.658 198.997 158.836 198.561 159.928C196.997 164.756 191.91 167.643 184.953 167.681H184.854Z" fill="white"/>
</g>
<g opacity="0.4">
<path d="M231.87 156.64C231.811 156.641 231.754 156.621 231.708 156.584C231.663 156.547 231.633 156.496 231.624 156.439L230.866 151.124L225.405 150.168C225.35 150.159 225.3 150.133 225.262 150.093C225.225 150.053 225.202 150.002 225.198 149.948C225.196 149.892 225.213 149.837 225.247 149.792C225.281 149.747 225.33 149.715 225.385 149.7L230.846 148.285V141.287C230.846 141.223 230.872 141.163 230.919 141.118C230.965 141.073 231.027 141.048 231.092 141.048C231.158 141.048 231.22 141.073 231.266 141.118C231.313 141.163 231.338 141.223 231.338 141.287V148.466C231.338 148.519 231.319 148.571 231.285 148.612C231.252 148.654 231.204 148.683 231.151 148.696L226.586 149.881L231.132 150.656C231.183 150.662 231.231 150.685 231.267 150.722C231.303 150.759 231.325 150.806 231.329 150.856L232.076 156.124L255.761 154.766V140.092H233.041C232.976 140.092 232.913 140.067 232.867 140.022C232.821 139.977 232.795 139.916 232.795 139.853C232.795 139.789 232.821 139.729 232.867 139.684C232.913 139.639 232.976 139.614 233.041 139.614H256.007C256.072 139.616 256.133 139.642 256.179 139.686C256.224 139.731 256.251 139.79 256.253 139.853V155.015C256.251 155.076 256.226 155.134 256.182 155.178C256.139 155.222 256.08 155.249 256.017 155.254L231.88 156.64H231.87Z" fill="white"/>
</g>
<g opacity="0.4">
<path d="M253.872 257.565C253.831 257.565 253.792 257.555 253.756 257.537C253.72 257.519 253.689 257.492 253.665 257.46L250.713 253.196C250.695 253.17 250.682 253.14 250.676 253.109C250.669 253.078 250.669 253.046 250.675 253.015C250.682 252.984 250.695 252.954 250.713 252.928C250.731 252.902 250.755 252.879 250.782 252.862C250.808 252.844 250.838 252.832 250.869 252.826C250.901 252.819 250.933 252.819 250.964 252.826C250.996 252.832 251.025 252.844 251.051 252.862C251.078 252.88 251.1 252.902 251.117 252.929L253.705 256.667L254.207 253.024C254.215 252.976 254.238 252.93 254.273 252.895C254.308 252.859 254.354 252.834 254.403 252.823C254.462 252.823 260.671 251.456 262.462 248.177C262.757 247.626 262.92 247.018 262.939 246.397C262.958 245.776 262.832 245.159 262.571 244.592C261.144 241.122 252.731 240.548 246.049 242.202C241.395 243.349 238.659 245.319 238.905 247.346C239.614 253.129 243.579 252.833 243.747 252.823C243.778 252.819 243.811 252.822 243.842 252.83C243.872 252.839 243.901 252.853 243.926 252.873C243.951 252.893 243.971 252.917 243.986 252.945C244.001 252.972 244.01 253.003 244.012 253.034C244.018 253.097 243.999 253.16 243.959 253.209C243.918 253.259 243.86 253.292 243.796 253.301C243.747 253.301 239.191 253.665 238.423 247.403C238.138 245.089 240.942 242.967 245.921 241.734C252.012 240.223 261.341 240.319 263.023 244.42C263.313 245.049 263.452 245.734 263.43 246.423C263.408 247.112 263.225 247.787 262.895 248.397C261.154 251.6 255.722 253.005 254.679 253.254L254.108 257.355C254.1 257.402 254.078 257.447 254.045 257.482C254.012 257.518 253.969 257.543 253.921 257.556L253.872 257.565Z" fill="white"/>
</g>
<path d="M385.728 262.116C385.728 262.116 365.625 253.072 338.614 256.676C338.614 256.676 343.928 203.944 345.718 196.879C347.509 189.814 386.062 198.571 386.062 198.571C386.062 198.571 383.297 219.603 383.534 232.566C383.77 245.53 387.47 259.927 385.728 262.116Z" fill="#263238"/>
<path opacity="0.4" d="M385.728 262.116C385.728 262.116 365.625 253.072 338.614 256.676C338.614 256.676 343.928 203.944 345.718 196.879C347.509 189.814 386.062 198.571 386.062 198.571C386.062 198.571 383.297 219.603 383.534 232.566C383.77 245.53 387.47 259.927 385.728 262.116Z" fill="white"/>
<path d="M328.066 392.123L335.052 394.045L336.715 383.481L337.62 377.831L330.624 375.909L329.443 383.481L328.066 392.123Z" fill="#E4897B"/>
<path d="M368.242 392.678L375.445 393.605L375.514 383.481L375.563 377.191L368.341 376.273L368.301 383.481L368.242 392.678Z" fill="#E4897B"/>
<path opacity="0.2" d="M368.341 376.273L368.301 383.481H375.514L375.563 377.191L368.341 376.273Z" fill="black"/>
<path opacity="0.2" d="M329.443 383.481H336.715L337.62 377.831L330.624 375.909L329.443 383.481Z" fill="black"/>
<path d="M301.448 192.49L295.466 188.542L294.265 196.247C294.265 196.247 299.815 199.46 301.399 196.601L301.448 192.49Z" fill="#E4897B"/>
<path d="M288.312 188.199L289.591 195.158L294.265 196.248L295.466 188.543L288.312 188.199Z" fill="#E4897B"/>
<path d="M309.95 197.194L299.884 191.468L297.207 196.276L306.29 201.678L309.95 197.194Z" fill="#E4897B"/>
<path d="M346.948 184.852C343.996 185.693 327.77 205.176 326.678 204.985C325.232 204.736 304.213 192.853 304.213 192.853L300.553 201.304C300.553 201.304 321.217 216.878 326.944 216.447C332.139 216.055 349.438 200.702 349.438 200.702L346.948 184.852Z" fill="#263238"/>
<path opacity="0.1" d="M337.925 210.119C343.75 205.741 349.448 200.693 349.448 200.693L348.09 192.089C347.736 192.278 347.406 192.505 347.106 192.768C342.855 196.247 339.136 202.92 337.925 210.119Z" fill="black"/>
<path d="M328.154 391.061L336.095 390.85C336.239 390.846 336.381 390.891 336.495 390.976C336.61 391.061 336.691 391.182 336.725 391.319L338.398 397.523C338.438 397.672 338.443 397.827 338.412 397.978C338.382 398.129 338.317 398.271 338.223 398.394C338.128 398.517 338.006 398.618 337.866 398.689C337.726 398.76 337.572 398.799 337.414 398.804C334.55 398.804 330.408 398.804 326.816 398.871C322.604 398.976 319.928 398.776 315.008 398.871C312.056 398.948 311.072 396.051 312.331 395.755C317.97 394.407 321.65 394.674 326.452 391.615C326.957 391.283 327.545 391.091 328.154 391.061Z" fill="#263238"/>
<path d="M327.475 392.046C326.314 392.304 324.238 392.639 323.421 391.97C323.302 391.874 323.208 391.752 323.146 391.614C323.085 391.476 323.058 391.326 323.067 391.176C323.068 391.084 323.092 390.994 323.139 390.914C323.185 390.833 323.252 390.766 323.333 390.718C324.198 390.211 327.17 391.578 327.505 391.731C327.537 391.746 327.564 391.771 327.582 391.802C327.599 391.833 327.607 391.868 327.603 391.903C327.603 391.938 327.591 391.972 327.567 391.998C327.543 392.025 327.511 392.042 327.475 392.046V392.046ZM323.539 390.985H323.47C323.439 391.004 323.413 391.031 323.395 391.063C323.378 391.095 323.37 391.131 323.372 391.167C323.363 391.267 323.379 391.368 323.418 391.461C323.457 391.554 323.519 391.637 323.598 391.702C324.061 392.075 325.261 392.104 326.855 391.807C325.704 391.329 324.09 390.794 323.559 391.004L323.539 390.985Z" fill="#407BFF"/>
<path d="M327.475 392.046C327.455 392.055 327.433 392.06 327.411 392.06C327.389 392.06 327.367 392.055 327.347 392.046C326.462 391.692 324.661 390.22 324.769 389.417C324.769 389.235 324.927 388.996 325.389 388.939C325.563 388.911 325.74 388.92 325.91 388.964C326.08 389.009 326.238 389.088 326.373 389.197C327.357 389.904 327.593 391.797 327.603 391.874C327.606 391.902 327.602 391.93 327.592 391.957C327.582 391.984 327.565 392.007 327.544 392.027L327.475 392.046ZM325.261 389.302C325.123 389.359 325.114 389.436 325.114 389.465C325.045 389.943 326.275 391.099 327.19 391.596C327.075 390.796 326.711 390.049 326.147 389.455C325.945 389.305 325.691 389.236 325.438 389.264L325.261 389.302Z" fill="#407BFF"/>
<path d="M368.528 391.061L376.459 390.85C376.604 390.848 376.746 390.892 376.862 390.977C376.978 391.062 377.061 391.182 377.098 391.319L378.761 397.523C378.803 397.672 378.81 397.828 378.78 397.979C378.751 398.131 378.686 398.274 378.591 398.397C378.496 398.521 378.374 398.621 378.233 398.692C378.092 398.763 377.936 398.801 377.777 398.804C374.914 398.804 370.771 398.804 367.17 398.871C362.968 398.976 360.282 398.775 355.362 398.871C352.41 398.948 351.426 396.051 352.675 395.754C358.314 394.407 362.004 394.674 366.806 391.615C367.316 391.28 367.912 391.088 368.528 391.061V391.061Z" fill="#263238"/>
<path d="M367.849 392.046C366.687 392.304 364.621 392.639 363.794 391.97C363.675 391.874 363.581 391.752 363.52 391.614C363.458 391.476 363.431 391.326 363.44 391.176C363.443 391.084 363.47 390.993 363.518 390.913C363.566 390.833 363.634 390.765 363.716 390.718C364.582 390.211 367.553 391.578 367.888 391.731C367.92 391.746 367.947 391.771 367.965 391.802C367.983 391.833 367.99 391.868 367.986 391.903C367.984 391.939 367.969 391.973 367.944 391.999C367.919 392.025 367.885 392.042 367.849 392.046V392.046ZM363.913 390.985H363.854C363.822 391.005 363.796 391.032 363.777 391.063C363.758 391.095 363.747 391.13 363.745 391.167C363.738 391.268 363.756 391.369 363.797 391.462C363.838 391.555 363.901 391.637 363.981 391.702C364.434 392.075 365.635 392.104 367.229 391.807C366.048 391.329 364.464 390.794 363.922 391.004L363.913 390.985Z" fill="#407BFF"/>
<path d="M367.849 392.046C367.829 392.055 367.807 392.06 367.785 392.06C367.762 392.06 367.741 392.055 367.721 392.046C366.825 391.692 365.034 390.22 365.143 389.417C365.143 389.235 365.29 388.996 365.762 388.939C365.936 388.911 366.114 388.92 366.283 388.964C366.453 389.009 366.611 389.088 366.746 389.197C367.73 389.904 367.967 391.797 367.976 391.874C367.98 391.903 367.976 391.932 367.964 391.959C367.952 391.986 367.932 392.01 367.908 392.027L367.849 392.046ZM365.635 389.302C365.596 389.313 365.561 389.334 365.533 389.362C365.505 389.391 365.486 389.426 365.477 389.465C365.418 389.943 366.638 391.099 367.553 391.596C367.456 390.802 367.113 390.056 366.569 389.455C366.367 389.305 366.114 389.236 365.861 389.264L365.635 389.302Z" fill="#407BFF"/>
<path d="M383.101 238.808C386.909 254.888 380.365 381.319 380.365 381.319H367.711L362.299 275.949L342.363 381.319L328.843 380.363C337.699 298.74 345.502 250.012 345.502 250.012V243.856L383.101 238.808Z" fill="#263238"/>
<path opacity="0.5" d="M328.843 380.364L342.373 381.32L358.058 298.377L362.299 275.959L367.711 381.32H380.365C380.365 381.32 386.919 254.889 383.101 238.818L345.482 243.856V250.013C345.482 250.013 337.689 298.74 328.843 380.364Z" fill="white"/>
<path d="M383.524 224.087C383.524 225.129 383.524 226.143 383.524 227.127C383.524 227.653 383.524 228.169 383.524 228.676C383.524 229.766 383.524 230.827 383.524 231.84C383.524 232.357 383.524 232.863 383.524 233.36C383.652 239.316 383.878 243.676 383.74 245.559L345.797 244.192C345.036 239.858 344.459 235.757 344.065 231.888C344.016 231.42 343.967 230.932 343.928 230.492C343.829 229.536 343.751 228.58 343.672 227.624C343.672 227.137 343.603 226.668 343.564 226.181C343.505 225.225 343.446 224.269 343.396 223.389C343.396 222.883 343.347 222.433 343.337 221.898C342.353 197.415 347.893 184.69 347.893 184.69C350.863 184.057 353.87 183.601 356.897 183.323C357.536 183.256 358.186 183.218 358.865 183.18C364.248 183.074 369.633 183.269 374.993 183.763C375.977 183.849 377.039 183.964 378.043 184.088C383.15 184.729 387.657 185.79 387.657 185.79C385.898 193.29 384.724 200.909 384.144 208.581C383.74 213.485 383.553 218.141 383.494 222.5C383.494 222.892 383.494 223.284 383.494 223.667L383.524 224.087Z" fill="#263238"/>
<g opacity="0.3">
<path d="M383.543 222.499C383.543 222.891 383.543 223.283 383.543 223.665V224.086L379.667 228.923L372.227 218.818L365.507 227.422L358.884 218.818L353.049 226.466L347.145 218.77L343.416 223.388C343.416 222.881 343.367 222.432 343.357 221.897L347.047 217.222L352.951 224.87L358.786 217.222L365.418 225.826L372.168 217.222L379.617 227.336L383.543 222.499Z" fill="white"/>
<path d="M383.514 228.675L379.509 233.685L372.07 223.589L365.34 232.193L358.727 223.589L352.882 231.237L346.978 223.532L343.77 227.585C343.77 227.098 343.701 226.629 343.662 226.142L346.978 221.955L352.882 229.603L358.727 221.955L365.359 230.559L372.1 221.955L379.549 232.069L383.485 227.107C383.504 227.652 383.504 228.169 383.514 228.675Z" fill="white"/>
<path d="M383.583 233.36L379.509 238.455L372.07 228.35L365.339 236.906L358.727 228.302L352.882 235.998L346.978 228.293L344.164 231.849C344.115 231.381 344.065 230.893 344.026 230.453L346.978 226.715L352.882 234.363L358.727 226.715L365.359 235.319L372.1 226.715L379.548 236.82L383.563 231.811C383.57 232.346 383.576 232.862 383.583 233.36Z" fill="white"/>
</g>
<path d="M372.7 165.695C371.598 170.829 370.407 180.188 373.861 183.362C373.861 183.362 364.021 188.438 361.581 187.96C359.878 187.625 358.166 184.299 358.166 184.299C363.834 182.606 363.775 178.419 362.889 174.528L372.7 165.695Z" fill="#E4897B"/>
<path opacity="0.2" d="M368.705 169.297L362.889 174.527C363.112 175.437 363.254 176.365 363.312 177.299C365.467 176.859 368.478 174.307 368.754 172.032C368.9 171.124 368.884 170.199 368.705 169.297V169.297Z" fill="black"/>
<path d="M361.531 187.968C361.531 187.968 363.273 190.148 365.32 192.327C368.498 190.97 375.967 187.289 375.829 183.523C375.455 182.404 372.552 181.553 372.552 181.553C372.552 181.553 369.118 185.463 361.531 187.968Z" fill="#407BFF"/>
<path d="M361.531 187.969C359.94 189.075 358.522 190.399 357.32 191.898C355.116 190.34 356.66 183.419 357.546 182.692C358.769 182.113 360.123 181.844 361.482 181.908C360.98 182.845 360.721 183.888 360.73 184.945C360.739 186.001 361.014 187.04 361.531 187.969Z" fill="#407BFF"/>
<g opacity="0.5">
<path d="M361.531 187.968C361.531 187.968 363.273 190.148 365.32 192.327C368.498 190.97 375.967 187.289 375.829 183.523C375.455 182.404 372.552 181.553 372.552 181.553C372.552 181.553 369.118 185.463 361.531 187.968Z" fill="white"/>
<path d="M361.531 187.969C359.94 189.075 358.522 190.399 357.32 191.898C355.116 190.34 356.661 183.419 357.546 182.692C358.77 182.113 360.123 181.844 361.482 181.908C360.98 182.845 360.722 183.888 360.73 184.945C360.739 186.001 361.014 187.04 361.531 187.969Z" fill="white"/>
</g>
<path d="M375.829 183.551C374.611 192.572 374.209 201.68 374.628 210.769V210.769C375.209 223.101 377.58 237.202 384.341 247.546C384.341 247.546 386.663 256.905 384.006 264.305C384.006 264.305 386.742 263.721 387.509 262.393C388.277 261.064 383.986 242.546 384.557 229.143C385.128 215.74 389.477 185.836 389.477 185.836C386.493 184.891 383.417 184.251 380.296 183.924C378.978 183.771 377.462 183.618 375.829 183.551Z" fill="#263238"/>
<path opacity="0.7" d="M375.829 183.551C374.611 192.572 374.209 201.68 374.628 210.769V210.769C375.209 223.101 377.58 237.202 384.341 247.546C384.341 247.546 386.663 256.905 384.006 264.305C384.006 264.305 386.742 263.721 387.509 262.393C388.277 261.064 383.986 242.546 384.557 229.143C384.774 224.143 385.541 216.839 386.377 209.641C386.692 207.002 387.017 204.373 387.361 201.878C388.513 193.006 389.546 185.846 389.546 185.846C386.562 184.901 383.485 184.26 380.365 183.934C378.978 183.771 377.462 183.618 375.829 183.551Z" fill="white"/>
<path opacity="0.2" d="M375.829 183.551C374.611 192.572 374.209 201.679 374.628 210.769V210.769L382.953 192.605L377.856 191.266L383.573 189.201L380.326 183.934C378.978 183.771 377.462 183.618 375.829 183.551Z" fill="black"/>
<path d="M338.053 258.474L339.204 259.631C340.752 243.959 343.183 228.381 346.486 212.968C346.752 211.687 347.027 210.464 347.283 209.297C352.341 187.003 356.67 183.485 356.946 183.323L353.394 183.858L346.949 184.814C341.684 203.714 338.053 258.474 338.053 258.474Z" fill="#263238"/>
<path opacity="0.7" d="M338.053 258.474L339.204 259.631C340.752 243.959 343.183 228.381 346.486 212.968C346.752 211.687 347.027 210.464 347.283 209.297C352.341 187.003 356.67 183.485 356.946 183.323L353.394 183.858L346.949 184.814C341.684 203.714 338.053 258.474 338.053 258.474Z" fill="white"/>
<path opacity="0.2" d="M351.918 190.579L347.657 192.252C347.657 192.252 346.673 203.418 347.283 209.297C352.341 187.003 356.67 183.485 356.946 183.323L353.394 183.858C351.253 185.205 349.357 186.888 347.785 188.839L351.918 190.579Z" fill="black"/>
<path d="M380.149 244.354L375.435 249.64L384.193 252.049C384.193 252.049 387.145 246.696 384.39 244.86L380.149 244.354Z" fill="#E4897B"/>
<path d="M375.14 255.357L382.471 257.021L384.193 252.05L375.445 249.641L375.14 255.357Z" fill="#E4897B"/>
<path opacity="0.1" d="M385.502 201.908C385.262 204.524 385.563 207.16 386.387 209.661C386.702 207.023 387.027 204.394 387.371 201.898C386.755 201.768 386.116 201.772 385.502 201.908V201.908Z" fill="black"/>
<path d="M385.285 237.384L378.407 246.542L383.071 249.611L389.497 241.37L385.285 237.384Z" fill="#E4897B"/>
<path d="M389.526 185.865C393.541 187.002 406.726 213.149 406.254 220.281C405.782 227.413 388.916 246.647 388.916 246.647L382.343 241.208C382.343 241.208 395.45 222.269 396.375 219.363C397.3 216.457 385.502 201.906 385.502 201.906C384.949 198.929 384.899 195.884 385.354 192.891C386.092 187.719 389.526 185.865 389.526 185.865Z" fill="#263238"/>
<path opacity="0.7" d="M389.526 185.865C393.541 187.002 406.726 213.149 406.254 220.281C405.782 227.413 388.916 246.647 388.916 246.647L382.343 241.208C382.343 241.208 395.45 222.269 396.375 219.363C397.3 216.457 385.502 201.906 385.502 201.906C384.949 198.929 384.899 195.884 385.354 192.891C386.092 187.719 389.526 185.865 389.526 185.865Z" fill="white"/>
<path opacity="0.2" d="M358.058 298.377L362.299 275.959L361.482 264.095C361.482 264.095 355.667 284.668 358.058 298.377Z" fill="black"/>
<path d="M357.408 152.655C355.657 154.662 355.785 157.75 355.706 159.719C355.627 161.689 355.273 164.26 357.871 161.545C360.469 158.83 363.155 147.674 357.408 152.655Z" fill="#407BFF"/>
<path d="M373.664 161.774C372.788 168.352 373.664 169.47 370.013 172.606C364.483 177.329 355.962 177.778 355.194 171C354.506 164.91 354.614 153.945 361.462 151.813C362.979 151.338 364.594 151.246 366.157 151.543C367.72 151.841 369.18 152.519 370.399 153.515C371.619 154.511 372.558 155.791 373.129 157.235C373.7 158.68 373.884 160.242 373.664 161.774V161.774Z" fill="#FF8B7B"/>
<path d="M372.66 166.2C369.088 166.085 369.59 164.699 369.797 164.374C370.722 162.959 369.698 160.865 368.596 158.16C367.494 155.454 373.074 152.338 377.128 153.504C380.867 154.575 378.623 166.391 372.66 166.2Z" fill="#407BFF"/>
<path d="M357.576 168.169C357.576 168.169 360.036 168.848 364.926 167.404C364.336 168.886 363.175 170.138 360.4 170.272C357.625 170.406 357.576 168.169 357.576 168.169Z" fill="white"/>
<path d="M376.468 166.345C375.787 167.733 374.587 168.817 373.113 169.376C371.243 170.026 370.358 168.229 370.909 166.269C371.411 164.51 372.995 162.053 374.845 162.254C376.695 162.455 377.354 164.625 376.468 166.345Z" fill="#FF8B7B"/>
<path d="M359.376 161.698C358.788 162.999 358.013 164.213 357.074 165.302C357.37 165.53 357.713 165.692 358.08 165.778C358.447 165.864 358.829 165.871 359.199 165.799L359.376 161.698Z" fill="#FF5652"/>
<path d="M377.236 150.656C375.819 148.438 363.804 146.584 359.032 148.171C358.585 148.27 358.167 148.464 357.807 148.74C357.447 149.016 357.155 149.366 356.951 149.765C356.748 150.164 356.638 150.602 356.63 151.047C356.623 151.492 356.717 151.933 356.907 152.339C359.18 156.689 362.958 154.308 362.958 154.308C363.563 153.927 364.24 153.665 364.95 153.538C365.659 153.411 366.387 153.421 367.093 153.568C367.798 153.714 368.467 153.994 369.061 154.392C369.655 154.79 370.163 155.297 370.555 155.886L377.561 154.251C377.821 153.673 377.928 153.041 377.872 152.413C377.815 151.785 377.596 151.181 377.236 150.656Z" fill="#407BFF"/>
<path d="M365.231 161.44C365.231 161.995 364.867 162.396 364.493 162.396C364.119 162.396 363.844 161.909 363.873 161.354C363.903 160.8 364.228 160.398 364.601 160.398C364.975 160.398 365.261 160.886 365.231 161.44Z" fill="#263238"/>
<path d="M358.766 161.038C358.766 161.592 358.412 161.994 358.038 161.994C357.664 161.994 357.389 161.506 357.418 160.952C357.448 160.397 357.772 159.996 358.146 159.996C358.52 159.996 358.796 160.483 358.766 161.038Z" fill="#263238"/>
<path d="M367.327 159.537C367.267 159.538 367.208 159.525 367.154 159.499C367.101 159.472 367.055 159.432 367.022 159.384C366.797 159.036 366.491 158.745 366.129 158.534C365.766 158.323 365.358 158.198 364.936 158.17C364.846 158.17 364.76 158.136 364.696 158.075C364.632 158.014 364.594 157.932 364.592 157.845C364.592 157.758 364.627 157.676 364.69 157.615C364.752 157.554 364.837 157.52 364.926 157.52C365.462 157.545 365.983 157.695 366.445 157.958C366.908 158.221 367.298 158.589 367.583 159.03C367.63 159.102 367.647 159.188 367.63 159.272C367.614 159.355 367.565 159.429 367.494 159.479C367.443 159.508 367.386 159.528 367.327 159.537Z" fill="#263238"/>
<path d="M356.1 158.696C356.034 158.698 355.969 158.682 355.913 158.648C355.874 158.628 355.839 158.601 355.812 158.568C355.784 158.534 355.764 158.496 355.752 158.455C355.74 158.414 355.737 158.371 355.742 158.328C355.748 158.286 355.762 158.245 355.785 158.208C356.031 157.751 356.388 157.358 356.825 157.065C357.262 156.772 357.766 156.587 358.294 156.526C358.383 156.519 358.47 156.548 358.538 156.604C358.605 156.661 358.647 156.741 358.653 156.827C358.66 156.913 358.631 156.998 358.573 157.064C358.514 157.129 358.432 157.17 358.343 157.176C357.926 157.228 357.528 157.379 357.185 157.616C356.842 157.853 356.564 158.168 356.375 158.533C356.348 158.581 356.308 158.622 356.26 158.65C356.211 158.679 356.156 158.694 356.1 158.696Z" fill="#263238"/>
<path opacity="0.7" d="M300.543 201.305C300.543 201.305 321.207 216.879 326.944 216.448C329.158 216.286 333.586 213.389 337.925 210.12C343.75 205.741 349.448 200.694 349.448 200.694L348.09 192.09L346.948 184.833C343.996 185.675 327.77 205.158 326.678 204.967C325.232 204.718 304.213 192.826 304.213 192.826L300.543 201.305Z" fill="white"/>
<path d="M211.971 181.297C211.971 180.931 211.917 180.604 211.808 180.317C211.699 180.02 211.501 179.748 211.214 179.5C210.927 179.253 210.521 179.005 209.996 178.758C209.472 178.5 208.783 178.238 207.932 177.971C206.962 177.654 206.036 177.297 205.155 176.901C204.284 176.495 203.506 176.025 202.823 175.491C202.14 174.956 201.601 174.332 201.205 173.619C200.818 172.906 200.625 172.075 200.625 171.124C200.625 170.204 200.828 169.372 201.234 168.629C201.64 167.887 202.209 167.253 202.942 166.728C203.675 166.194 204.536 165.788 205.526 165.511C206.516 165.224 207.605 165.08 208.793 165.08C210.377 165.08 211.768 165.362 212.966 165.927C214.174 166.481 215.115 167.263 215.788 168.273C216.461 169.273 216.798 170.436 216.798 171.763H211.986C211.986 171.179 211.863 170.664 211.615 170.218C211.377 169.763 211.011 169.407 210.516 169.149C210.031 168.892 209.422 168.763 208.689 168.763C207.977 168.763 207.378 168.872 206.892 169.09C206.417 169.298 206.056 169.585 205.808 169.951C205.571 170.317 205.452 170.718 205.452 171.154C205.452 171.501 205.541 171.817 205.719 172.105C205.907 172.382 206.175 172.644 206.521 172.892C206.878 173.129 207.313 173.357 207.828 173.575C208.343 173.793 208.932 174 209.595 174.199C210.754 174.565 211.778 174.971 212.669 175.416C213.57 175.862 214.328 176.367 214.942 176.931C215.555 177.495 216.016 178.134 216.323 178.847C216.64 179.56 216.798 180.367 216.798 181.268C216.798 182.228 216.61 183.079 216.234 183.822C215.867 184.564 215.333 185.198 214.63 185.723C213.937 186.238 213.105 186.629 212.135 186.896C211.165 187.163 210.08 187.297 208.882 187.297C207.793 187.297 206.719 187.158 205.66 186.881C204.6 186.594 203.64 186.158 202.779 185.574C201.927 184.99 201.244 184.248 200.729 183.347C200.224 182.436 199.972 181.357 199.972 180.109H204.813C204.813 180.763 204.907 181.317 205.095 181.772C205.284 182.218 205.551 182.579 205.897 182.857C206.254 183.134 206.685 183.332 207.189 183.451C207.694 183.569 208.259 183.629 208.882 183.629C209.605 183.629 210.189 183.53 210.635 183.332C211.09 183.124 211.427 182.842 211.645 182.485C211.863 182.129 211.971 181.733 211.971 181.297ZM228.174 179.485H222.738V175.728H228.174C228.976 175.728 229.619 175.594 230.104 175.327C230.599 175.06 230.961 174.694 231.189 174.228C231.426 173.753 231.545 173.218 231.545 172.624C231.545 172.01 231.426 171.441 231.189 170.916C230.961 170.382 230.599 169.951 230.104 169.624C229.619 169.298 228.976 169.134 228.174 169.134H224.491V187H219.649V165.377H228.174C229.896 165.377 231.372 165.689 232.599 166.313C233.837 166.936 234.782 167.793 235.436 168.882C236.099 169.961 236.431 171.199 236.431 172.595C236.431 173.991 236.099 175.203 235.436 176.233C234.782 177.263 233.837 178.065 232.599 178.639C231.372 179.203 229.896 179.485 228.174 179.485ZM247.896 179.485H242.46V175.728H247.896C248.698 175.728 249.341 175.594 249.826 175.327C250.321 175.06 250.683 174.694 250.911 174.228C251.148 173.753 251.267 173.218 251.267 172.624C251.267 172.01 251.148 171.441 250.911 170.916C250.683 170.382 250.321 169.951 249.826 169.624C249.341 169.298 248.698 169.134 247.896 169.134H244.213V187H239.371V165.377H247.896C249.619 165.377 251.094 165.689 252.321 166.313C253.559 166.936 254.504 167.793 255.158 168.882C255.821 169.961 256.153 171.199 256.153 172.595C256.153 173.991 255.821 175.203 255.158 176.233C254.504 177.263 253.559 178.065 252.321 178.639C251.094 179.203 249.619 179.485 247.896 179.485ZM270.93 165.377H275.771V179.575C275.771 181.258 275.415 182.673 274.702 183.822C273.999 184.97 273.019 185.837 271.761 186.421C270.504 187.005 269.048 187.297 267.395 187.297C265.732 187.297 264.266 187.005 262.999 186.421C261.742 185.837 260.752 184.97 260.029 183.822C259.316 182.673 258.96 181.258 258.96 179.575V165.377H263.816V179.575C263.816 180.505 263.955 181.268 264.232 181.862C264.519 182.446 264.93 182.876 265.464 183.154C265.999 183.421 266.643 183.555 267.395 183.555C268.148 183.555 268.786 183.421 269.311 183.154C269.845 182.876 270.246 182.446 270.514 181.862C270.791 181.268 270.93 180.505 270.93 179.575V165.377ZM189.101 201.377H193.942V215.575C193.942 217.258 193.586 218.673 192.873 219.822C192.17 220.97 191.19 221.837 189.933 222.421C188.675 223.005 187.22 223.297 185.566 223.297C183.903 223.297 182.438 223.005 181.171 222.421C179.913 221.837 178.923 220.97 178.2 219.822C177.488 218.673 177.131 217.258 177.131 215.575V201.377H181.987V215.575C181.987 216.505 182.126 217.268 182.403 217.862C182.69 218.446 183.101 218.876 183.636 219.154C184.171 219.421 184.814 219.555 185.566 219.555C186.319 219.555 186.958 219.421 187.482 219.154C188.017 218.876 188.418 218.446 188.685 217.862C188.962 217.268 189.101 216.505 189.101 215.575V201.377ZM205.927 215.485H200.492V211.728H205.927C206.729 211.728 207.373 211.594 207.858 211.327C208.353 211.06 208.714 210.694 208.942 210.228C209.179 209.753 209.298 209.218 209.298 208.624C209.298 208.01 209.179 207.441 208.942 206.916C208.714 206.382 208.353 205.951 207.858 205.624C207.373 205.298 206.729 205.134 205.927 205.134H202.244V223H197.403V201.377H205.927C207.65 201.377 209.125 201.689 210.353 202.313C211.59 202.936 212.536 203.793 213.189 204.882C213.853 205.961 214.184 207.199 214.184 208.595C214.184 209.991 213.853 211.203 213.189 212.233C212.536 213.263 211.59 214.065 210.353 214.639C209.125 215.203 207.65 215.485 205.927 215.485ZM223.971 223H219.219L219.248 219.258H223.971C225.05 219.258 225.961 219.01 226.704 218.515C227.446 218.01 228.01 217.268 228.397 216.287C228.783 215.297 228.976 214.094 228.976 212.679V211.684C228.976 210.614 228.867 209.674 228.649 208.862C228.431 208.04 228.109 207.352 227.684 206.798C227.258 206.243 226.728 205.827 226.095 205.55C225.471 205.273 224.753 205.134 223.941 205.134H219.13V201.377H223.941C225.407 201.377 226.743 201.625 227.951 202.12C229.169 202.615 230.218 203.323 231.099 204.243C231.99 205.164 232.679 206.253 233.164 207.51C233.649 208.768 233.891 210.169 233.891 211.713V212.679C233.891 214.213 233.649 215.614 233.164 216.881C232.679 218.139 231.99 219.228 231.099 220.149C230.218 221.059 229.174 221.762 227.966 222.257C226.758 222.752 225.426 223 223.971 223ZM221.966 201.377V223H217.125V201.377H221.966ZM245.505 205.491L239.921 223H234.753L242.757 201.377H246.025L245.505 205.491ZM250.138 223L244.54 205.491L243.96 201.377H247.272L255.306 223H250.138ZM249.901 214.951V218.693H238.629V214.951H249.901ZM265.361 201.377V223H260.534V201.377H265.361ZM271.939 201.377V205.134H254.089V201.377H271.939ZM289.033 219.258V223H277.523V219.258H289.033ZM279.172 201.377V223H274.33V201.377H279.172ZM287.548 210.08V213.703H277.523V210.08H287.548ZM289.048 201.377V205.134H277.523V201.377H289.048ZM302.621 217.297C302.621 216.931 302.567 216.604 302.458 216.317C302.349 216.02 302.151 215.748 301.864 215.5C301.577 215.253 301.171 215.005 300.646 214.758C300.122 214.5 299.433 214.238 298.582 213.971C297.612 213.654 296.686 213.297 295.805 212.901C294.934 212.495 294.156 212.025 293.473 211.491C292.79 210.956 292.251 210.332 291.855 209.619C291.468 208.906 291.275 208.075 291.275 207.124C291.275 206.204 291.478 205.372 291.884 204.629C292.29 203.887 292.859 203.253 293.592 202.728C294.325 202.194 295.186 201.788 296.176 201.511C297.166 201.224 298.255 201.08 299.443 201.08C301.027 201.08 302.419 201.362 303.616 201.927C304.824 202.481 305.765 203.263 306.438 204.273C307.111 205.273 307.448 206.436 307.448 207.763H302.636C302.636 207.179 302.513 206.664 302.265 206.218C302.027 205.763 301.661 205.407 301.166 205.149C300.681 204.892 300.072 204.763 299.339 204.763C298.627 204.763 298.028 204.872 297.542 205.09C297.067 205.298 296.706 205.585 296.458 205.951C296.221 206.317 296.102 206.718 296.102 207.154C296.102 207.501 296.191 207.817 296.369 208.105C296.557 208.382 296.825 208.644 297.171 208.892C297.528 209.129 297.963 209.357 298.478 209.575C298.993 209.793 299.582 210 300.245 210.199C301.404 210.565 302.428 210.971 303.319 211.416C304.22 211.862 304.978 212.367 305.592 212.931C306.206 213.495 306.666 214.134 306.973 214.847C307.29 215.56 307.448 216.367 307.448 217.268C307.448 218.228 307.26 219.079 306.884 219.822C306.517 220.564 305.983 221.198 305.28 221.723C304.587 222.238 303.755 222.629 302.785 222.896C301.815 223.163 300.73 223.297 299.532 223.297C298.443 223.297 297.369 223.158 296.31 222.881C295.25 222.594 294.29 222.158 293.429 221.574C292.577 220.99 291.894 220.248 291.379 219.347C290.874 218.436 290.622 217.357 290.622 216.109H295.463C295.463 216.763 295.557 217.317 295.746 217.772C295.934 218.218 296.201 218.579 296.547 218.857C296.904 219.134 297.335 219.332 297.839 219.451C298.344 219.569 298.909 219.629 299.532 219.629C300.255 219.629 300.839 219.53 301.285 219.332C301.74 219.124 302.077 218.842 302.295 218.485C302.513 218.129 302.621 217.733 302.621 217.297Z" fill="white"/>
</svg>
