<svg width="389" height="389" viewBox="0 0 389 389" fill="none" xmlns="http://www.w3.org/2000/svg">
<path d="M374.164 121.858H313.822V184.76H374.164V121.858Z" fill="#E0E0E0"/>
<path d="M370.079 121.858H309.738V184.76H370.079V121.858Z" fill="#FAFAFA"/>
<path d="M370.095 184.775H309.722V121.843H370.095V184.775ZM309.753 184.736H370.056V121.874H309.753V184.736Z" fill="#E0E0E0"/>
<path d="M361.972 130.315H317.852V176.303H361.972V130.315Z" fill="#FAFAFA"/>
<path d="M317.852 176.606C317.534 177.066 317.169 177.491 316.763 177.874C316.055 178.652 315.067 179.625 313.954 180.714C312.841 181.803 311.822 182.783 311.075 183.476C310.695 183.879 310.266 184.234 309.799 184.534C310.111 184.074 310.474 183.651 310.881 183.273C311.589 182.534 312.577 181.523 313.689 180.426C314.802 179.329 315.829 178.356 316.576 177.664C316.957 177.261 317.385 176.906 317.852 176.606Z" fill="#E0E0E0"/>
<path d="M361.965 176.498C362.431 176.806 362.857 177.172 363.233 177.587C364.011 178.287 364.983 179.275 366.072 180.388C367.162 181.5 368.142 182.519 368.834 183.266C369.237 183.647 369.593 184.075 369.892 184.542C369.432 184.232 369.009 183.869 368.632 183.461C367.893 182.76 366.882 181.765 365.785 180.652C364.688 179.54 363.715 178.513 363.023 177.766C362.623 177.384 362.268 176.959 361.965 176.498Z" fill="#E0E0E0"/>
<path d="M361.848 130.44C362.154 129.971 362.52 129.545 362.937 129.171C363.637 128.393 364.625 127.421 365.738 126.324C366.85 125.227 367.87 124.262 368.624 123.57C369.005 123.167 369.43 122.81 369.892 122.504C369.587 122.968 369.223 123.392 368.811 123.764C368.111 124.542 367.115 125.515 366.002 126.612C364.89 127.709 363.871 128.689 363.116 129.381C362.735 129.781 362.309 130.136 361.848 130.44V130.44Z" fill="#E0E0E0"/>
<path d="M317.727 130.548C317.265 130.234 316.84 129.868 316.459 129.459C315.72 128.759 314.716 127.763 313.619 126.658C312.522 125.553 311.55 124.526 310.858 123.772C310.457 123.388 310.102 122.96 309.799 122.496C310.259 122.807 310.682 123.17 311.06 123.577C311.799 124.285 312.81 125.281 313.907 126.393C315.004 127.506 315.977 128.525 316.669 129.28C317.069 129.661 317.424 130.087 317.727 130.548Z" fill="#E0E0E0"/>
<path d="M361.848 176.303C361.84 176.228 361.84 176.152 361.848 176.077C361.848 175.922 361.848 175.711 361.848 175.439C361.848 174.863 361.848 174.031 361.848 172.957C361.848 170.779 361.848 167.605 361.801 163.582C361.801 155.53 361.747 144.055 361.715 130.315L361.887 130.486H317.891L318.085 130.292C318.085 147.167 318.085 162.968 318.085 176.279L317.922 176.108L349.773 176.194L358.72 176.241H361.093H361.7H361.124H358.79L349.882 176.279L317.922 176.365H317.751V176.202C317.751 162.882 317.751 147.089 317.751 130.214V130.02H317.953H361.949H362.12V130.191C362.081 143.969 362.05 155.483 362.027 163.567C362.027 167.574 362.027 170.732 361.988 172.903C361.988 173.961 361.988 174.778 361.988 175.346C361.988 175.618 361.988 175.82 361.988 175.976C361.988 176.132 361.848 176.303 361.848 176.303Z" fill="#E0E0E0"/>
<path d="M347.268 145.945H332.548V160.665H347.268V145.945Z" fill="#EBEBEB"/>
<path d="M314.961 29.6895L114.634 35.2852L122.849 329.394L323.176 323.799L314.961 29.6895Z" fill="#E0E0E0"/>
<path d="M303.709 38.6219L103.605 27.6445L87.4886 321.427L287.593 332.404L303.709 38.6219Z" fill="#F5F5F5"/>
<path d="M338.691 57.6116L139.009 40.5981L114.031 333.76L313.713 350.773L338.691 57.6116Z" fill="#EBEBEB"/>
<path d="M32.7771 290.645C29.7366 288.741 26.3012 287.557 22.7331 287.183C21.0915 287.02 19.2944 287.067 17.9795 288.062C17.8278 288.149 17.7022 288.275 17.6159 288.427C17.5297 288.579 17.486 288.751 17.4894 288.926C17.5645 289.175 17.7313 289.386 17.9562 289.517C20.0887 291.039 22.597 291.949 25.2094 292.148C27.8218 292.347 30.4388 291.827 32.7771 290.645" fill="#E0E0E0"/>
<path d="M32.5204 290.358C30.1912 288.652 28.0197 286.741 26.0319 284.647C24.0316 282.545 22.6272 279.948 21.963 277.124C21.8293 276.707 21.7886 276.266 21.8437 275.832C21.8989 275.398 22.0484 274.981 22.282 274.611C27.4557 278.649 31.5168 283.877 32.5204 290.358Z" fill="#E0E0E0"/>
<path d="M32.7227 290.607C32.2436 287.783 32.2832 284.896 32.8394 282.087C33.4248 279.267 35.0459 276.769 37.3829 275.085C38.2776 277.178 37.8886 279.582 37.2584 281.768C36.2818 285.147 34.7631 288.345 32.7616 291.237" fill="#E0E0E0"/>
<path d="M37.7953 299.693C34.75 300.181 31.9326 301.606 29.7352 303.77C27.4254 305.873 25.8176 308.635 25.1295 311.682C28.1481 311.496 30.7077 309.348 32.5671 306.975C34.4266 304.603 35.6791 301.973 37.7486 299.74" fill="#E0E0E0"/>
<path d="M38.9 301.14C37.6898 298.063 37.2659 294.733 37.6666 291.451C38.0673 288.169 39.2801 285.039 41.1951 282.344C42.9534 288.568 42.3077 295.632 38.9 301.14Z" fill="#E0E0E0"/>
<path d="M45.5908 309.123C42.7785 308.952 39.9778 309.61 37.5356 311.015C35.0935 312.42 33.1171 314.51 31.8513 317.027C31.6879 317.37 31.5323 317.805 31.7657 318.109C31.8839 318.224 32.0288 318.309 32.1876 318.355C32.3465 318.401 32.5142 318.407 32.676 318.373C35.3834 318.202 37.7797 316.568 39.7636 314.717C41.7475 312.865 43.4668 310.718 45.653 309.115" fill="#E0E0E0"/>
<path d="M45.3808 308.687C43.9393 304.044 43.8502 299.087 45.124 294.395C45.6297 292.551 46.4777 290.614 48.1738 289.727C48.2422 289.683 48.3189 289.653 48.3992 289.64C48.4794 289.627 48.5616 289.63 48.6406 289.649C48.7806 289.72 48.8869 289.843 48.9362 289.991C49.5112 291.278 49.7598 292.686 49.6598 294.092C49.5574 295.489 49.3414 296.876 49.014 298.238C48.4772 300.782 48.1893 303.505 46.8045 305.692C46.4677 306.226 46.1663 306.782 45.902 307.356C45.6375 307.909 45.6375 308.134 45.3963 308.547" fill="#E0E0E0"/>
<path d="M63.1114 311.333C62.5192 308.723 62.502 306.016 63.0609 303.399C63.6197 300.782 64.7413 298.318 66.3478 296.177C66.5735 295.874 66.8847 295.547 67.2659 295.586C67.8416 295.641 67.9972 296.411 67.9661 296.994C67.7281 302.135 66.0455 307.105 63.1114 311.333" fill="#E0E0E0"/>
<path d="M64.714 312.421C67.8158 313.152 71.0394 313.202 74.1622 312.567C77.2851 311.931 80.233 310.626 82.8025 308.741C79.7741 307.222 76.3128 306.798 73.0075 307.543C69.7399 308.321 66.7835 309.753 64.714 312.421" fill="#E0E0E0"/>
<path d="M66.06 309.092C69.4599 303.553 75.9795 299.935 82.4758 299.601C81.6978 302.246 79.5583 304.269 77.1076 305.537C74.6021 306.678 71.9494 307.463 69.2265 307.871C68.184 308.081 66.7447 308.299 66.06 309.123" fill="#E0E0E0"/>
<path d="M63.4536 292.948C64.4799 289.823 65.1838 286.601 65.5542 283.332C65.9048 280.052 65.2366 276.743 63.6404 273.856C60.4583 280.002 60.1394 287.183 63.3603 293.306" fill="#E0E0E0"/>
<path d="M74.1511 287.541C77.8622 280.788 85.4399 275.397 93.111 274.642C90.1546 282.01 82.0867 287.697 74.1511 287.541Z" fill="#E0E0E0"/>
<path d="M71.8094 288.863C77.3488 289.711 82.0713 293.243 87.245 295.39C88.3314 295.914 89.5354 296.144 90.7382 296.06C91.2969 296.053 91.8401 295.875 92.2945 295.55C92.7489 295.224 93.0926 294.768 93.2792 294.241C93.4658 293.714 93.4863 293.143 93.338 292.604C93.1897 292.065 92.8797 291.585 92.4498 291.228C91.7179 290.544 90.8552 290.015 89.9135 289.672C84.273 287.338 78.2435 287.268 72.284 288.692" fill="#E0E0E0"/>
<path d="M68.6041 292.754C69.8567 293.112 70.2846 293.758 71.2804 294.606C74.6565 297.481 78.6499 299.539 82.9504 300.62C83.3939 300.729 83.9852 300.775 84.203 300.371C84.4208 299.966 84.1485 299.593 83.8996 299.274C82.0174 297.07 79.5776 295.412 76.8353 294.473C74.1279 293.47 71.7939 292.256 68.5652 292.521" fill="#E0E0E0"/>
<path d="M64.9864 269.281C67.2576 271.376 69.9419 272.973 72.8668 273.968C75.7917 274.964 78.8926 275.336 81.9701 275.062C82.2546 275.065 82.5306 274.965 82.7481 274.782C83.176 274.315 82.6626 273.599 82.1646 273.226C77.1699 269.336 71.117 267.718 64.9864 269.297" fill="#E0E0E0"/>
<path d="M69.242 267.711C72.2496 265.497 75.7383 264.026 79.423 263.419C83.1077 262.812 86.8838 263.086 90.4425 264.217C87.6657 266.791 84.1026 268.353 80.3285 268.652C76.6064 268.988 72.8542 268.67 69.242 267.711" fill="#E0E0E0"/>
<path d="M67.5693 256.927C67.0791 251.94 67.3981 248.011 67.0558 243.001C67.0558 242.604 66.9391 242.122 66.5656 241.974C66.0444 241.772 65.6087 242.418 65.4376 242.947C64.7127 245.268 64.5273 247.724 64.8953 250.128C65.2634 252.532 66.1753 254.82 67.5615 256.818" fill="#E0E0E0"/>
<path d="M67.2115 257.518C70.4711 255.404 73.2772 252.661 75.4661 249.451C77.0999 247.225 78.4769 244.549 78.1035 241.811C76.956 241.84 75.8288 242.12 74.8008 242.631C73.7728 243.141 72.8687 243.87 72.1518 244.767C70.7251 246.57 69.6892 248.65 69.1098 250.874C68.4485 253.068 67.9895 255.324 67.2115 257.479" fill="#E0E0E0"/>
<path d="M75.3259 255.223C82.7601 252.474 89.6423 248.416 95.6473 243.242C93.2199 242.27 90.4347 242.853 88.0151 243.833C82.5027 245.922 77.9487 249.961 75.217 255.184" fill="#E0E0E0"/>
<path d="M69.4909 260.202C73.2336 260.738 77.0321 260.756 80.7797 260.257C84.4363 259.65 87.8906 258.203 91.3061 256.763C91.6038 256.677 91.8589 256.483 92.0218 256.219C92.0831 256.061 92.0911 255.887 92.0448 255.725C91.9985 255.562 91.9003 255.418 91.7651 255.316C91.5052 255.106 91.1982 254.962 90.8704 254.896C87.1515 253.854 83.1448 254.344 79.4882 255.573C76.0052 256.768 72.655 258.319 69.4909 260.202" fill="#E0E0E0"/>
<path d="M48.0726 269.453C45.513 264.287 45.6842 258.258 47.8937 252.936C49.4497 255.309 49.6364 258.328 49.3563 261.144C49.0762 263.96 48.236 266.854 48.1582 269.71" fill="#E0E0E0"/>
<path d="M37.8497 264.295C34.6459 264.252 31.4684 264.879 28.521 266.136C25.5736 267.392 22.9212 269.251 20.7337 271.592C23.9631 271.975 27.2327 271.368 30.1086 269.849C32.9562 268.336 35.6413 266.534 38.122 264.473" fill="#E0E0E0"/>
<path d="M30.98 262C27.868 261.743 24.8416 261.354 21.8385 262.28C20.3213 262.705 18.9137 263.453 17.7119 264.472C16.5102 265.491 15.5427 266.757 14.8754 268.185C17.8214 268.42 20.7767 267.861 23.4334 266.567C26.0784 265.274 28.6015 263.745 30.9722 262" fill="#E0E0E0"/>
<path d="M41.1562 262.1C38.3399 260.257 35.4535 258.382 32.1781 257.619C28.9027 256.857 25.1139 257.425 22.8421 259.891C25.4873 261.447 28.7005 261.626 31.7736 261.626C34.8467 261.626 38.62 261.626 41.5141 262.614" fill="#E0E0E0"/>
<path d="M41.1718 262.249C36.3638 257.534 34.5433 249.023 36.5038 242.597C40.2883 248.409 41.9382 255.355 41.1718 262.249Z" fill="#E0E0E0"/>
<path d="M54.39 248.874C55.3003 246.766 55.946 244.556 56.724 242.409C57.4677 240.232 58.6072 238.212 60.085 236.449C61.5866 234.671 63.7268 233.553 66.0445 233.337C65.3066 236.593 63.8972 239.658 61.9064 242.338C59.9156 245.017 57.3873 247.251 54.4834 248.897" fill="#E0E0E0"/>
<path d="M52.0015 251.66C50.5 249.598 48.7651 246.797 46.7345 245.257C44.7039 243.717 42.0665 242.775 39.5613 243.374C40.8488 245.628 42.6444 247.551 44.8053 248.989C46.9663 250.428 49.433 251.342 52.0093 251.66" fill="#E0E0E0"/>
<path d="M52.4762 249.045C51.4127 246.581 50.6298 244.005 50.1422 241.366C49.6557 238.711 50.0806 235.97 51.3481 233.586C53.9855 238.573 54.8335 243.934 52.6473 249.146" fill="#E0E0E0"/>
<path d="M54.4134 233.555C55.9071 228.615 60.4351 224.997 65.3054 223.301C65.9107 223.052 66.5674 222.953 67.2192 223.013C67.5425 223.052 67.8477 223.183 68.0977 223.392C68.3477 223.6 68.5317 223.877 68.6274 224.188C68.8063 225.036 68.1061 225.744 67.4526 226.343C63.6334 229.609 59.1888 232.063 54.39 233.555" fill="#E0E0E0"/>
<path d="M54.46 229.51C54.6545 226.32 54.849 223.084 55.8838 220.065C56.9185 217.047 58.9258 214.207 61.8277 212.884C62.3256 216.105 60.9019 219.311 59.1903 222.08C57.4787 224.85 55.4092 227.464 54.3822 230.56" fill="#E0E0E0"/>
<path d="M54.3901 231.711C53.153 228.101 53.0285 223.527 50.8735 220.384C49.3642 218.19 46.9835 216.696 45.6453 214.37C44.8607 216.6 44.9694 219.048 45.9488 221.2C46.9319 223.327 48.2831 225.263 49.9399 226.919C51.5426 228.623 52.9041 229.906 54.3901 231.711Z" fill="#E0E0E0"/>
<path d="M54.4133 337.839C54.32 337.839 54.2344 313.799 54.2266 284.157C54.2188 254.515 54.2966 230.475 54.39 230.475C54.4834 230.475 54.5689 254.515 54.5767 284.157C54.5845 313.799 54.5145 337.839 54.4133 337.839Z" fill="#E0E0E0"/>
<path d="M75.466 265.827C75.1728 265.965 74.8682 266.077 74.5557 266.162L72.0739 267.002C69.9733 267.718 67.0947 268.752 63.9672 270.036C60.8396 271.32 57.9454 272.44 56.2883 273.879C55.6224 274.436 55.0906 275.135 54.7323 275.926C54.4989 276.486 54.4522 276.836 54.4211 276.828C54.409 276.743 54.409 276.656 54.4211 276.571C54.4604 276.333 54.5203 276.099 54.6 275.871C54.9152 275.034 55.4339 274.288 56.1094 273.701C57.1122 272.852 58.234 272.154 59.4392 271.631C60.7696 271.009 62.2478 270.355 63.8193 269.709C66.9313 268.426 69.8566 267.422 71.9806 266.769C73.0386 266.442 73.9022 266.193 74.5013 266.037C74.8144 265.933 75.1378 265.862 75.466 265.827V265.827Z" fill="#E0E0E0"/>
<path d="M82.3124 248.906C82.3124 248.906 82.2346 249.015 82.0557 249.178L81.2777 249.902L78.3991 252.523L68.8141 261.081C65.0719 264.411 61.8121 267.593 59.5948 269.99C58.4745 271.188 57.5876 272.176 56.9885 272.868L56.2883 273.646C56.2143 273.745 56.128 273.834 56.0316 273.911C56.0882 273.803 56.156 273.701 56.2339 273.607C56.3817 273.413 56.5918 273.125 56.8874 272.767C57.4553 272.043 58.3111 271.024 59.4159 269.803C62.3106 266.644 65.3698 263.639 68.5807 260.801C72.3385 257.479 75.7539 254.5 78.2357 252.345L81.1921 249.808L81.9701 249.139C82.0733 249.046 82.1884 248.968 82.3124 248.906V248.906Z" fill="#E0E0E0"/>
<path d="M64.7841 264.442C64.683 264.396 65.461 262.591 66.2468 260.311C67.0325 258.032 67.3982 256.102 67.4993 256.118C67.4185 257.592 67.1061 259.043 66.5735 260.42C66.2409 261.407 65.8512 262.373 65.4065 263.314C65.2484 263.715 65.0392 264.095 64.7841 264.442V264.442Z" fill="#E0E0E0"/>
<path d="M54.46 278.99C54.2461 278.787 54.0532 278.563 53.8843 278.321L52.4061 276.431C51.1691 274.828 49.4497 272.611 47.5281 270.207C45.6064 267.803 43.8404 265.609 42.5567 264.037L41.024 262.185C40.8279 261.964 40.6534 261.724 40.5027 261.47C40.7299 261.657 40.9383 261.865 41.1251 262.092C41.5141 262.512 42.0587 263.127 42.6811 263.897C44.0115 265.453 45.7931 267.577 47.7381 270.004C49.6831 272.432 51.348 274.672 52.5384 276.314C53.1374 277.131 53.612 277.808 53.931 278.275C54.1321 278.494 54.3094 278.734 54.46 278.99V278.99Z" fill="#E0E0E0"/>
<path d="M49.831 273.079C48.9024 272.051 48.24 270.811 47.9015 269.469C47.538 268.291 47.3904 267.058 47.4658 265.828H47.6137C47.5514 266.108 47.497 266.255 47.4736 266.248C47.4503 266.24 47.4736 266.092 47.4736 265.804H47.6292C47.7018 267.003 47.9079 268.191 48.2438 269.344C48.678 270.627 49.2086 271.875 49.831 273.079Z" fill="#E0E0E0"/>
<path d="M43.887 265.602C43.4697 265.288 43.015 265.026 42.5333 264.824C41.3238 264.461 40.0505 264.36 38.7989 264.528C37.5266 264.627 36.2645 264.83 35.0256 265.135C34.5154 265.293 33.9957 265.418 33.4696 265.509C33.9296 265.229 34.4312 265.024 34.9556 264.902C36.1922 264.518 37.4685 264.275 38.76 264.178C40.0715 264.001 41.4066 264.145 42.65 264.598C43.1647 264.782 43.6012 265.136 43.887 265.602V265.602Z" fill="#E0E0E0"/>
<path d="M42.4711 263.789C42.4711 263.843 41.6931 263.47 40.4094 263.011C37.0641 261.874 33.4847 261.606 30.0075 262.233C28.6771 262.474 27.868 262.723 27.8524 262.661C28.0218 262.557 28.2052 262.478 28.397 262.427C28.907 262.252 29.4265 262.107 29.953 261.992C31.6995 261.61 33.492 261.484 35.2746 261.618C37.0593 261.758 38.8148 262.154 40.4872 262.793C40.99 262.987 41.4809 263.21 41.9576 263.462C42.3077 263.656 42.4866 263.742 42.4711 263.789Z" fill="#E0E0E0"/>
<path d="M54.39 256.118C53.7857 254.408 53.2894 252.662 52.904 250.889C52.4011 249.145 52.0087 247.37 51.7292 245.576C52.3436 247.284 52.8478 249.031 53.2385 250.804C53.736 252.549 54.1207 254.323 54.39 256.118Z" fill="#E0E0E0"/>
<path d="M54.4599 256.118C53.9784 255.043 53.4221 254.003 52.795 253.006C52.0892 252.057 51.2627 251.204 50.3365 250.469C50.688 250.553 51.0138 250.721 51.2857 250.959C51.9844 251.468 52.592 252.092 53.0829 252.803C53.8281 253.766 54.3034 254.91 54.4599 256.118V256.118Z" fill="#E0E0E0"/>
<path d="M54.4133 325.025C54.4133 325.025 54.3044 324.442 54.0399 323.422C53.6365 321.987 53.0973 320.593 52.4294 319.26C50.1044 314.908 47.2281 310.873 43.8714 307.256C41.9731 305.077 40.1292 303.031 38.5577 301.032C37.1517 299.303 35.8798 297.469 34.7532 295.547C33.9997 294.248 33.3593 292.887 32.8394 291.478C32.6604 290.98 32.5282 290.591 32.4581 290.319C32.4105 290.183 32.3792 290.042 32.3648 289.898C32.3648 289.898 32.5671 290.451 32.9638 291.454C33.5435 292.837 34.2275 294.174 35.01 295.453C36.1551 297.347 37.4371 299.154 38.8455 300.86C40.4015 302.805 42.2687 304.844 44.1748 307.022C48.0259 311.348 51.0446 315.705 52.655 319.151C53.3292 320.503 53.851 321.925 54.211 323.391C54.3044 323.789 54.3771 324.192 54.4289 324.597C54.441 324.74 54.4358 324.884 54.4133 325.025V325.025Z" fill="#E0E0E0"/>
<path d="M73.3965 303.583C73.0782 303.787 72.7483 303.971 72.4085 304.136C71.5052 304.64 70.6417 305.212 69.8255 305.847C68.6146 306.794 67.4803 307.834 66.4334 308.959C65.2431 310.212 64.0216 311.675 62.7691 313.238C60.2717 316.35 57.9299 319.151 56.5451 321.369C55.8371 322.466 55.3158 323.391 54.9891 324.045C54.8253 324.39 54.6408 324.725 54.4367 325.048C54.456 324.949 54.4874 324.852 54.53 324.761C54.6078 324.582 54.709 324.317 54.8646 323.983C55.3038 323.039 55.7974 322.122 56.3428 321.236C58.2432 318.382 60.3057 315.639 62.5201 313.021C63.7727 311.465 65.0175 309.994 66.2234 308.734C67.2965 307.618 68.4597 306.593 69.701 305.669C70.5367 305.044 71.4243 304.492 72.354 304.019C72.6886 303.856 72.9531 303.755 73.132 303.677C73.311 303.599 73.3965 303.568 73.3965 303.583Z" fill="#E0E0E0"/>
<path d="M73.7699 310.539C73.0778 310.69 72.3758 310.791 71.6693 310.842C69.9801 311.013 68.3105 311.341 66.6823 311.823C65.0736 312.345 63.564 313.134 62.2166 314.157C61.1819 314.935 60.6606 315.612 60.6606 315.573C60.7381 315.396 60.8431 315.234 60.9718 315.09C61.2993 314.681 61.6668 314.306 62.0688 313.97C63.4007 312.862 64.9324 312.02 66.5812 311.488C68.2323 310.996 69.9341 310.693 71.6538 310.586C72.3561 310.503 73.0647 310.487 73.7699 310.539V310.539Z" fill="#E0E0E0"/>
<path d="M61.2675 314.818C61.1586 314.755 62.1077 313.308 62.8235 311.363C63.5393 309.418 63.6715 307.675 63.796 307.691C63.8625 308.064 63.8625 308.446 63.796 308.819C63.5988 310.64 62.9693 312.387 61.9599 313.915C61.7825 314.253 61.5483 314.559 61.2675 314.818V314.818Z" fill="#E0E0E0"/>
<path d="M79.5505 284.904C79.4432 284.976 79.3285 285.036 79.2082 285.083L78.2202 285.534C77.7923 285.721 77.2632 285.954 76.6642 286.265C76.0651 286.577 75.3804 286.888 74.6569 287.323L73.5055 287.977C73.1087 288.203 72.7275 288.475 72.2996 288.755C71.4516 289.268 70.6035 289.899 69.701 290.544C67.7694 291.996 65.949 293.59 64.255 295.313C62.5927 297.058 61.0611 298.922 59.6726 300.892C59.058 301.818 58.4589 302.689 57.9766 303.552C57.7276 303.98 57.4709 304.377 57.253 304.789L56.6384 305.956C56.2339 306.688 55.9382 307.396 55.6504 308.003C55.3625 308.609 55.1447 309.131 54.9735 309.559C54.8024 309.987 54.6701 310.298 54.5612 310.562C54.5184 310.683 54.4609 310.798 54.39 310.905C54.4098 310.779 54.4437 310.657 54.4912 310.539C54.5845 310.267 54.7012 309.924 54.849 309.512C55.0279 308.966 55.2383 308.431 55.4792 307.909C55.7437 307.295 56.0238 306.579 56.4206 305.832L57.0197 304.642C57.2297 304.229 57.4787 303.825 57.7276 303.389C58.2022 302.518 58.8013 301.631 59.4081 300.697C62.1543 296.679 65.5608 293.154 69.4832 290.272C70.4012 289.626 71.2648 288.996 72.1206 288.49C72.5485 288.234 72.9453 287.969 73.3499 287.712L74.5169 287.074C75.2482 286.654 75.9562 286.351 76.5552 286.063C77.061 285.806 77.5804 285.578 78.1112 285.378L79.1226 284.989C79.2614 284.944 79.4051 284.916 79.5505 284.904V284.904Z" fill="#E0E0E0"/>
<path d="M64.5195 294.971C64.6646 294.486 64.9552 294.057 65.3519 293.742C66.2767 292.937 67.4561 292.485 68.6818 292.466C69.8827 292.459 71.0729 292.692 72.1828 293.151C72.6531 293.296 73.0989 293.511 73.5054 293.789C73.0234 293.699 72.5516 293.56 72.0972 293.376C70.999 293.006 69.8485 292.814 68.6896 292.808C67.5371 292.835 66.4229 293.228 65.5075 293.929C65.1558 294.254 64.8257 294.602 64.5195 294.971V294.971Z" fill="#E0E0E0"/>
<path d="M62.279 297.289C62.7218 296.309 63.0381 295.276 63.2204 294.216C63.2982 293.13 63.2301 292.039 63.0181 290.972C63.2183 291.234 63.3518 291.541 63.4071 291.866C63.6062 292.627 63.6642 293.418 63.5783 294.2C63.4876 294.988 63.2473 295.751 62.8703 296.449C62.5668 297.04 62.3101 297.312 62.279 297.289Z" fill="#E0E0E0"/>
<path d="M37.8108 328.464C38.3321 337.652 41.094 346.996 45.3574 356.472H63.8738C67.935 347.136 70.5102 337.8 70.9692 328.464H37.8108Z" fill="#E0E0E0"/>
<path d="M67.9661 343.331C67.9661 343.432 61.8743 343.51 54.3511 343.51C46.8278 343.51 40.7361 343.432 40.7361 343.331C40.7361 343.23 46.8278 343.16 54.3511 343.16C61.8743 343.16 67.9661 343.238 67.9661 343.331Z" fill="#FAFAFA"/>
<path d="M67.5538 346.662C67.5538 346.755 61.8432 346.833 54.7945 346.833C47.7459 346.833 42.012 346.755 42.012 346.662C42.012 346.569 47.7225 346.491 54.779 346.491C61.8355 346.491 67.5538 346.569 67.5538 346.662Z" fill="#FAFAFA"/>
<path d="M45.6531 334.54C45.8934 337.387 45.8934 340.25 45.6531 343.098C45.4232 340.25 45.4232 337.388 45.6531 334.54V334.54Z" fill="#FAFAFA"/>
<path d="M55.5803 334.54C55.8086 337.479 55.8086 340.431 55.5803 343.37C55.3418 340.431 55.3418 337.478 55.5803 334.54V334.54Z" fill="#FAFAFA"/>
<path d="M64.893 334.423C65.1212 337.422 65.1212 340.434 64.893 343.433C64.6545 340.434 64.6545 337.422 64.893 334.423V334.423Z" fill="#FAFAFA"/>
<path d="M70.3857 334.54C70.3857 334.633 63.2281 334.711 54.4134 334.711C45.5986 334.711 38.441 334.633 38.441 334.54C38.441 334.446 45.5908 334.361 54.4134 334.361C63.2359 334.361 70.3857 334.4 70.3857 334.54Z" fill="#FAFAFA"/>
<path d="M96.4176 55.8843H22.1808V163.489H96.4176V55.8843Z" fill="#E0E0E0"/>
<path d="M92.6987 55.8843H18.462V163.489H92.6987V55.8843Z" fill="#F5F5F5"/>
<path d="M83.4716 67.5376H27.6812V151.834H83.4716V67.5376Z" fill="white"/>
<path d="M83.4716 151.827C83.4716 151.827 83.4716 151.687 83.4716 151.415C83.4716 151.143 83.4716 150.746 83.4716 150.225C83.4716 149.166 83.4716 147.61 83.4716 145.557C83.4716 141.519 83.4716 135.629 83.4249 128.199C83.4249 113.332 83.3704 92.2869 83.3315 67.5154L83.5183 67.6943H27.7357L27.9379 67.492C27.9379 99.2889 27.9379 128.604 27.899 151.781L27.7357 151.625L68.3473 151.711L79.566 151.749H82.5069H83.526C83.526 151.749 83.1993 151.749 82.538 151.749H79.6283L68.4406 151.788L27.7357 151.874H27.5723V151.711C27.5723 128.534 27.5723 99.2189 27.5723 67.422V67.2197H27.7823H83.5649H83.7517V67.4064C83.7517 92.2402 83.6816 113.308 83.6583 128.223C83.6583 135.645 83.6583 141.519 83.6116 145.549C83.6116 147.54 83.6116 149.081 83.6116 150.131C83.6116 150.645 83.6116 151.034 83.6116 151.306C83.6116 151.578 83.4716 151.827 83.4716 151.827Z" fill="#E0E0E0"/>
<path d="M92.901 55.8843C92.5189 56.5634 92.0763 57.2065 91.5784 57.8059C90.7148 58.9574 89.4934 60.5289 88.093 62.225C86.6926 63.921 85.3933 65.4226 84.4286 66.4884C83.9364 67.0925 83.3895 67.6498 82.7948 68.1533C83.2113 67.4957 83.6852 66.876 84.2107 66.3017L87.7818 61.9682L91.3528 57.627C91.8193 57.0039 92.3371 56.4209 92.901 55.8843V55.8843Z" fill="#E0E0E0"/>
<path d="M83.7595 151.554C86.5303 155.967 89.7928 160.052 93.4845 163.73Z" fill="white"/>
<path d="M93.4845 163.73C92.8689 163.269 92.3008 162.748 91.7885 162.174C90.4947 160.858 89.269 159.476 88.1163 158.035C86.9657 156.593 85.8881 155.095 84.8876 153.546C84.44 152.922 84.0618 152.252 83.7595 151.546C84.2541 152.127 84.709 152.741 85.121 153.382C85.9457 154.534 87.0893 156.105 88.4353 157.786C89.7812 159.466 91.0571 160.898 91.9985 161.979C92.5419 162.52 93.0389 163.106 93.4845 163.73Z" fill="#E0E0E0"/>
<path d="M18.4464 163.38L28.1714 151.383Z" fill="white"/>
<path d="M28.1714 151.399C26.7093 153.523 25.1382 155.569 23.4645 157.53C21.8958 159.567 20.2208 161.52 18.4464 163.381C19.9098 161.261 21.4809 159.217 23.1533 157.258C24.7232 155.219 26.3982 153.264 28.1714 151.399V151.399Z" fill="#E0E0E0"/>
<path d="M18.462 55.8843C20.1353 57.677 21.7092 59.56 23.1767 61.5248C24.7515 63.4056 26.2215 65.3717 27.5801 67.4142C25.9028 65.6229 24.3263 63.7398 22.8577 61.7737C21.2837 59.8941 19.8162 57.9279 18.462 55.8843V55.8843Z" fill="#E0E0E0"/>
<path d="M66.0911 84.6465H47.4113V137.683H66.0911V84.6465Z" fill="#E0E0E0"/>
<path d="M368.165 356.619C368.165 356.736 290.365 356.822 194.508 356.822C98.6504 356.822 20.8348 356.736 20.8348 356.619C20.8348 356.503 98.5726 356.417 194.508 356.417C290.443 356.417 368.165 356.51 368.165 356.619Z" fill="#263238"/>
<path d="M92.123 50.2354H313.254C315.473 50.2354 317.601 51.1163 319.171 52.6845C320.74 54.2527 321.623 56.38 321.625 58.5989V347.704C321.625 349.924 320.743 352.053 319.173 353.623C317.603 355.193 315.474 356.075 313.254 356.075H92.123V50.2354Z" fill="#FF725E"/>
<g opacity="0.3">
<path d="M92.123 50.2354H313.254C315.473 50.2354 317.601 51.1163 319.171 52.6845C320.74 54.2527 321.623 56.38 321.625 58.5989V347.704C321.625 349.924 320.743 352.053 319.173 353.623C317.603 355.193 315.474 356.075 313.254 356.075H92.123V50.2354Z" fill="black"/>
</g>
<path d="M315.269 59.7036H192.578V356.067H315.269V59.7036Z" fill="#E0E0E0"/>
<path d="M91.1661 47.8237H296.683C298.903 47.8237 301.032 48.7057 302.602 50.2756C304.172 51.8455 305.054 53.9748 305.054 56.195V347.704C305.054 349.924 304.172 352.053 302.602 353.623C301.032 355.193 298.903 356.075 296.683 356.075H91.1661V47.8237Z" fill="#FF725E"/>
<path d="M113.152 356.627C113.036 356.627 112.95 287.494 112.95 202.233C112.95 116.972 113.036 47.8237 113.152 47.8237C113.269 47.8237 113.355 116.941 113.355 202.233C113.355 287.526 113.261 356.627 113.152 356.627Z" fill="#263238"/>
<path d="M118.925 356.627C118.816 356.627 118.723 287.494 118.723 202.233C118.723 116.972 118.816 47.8237 118.925 47.8237C119.034 47.8237 119.128 116.941 119.128 202.233C119.128 287.526 119.034 356.627 118.925 356.627Z" fill="#263238"/>
<g opacity="0.3">
<path d="M118.933 47.8237H113.152V356.628H118.933V47.8237Z" fill="black"/>
</g>
<path d="M240.402 83.106V47.8237H274.385V83.7596L257.72 100.424L240.402 83.106Z" fill="#455A64"/>
<path d="M308.088 59.7036C308.197 59.7036 308.29 125.336 308.29 206.279C308.29 287.222 308.197 352.87 308.088 352.87C307.979 352.87 307.886 287.253 307.886 206.279C307.886 125.305 307.995 59.7036 308.088 59.7036Z" fill="#263238"/>
<path d="M311.589 59.7036C311.698 59.7036 311.791 125.336 311.791 206.279C311.791 287.222 311.698 352.87 311.589 352.87C311.48 352.87 311.387 287.253 311.387 206.279C311.387 125.305 311.472 59.7036 311.589 59.7036Z" fill="#263238"/>
<path d="M308.111 102.346H316.623L324.403 108.243L317.424 115.214H308.111V102.346Z" fill="#455A64"/>
<path d="M327.663 127.616H311.589V138.321H327.663V127.616Z" fill="#FF725E"/>
<g opacity="0.3">
<path d="M249.411 254.827L239.811 264.163C239.338 264.622 238.704 264.879 238.045 264.879C237.385 264.879 236.752 264.622 236.279 264.163L170.149 200.865C169.662 200.398 169.381 199.757 169.366 199.084C169.352 198.41 169.605 197.757 170.071 197.27L180.092 186.798C180.325 186.556 180.603 186.361 180.912 186.227C181.221 186.093 181.553 186.021 181.889 186.016C182.226 186.011 182.56 186.073 182.872 186.198C183.185 186.323 183.469 186.508 183.709 186.744L249.443 251.155C249.689 251.394 249.885 251.68 250.017 251.997C250.15 252.314 250.217 252.654 250.214 252.997C250.211 253.341 250.138 253.68 250 253.994C249.862 254.309 249.662 254.592 249.411 254.827Z" fill="black"/>
</g>
<path d="M187.825 191.045C187.037 192.144 186.146 193.165 185.164 194.095C184.275 195.115 183.287 196.046 182.216 196.873C183.002 195.772 183.893 194.751 184.876 193.823C185.763 192.8 186.751 191.87 187.825 191.045V191.045Z" fill="#263238"/>
<path d="M198.336 201.167C196.664 203.293 194.785 205.248 192.726 207.002C193.511 205.899 194.402 204.875 195.387 203.945C196.279 202.927 197.266 201.997 198.336 201.167V201.167Z" fill="#263238"/>
<path d="M192.843 195.675C191.732 197.106 190.518 198.453 189.21 199.705C188.004 201.044 186.704 202.295 185.32 203.448C186.432 202.021 187.646 200.676 188.953 199.425C190.155 198.081 191.455 196.827 192.843 195.675V195.675Z" fill="#263238"/>
<path d="M203.649 206.481C202.54 207.91 201.325 209.254 200.016 210.503C198.812 211.845 197.512 213.099 196.126 214.253C198.446 211.477 200.968 208.876 203.673 206.473L203.649 206.481Z" fill="#263238"/>
<path d="M208.613 211.453C207.83 212.555 206.938 213.577 205.952 214.502C205.064 215.521 204.079 216.452 203.011 217.28C203.793 216.178 204.681 215.156 205.664 214.23C206.554 213.21 207.541 212.279 208.613 211.453Z" fill="#263238"/>
<path d="M213.95 216.766C212.837 218.19 211.626 219.534 210.325 220.788C209.123 222.131 207.822 223.381 206.435 224.531C207.549 223.106 208.763 221.761 210.068 220.508C211.269 219.167 212.566 217.917 213.95 216.766V216.766Z" fill="#263238"/>
<path d="M218.898 221.729C217.226 223.855 215.347 225.81 213.289 227.564C214.074 226.461 214.965 225.437 215.95 224.507C216.837 223.484 217.825 222.554 218.898 221.729Z" fill="#263238"/>
<path d="M224.204 227.044C223.099 228.474 221.887 229.819 220.579 231.066C219.377 232.412 218.077 233.665 216.689 234.816C217.799 233.386 219.014 232.039 220.322 230.786C221.525 229.448 222.822 228.197 224.204 227.044Z" fill="#263238"/>
<path d="M229.176 232.007C227.503 234.133 225.624 236.088 223.566 237.842C224.353 236.74 225.244 235.716 226.227 234.785C227.121 233.769 228.109 232.84 229.176 232.007Z" fill="#263238"/>
<path d="M234.489 237.29C233.378 238.72 232.164 240.067 230.856 241.32C229.65 242.658 228.35 243.909 226.966 245.062C228.077 243.636 229.288 242.292 230.591 241.04C231.797 239.696 233.1 238.443 234.489 237.29V237.29Z" fill="#263238"/>
<path d="M239.453 242.293C238.674 243.397 237.785 244.418 236.8 245.343C235.909 246.361 234.921 247.291 233.851 248.12C234.634 247.017 235.526 245.996 236.512 245.07C237.4 244.051 238.385 243.121 239.453 242.293V242.293Z" fill="#263238"/>
<g opacity="0.3">
<path d="M214.503 212.573L223.761 221.256L229.985 215.133C229.985 215.133 239.998 218.245 246.439 211.134C252.29 204.7 250.547 195.34 250.547 195.34L239.764 204.855L230.638 195.729L240.262 185.748C237.245 184.965 234.068 185.051 231.098 185.995C228.127 186.939 225.484 188.704 223.473 191.085C217.685 197.643 220.672 206.264 220.672 206.264L214.503 212.573Z" fill="black"/>
</g>
<g opacity="0.3">
<path d="M203.004 237.913C202.778 237.508 193.761 229.253 193.761 229.253L187.895 234.995C187.895 234.995 176.886 232.801 171.44 238.994C165.341 245.926 167.332 254.787 167.332 254.787L178.115 245.272L187.241 254.406L177.618 264.38C180.632 265.165 183.806 265.083 186.776 264.144C189.746 263.206 192.391 261.448 194.407 259.074C200.195 252.516 197.208 243.888 197.208 243.888L203.004 237.913Z" fill="black"/>
</g>
<path d="M279.154 321.976C279.154 322.092 249.948 322.178 213.935 322.178C177.921 322.178 148.707 322.092 148.707 321.976C148.707 321.859 177.905 321.773 213.935 321.773C249.964 321.773 279.154 321.867 279.154 321.976Z" fill="white"/>
<path d="M257.394 328.192C257.394 328.3 238.185 328.394 214.503 328.394C190.82 328.394 171.604 328.3 171.604 328.192C171.604 328.083 190.812 327.989 214.503 327.989C238.193 327.989 257.394 328.075 257.394 328.192Z" fill="white"/>
<path d="M219.069 334.159H208.792V344.437H219.069V334.159Z" fill="#E0E0E0"/>
<path d="M101.054 342.413L98.8915 358.144C98.8915 358.144 114.148 365.621 114.031 368.562L83.3937 365.45L85.7277 340.811L101.054 342.413Z" fill="#455A64"/>
<path d="M89.5477 355.857C89.2449 355.917 88.975 356.087 88.7898 356.334C88.6046 356.581 88.5171 356.888 88.5441 357.195C88.5922 357.5 88.7554 357.775 89 357.963C89.2446 358.151 89.552 358.238 89.8589 358.207C90.1809 358.143 90.4679 357.962 90.6647 357.699C90.8615 357.436 90.9541 357.11 90.9248 356.783C90.8403 356.469 90.6377 356.199 90.3594 356.031C90.081 355.863 89.7483 355.809 89.431 355.88" fill="#E0E0E0"/>
<g opacity="0.6">
<path d="M83.3938 365.474L83.7283 363L112.981 366.89C112.981 366.89 114.288 367.621 114.031 368.562L83.3938 365.474Z" fill="white"/>
</g>
<path d="M99.405 358.035C99.405 358.183 98.627 358.176 97.849 358.588C97.071 359 96.612 359.584 96.4798 359.506C96.3475 359.428 96.6587 358.596 97.6156 358.113C98.5726 357.631 99.4517 357.88 99.405 358.035Z" fill="#263238"/>
<path d="M102.486 359.692C102.486 359.84 101.832 360.027 101.257 360.611C100.681 361.194 100.479 361.848 100.323 361.824C100.167 361.801 100.167 360.945 100.891 360.268C101.615 359.591 102.494 359.545 102.486 359.692Z" fill="#263238"/>
<path d="M103.917 363.723C103.777 363.723 103.645 362.945 104.112 362.167C104.579 361.389 105.318 361.132 105.364 361.264C105.411 361.396 104.936 361.785 104.586 362.431C104.236 363.077 104.073 363.723 103.917 363.723Z" fill="#263238"/>
<path d="M99.4984 354.394C99.4206 354.527 98.7204 354.254 97.9424 354.223C97.1644 354.192 96.3864 354.394 96.3397 354.262C96.2931 354.13 96.9621 353.655 97.9658 353.702C98.9694 353.749 99.584 354.285 99.4984 354.394Z" fill="#263238"/>
<path d="M59.408 236.084C59.408 236.084 53.783 276.011 56.615 282.539C58.8011 287.588 62.6756 289.782 67.6315 291.058C74.7813 292.894 86.249 294.209 86.249 294.209L90.139 271.203L81.402 269.297L89.4466 240.675L75.1858 230.926L59.408 236.084Z" fill="#263238"/>
<path d="M89.4155 240.674L82.3668 350.971L101.817 351.959L110.476 297.242C110.476 297.242 119.719 252.118 120.349 246.602C120.979 241.086 120.349 229.37 120.349 229.37L89.4155 240.674Z" fill="#263238"/>
<path d="M88.8631 249.287C88.8714 249.359 88.8714 249.433 88.8631 249.505C88.8631 249.668 88.8631 249.878 88.8631 250.143C88.8631 250.726 88.8164 251.543 88.7775 252.578C88.6763 254.694 88.5207 257.76 88.2951 261.541C87.8517 269.103 87.1126 279.551 86.3501 291.105C86 296.877 85.6655 302.37 85.3621 307.38C85.0586 312.391 84.514 316.864 84.1406 320.606C83.7672 324.349 83.4793 327.429 83.3159 329.538C83.2381 330.573 83.1759 331.382 83.1292 331.973C83.1292 332.23 83.1292 332.44 83.0747 332.603C83.0861 332.673 83.0861 332.744 83.0747 332.813C83.0747 332.813 83.0747 332.743 83.0747 332.603C83.0747 332.463 83.0747 332.222 83.0747 331.965C83.0747 331.405 83.1292 330.588 83.1914 329.53C83.3081 327.414 83.5338 324.349 83.8839 320.575C84.234 316.802 84.6619 312.313 85.0197 307.349C85.3776 302.386 85.5799 296.846 85.9767 291.081C86.7547 279.559 87.5327 269.134 88.0384 261.517C88.2951 257.76 88.5052 254.71 88.6452 252.562C88.723 251.528 88.7775 250.719 88.8164 250.127C88.8164 249.871 88.8164 249.661 88.8708 249.497C88.8611 249.428 88.8585 249.357 88.8631 249.287V249.287Z" fill="#455A64"/>
<path d="M84.3274 258.872C84.326 259.163 84.2868 259.454 84.2107 259.735C84.1017 260.288 83.9306 261.089 83.6972 262.069C83.2382 264.022 82.4991 266.737 81.511 269.616C80.5229 272.494 79.4726 275.101 78.648 276.937C78.2356 277.855 77.87 278.594 77.6288 279.092C77.5184 279.369 77.3719 279.631 77.1931 279.87C77.2616 279.585 77.3607 279.309 77.4887 279.045C77.7299 278.438 78.0333 277.707 78.3834 276.843C79.1614 274.984 80.1417 272.401 81.1298 269.499C82.1178 266.597 82.8881 263.944 83.4638 262.007L84.094 259.72C84.1376 259.429 84.216 259.144 84.3274 258.872V258.872Z" fill="#455A64"/>
<path d="M77.4265 138.873L72.7585 142.6C72.7585 142.6 57.8987 145.253 56.6306 147.571L61.4619 177.384L65.2119 202.965C65.2119 202.965 59.5947 218.05 59.4391 224.414C59.2835 230.778 59.4391 236.084 59.4391 236.084H62.2244C68.7117 236.086 74.9474 238.595 79.6282 243.086V243.086L84.7553 238.418L85.7589 247.272C85.7589 247.272 105.878 248.509 110.997 244.627C116.116 240.745 123.064 232.513 123.064 232.513C123.064 232.513 124.262 211.865 118.139 201.44C112.016 191.015 110.476 188.852 110.476 188.852C110.476 188.852 112.654 170.865 112.654 170.242C112.654 169.62 114.514 145.082 114.514 145.082L99.0782 141.192L94.6125 137.776L77.4265 138.873Z" fill="#455A64"/>
<g opacity="0.3">
<path d="M64.6673 204.404C65.6187 205.282 66.7551 205.934 67.9926 206.314C69.2301 206.694 70.5371 206.791 71.8171 206.598C73.5365 206.364 75.1936 205.625 76.9364 205.649C79.4726 205.688 81.6588 207.306 83.8683 208.543C88.6772 211.211 94.2198 212.254 99.6695 211.515C105.894 210.651 111.596 207.5 116.887 204.085C117.287 203.858 117.643 203.56 117.937 203.206C118.206 202.785 118.337 202.29 118.312 201.791C118.287 201.292 118.107 200.813 117.797 200.42C117.158 199.642 116.25 199.131 115.253 198.989C113.479 198.654 111.666 199.09 109.892 199.378C106.103 200.002 102.234 199.968 98.4558 199.277C93.6634 198.405 89.1198 196.492 84.2651 195.846C78.8307 195.12 73.3031 196.019 68.3784 198.429C67.3013 198.896 66.33 199.576 65.5231 200.428C64.7291 201.591 64.4219 203.018 64.6673 204.404" fill="black"/>
</g>
<path d="M81.4565 155.086C81.4682 155.164 81.4682 155.242 81.4565 155.32C81.4565 155.499 81.4565 155.732 81.5032 156.02L81.6899 158.712C81.8144 161.046 82.0011 164.446 82.2267 168.593C82.6391 176.964 83.2148 188.486 83.845 201.206C83.9928 204.388 84.1406 207.5 84.2806 210.503C84.4207 213.506 84.5685 216.401 84.5607 219.17C84.5607 220.555 84.5607 221.909 84.4362 223.216C84.3118 224.523 84.1873 225.783 84.2029 227.005C84.2029 229.448 84.4051 231.751 84.3662 233.836C84.3273 235.921 84.6774 237.788 84.8486 239.437C85.0197 241.087 85.1987 242.495 85.3387 243.662C85.4788 244.829 85.5643 245.7 85.6344 246.338C85.6344 246.626 85.681 246.859 85.6966 247.038C85.7034 247.119 85.7034 247.199 85.6966 247.279C85.6713 247.201 85.653 247.12 85.6421 247.038C85.6421 246.867 85.5877 246.634 85.541 246.346L85.1754 243.685L84.6152 239.461C84.4207 237.811 84.1717 235.944 84.0706 233.843C84.0706 231.743 83.8839 229.479 83.8605 227.005C83.8605 225.768 83.9928 224.492 84.0706 223.193C84.1484 221.893 84.1873 220.547 84.1795 219.17C84.1795 216.416 84.0239 213.522 83.8761 210.519C83.7283 207.516 83.5804 204.404 83.4326 201.222C82.8413 188.502 82.3123 176.979 81.9311 168.608C81.7599 164.454 81.6199 161.085 81.5265 158.72C81.5265 157.576 81.4565 156.674 81.4332 156.036C81.4332 155.74 81.4332 155.514 81.4332 155.335C81.4332 155.156 81.4565 155.086 81.4565 155.086Z" fill="#263238"/>
<path d="M62.38 153.158L61.9287 184.387L64.2627 189.833L62.3255 204.708L54.4599 200.289C52.5448 199.234 50.9824 197.638 49.967 195.702C48.9516 193.765 48.5282 191.573 48.7494 189.397V189.296C49.473 183.243 50.6711 173.596 51.6747 167.473C53.2307 157.997 54.3199 150.544 56.6461 147.595L62.38 153.158Z" fill="#455A64"/>
<path d="M114.537 145.082C114.537 145.082 119.042 144.156 121.376 155.024C123.71 165.893 125.569 184.837 125.569 184.837C125.806 184.899 126.025 185.015 126.208 185.177C126.391 185.339 126.534 185.542 126.624 185.77C126.714 185.997 126.75 186.242 126.727 186.486C126.705 186.73 126.625 186.964 126.495 187.171C126.495 187.171 126.184 197.402 124.939 198.639L111.97 190.984L110.492 188.829L114.537 145.082Z" fill="#455A64"/>
<path d="M62.3255 204.404L79.7449 202.467L81.0831 193.995L63.9982 192.625L62.3255 204.404Z" fill="#FF907B"/>
<path d="M84.4519 151.298C84.2837 151.613 84.0885 151.912 83.8684 152.193C83.4171 152.807 82.8414 153.585 82.1645 154.527L79.5971 157.973C79.5537 158.036 79.4971 158.089 79.4313 158.128C79.3655 158.167 79.292 158.191 79.2159 158.199C79.07 158.202 78.9274 158.155 78.8114 158.067C78.636 157.936 78.472 157.79 78.3212 157.631C77.9959 157.339 77.6893 157.028 77.4032 156.697C76.7926 156.012 76.2384 155.278 75.746 154.504C74.0406 151.757 73.1602 148.579 73.2098 145.346C73.2212 144.375 73.3333 143.408 73.5443 142.46C73.6129 142.112 73.7145 141.77 73.8477 141.441C73.6351 142.727 73.518 144.027 73.4976 145.331C73.4931 149.416 74.988 153.361 77.6988 156.417C77.9785 156.738 78.2745 157.045 78.5857 157.335C78.7228 157.479 78.8683 157.614 79.0214 157.74C79.177 157.826 79.2081 157.833 79.3093 157.74C80.274 156.456 81.1843 155.313 81.9311 154.356L83.7439 152.1C83.9494 151.807 84.1869 151.538 84.4519 151.298V151.298Z" fill="#263238"/>
<path d="M99.1016 141.199C99.1367 141.301 99.1525 141.409 99.1483 141.518C99.1635 141.818 99.1635 142.12 99.1483 142.42C99.1304 143.54 98.963 144.652 98.6504 145.727C98.161 147.304 97.5578 148.843 96.8454 150.332C96.0058 152.171 95.0441 153.952 93.9668 155.662C93.3989 156.58 92.8309 157.459 92.2785 158.307C92.1385 158.517 92.0062 158.727 91.8662 158.929C91.7334 159.158 91.5769 159.372 91.3994 159.567C91.3326 159.625 91.2544 159.668 91.17 159.693C91.0856 159.719 90.9967 159.726 90.9093 159.715C90.7537 159.689 90.6099 159.615 90.4969 159.505C90.3245 159.33 90.1683 159.14 90.0301 158.937L87.136 154.993L85.1676 152.316C84.9113 151.998 84.6847 151.657 84.4908 151.297C84.772 151.584 85.032 151.891 85.2688 152.215C85.7978 152.892 86.498 153.771 87.3382 154.822L90.3724 158.712C90.6447 159.077 90.9715 159.49 91.1504 159.272C91.2977 159.099 91.4304 158.914 91.5472 158.719L91.9518 158.089C92.5042 157.241 93.0643 156.362 93.6245 155.452C94.6939 153.757 95.6579 151.998 96.5109 150.185C97.2287 148.713 97.8549 147.198 98.3858 145.649C98.8081 144.201 99.0485 142.706 99.1016 141.199V141.199Z" fill="#263238"/>
<path d="M74.7812 153.305C74.7812 153.375 73.9566 153.516 72.704 154.083C71.0462 154.857 69.6174 156.047 68.5572 157.538L68.4405 157.701L68.2694 157.577C67.8381 157.257 67.3829 156.971 66.9079 156.721C64.9678 155.686 62.7607 155.26 60.575 155.499C59.6755 155.645 58.7846 155.84 57.9064 156.083C58.1072 155.936 58.3306 155.823 58.5677 155.748C59.2031 155.502 59.8629 155.325 60.5361 155.219C62.7976 154.885 65.1066 155.292 67.1179 156.379C67.6069 156.646 68.075 156.951 68.5183 157.289H68.2305C69.3365 155.75 70.851 154.55 72.6028 153.827C73.1059 153.619 73.6267 153.458 74.1588 153.344C74.3623 153.294 74.5731 153.281 74.7812 153.305V153.305Z" fill="#263238"/>
<path d="M113.985 155.227C113.093 154.746 112.102 154.48 111.09 154.449C109.997 154.429 108.912 154.633 107.901 155.048C106.659 155.578 105.469 156.221 104.345 156.969L103.972 157.203L103.816 157.304L103.707 157.156C102.229 155.32 100.083 154.145 97.74 153.889C96.7724 153.815 95.7997 153.844 94.8381 153.974C95.0846 153.859 95.3467 153.78 95.6161 153.741C96.3274 153.597 97.0553 153.552 97.7789 153.609C98.8575 153.693 99.9119 153.973 100.891 154.433C102.107 155.007 103.173 155.857 104.003 156.915L103.731 156.868L104.104 156.627C105.248 155.86 106.468 155.213 107.745 154.698C108.807 154.284 109.945 154.101 111.083 154.161C111.85 154.2 112.6 154.402 113.284 154.752C113.55 154.858 113.789 155.019 113.985 155.227V155.227Z" fill="#263238"/>
<path d="M109.783 222.991C109.783 222.991 109.682 223.092 109.48 223.247L108.57 223.909L107.901 224.376C107.652 224.539 107.364 224.695 107.068 224.873C106.397 225.293 105.704 225.674 104.991 226.017L103.754 226.616C103.318 226.818 102.852 226.982 102.369 227.184C101.351 227.592 100.312 227.948 99.2571 228.25C94.3915 229.631 89.2831 229.934 84.2884 229.137C83.1448 228.919 82.0556 228.74 81.0597 228.445C80.5618 228.312 80.0794 228.203 79.6204 228.048L78.3212 227.596C77.5735 227.343 76.841 227.047 76.1272 226.71C75.8082 226.57 75.5126 226.445 75.2403 226.313L74.5245 225.924L73.5365 225.379C73.3186 225.247 73.2019 225.177 73.2097 225.161C73.3369 225.196 73.4596 225.246 73.5754 225.309L74.5945 225.784L75.3259 226.142C75.5904 226.258 75.8938 226.375 76.2206 226.507C76.8585 226.756 77.5743 227.083 78.4145 227.332L79.7138 227.752C80.165 227.892 80.6474 227.993 81.1453 228.118C82.1334 228.398 83.2148 228.561 84.3429 228.771C86.8113 229.116 89.3067 229.228 91.7961 229.106C94.2858 228.939 96.7534 228.53 99.1638 227.884C100.261 227.55 101.311 227.262 102.276 226.865C102.75 226.678 103.217 226.523 103.653 226.328L104.89 225.76C105.668 225.418 106.368 224.982 106.975 224.679C107.278 224.508 107.566 224.368 107.823 224.212L108.5 223.777L109.457 223.177C109.558 223.103 109.668 223.04 109.783 222.991Z" fill="#263238"/>
<path d="M105.03 212.021C104.753 212.342 104.451 212.641 104.127 212.915C103.832 213.195 103.458 213.538 102.999 213.895C102.54 214.253 102.042 214.674 101.443 215.101C100.844 215.529 100.191 215.996 99.4438 216.44C98.6969 216.883 97.8878 217.342 97.0553 217.801C93.3041 219.745 89.2411 221.017 85.0508 221.559C84.0861 221.66 83.168 221.777 82.3045 221.8C81.4409 221.823 80.6395 221.854 79.9082 221.839C79.1769 221.823 78.5078 221.777 77.9321 221.738C77.434 221.712 76.9378 221.658 76.4461 221.574C76.0238 221.533 75.6051 221.46 75.1935 221.357C75.6173 221.337 76.0419 221.358 76.4617 221.419C76.8662 221.419 77.3642 221.504 77.9399 221.512C78.5156 221.52 79.1769 221.582 79.9082 221.512C80.6395 221.442 81.4642 221.512 82.2889 221.427C83.1136 221.341 84.0472 221.263 85.0041 221.146C89.1423 220.576 93.1569 219.322 96.8842 217.435C97.7322 216.984 98.5491 216.572 99.2726 216.113C99.9962 215.654 100.673 215.241 101.28 214.829C101.887 214.417 102.4 214.051 102.836 213.678C103.272 213.304 103.692 213.024 104.003 212.76C104.324 212.485 104.668 212.238 105.03 212.021V212.021Z" fill="#263238"/>
<path d="M58.521 155.896C58.6217 156.233 58.6869 156.58 58.7155 156.931C58.8167 157.709 58.9411 158.627 59.0967 159.77C59.4235 162.244 59.8747 165.512 60.3338 169.106C60.7928 172.701 61.3218 175.984 61.6797 178.442C61.8431 179.578 61.9753 180.527 62.0843 181.282C62.1464 181.626 62.1802 181.975 62.1854 182.325C62.0636 181.995 61.9775 181.653 61.9287 181.305C61.7886 180.644 61.6097 179.679 61.3918 178.489C60.9717 176.108 60.4349 172.81 59.9292 169.153C59.4235 165.497 59.0423 162.151 58.8089 159.77C58.6922 158.565 58.6066 157.592 58.5599 156.915C58.5194 156.577 58.5064 156.236 58.521 155.896V155.896Z" fill="#263238"/>
<path d="M114.514 149.594C114.532 149.725 114.532 149.859 114.514 149.991C114.514 150.294 114.514 150.667 114.451 151.119C114.389 152.099 114.28 153.523 114.132 155.273C113.837 158.774 113.354 163.606 112.724 168.935C112.094 174.264 111.417 179.049 110.888 182.55C110.624 184.285 110.398 185.662 110.227 186.658C110.141 187.101 110.071 187.475 110.017 187.77C110 187.903 109.969 188.033 109.923 188.159C109.905 188.028 109.905 187.894 109.923 187.762C109.923 187.459 110.001 187.086 110.056 186.634C110.188 185.6 110.367 184.207 110.593 182.511C111.052 179.025 111.674 174.21 112.312 168.888C112.95 163.567 113.463 158.735 113.868 155.242C114.055 153.546 114.202 152.13 114.319 151.111C114.374 150.66 114.42 150.286 114.451 149.983C114.455 149.851 114.476 149.72 114.514 149.594V149.594Z" fill="#263238"/>
<path d="M117.283 174.646L95.0249 188.058L89.2754 186.44L62.8857 181.352L57.4319 198.662L78.1967 200.623L87.3538 205.011L91.7806 203.097L111.091 189.832L117.283 174.646Z" fill="#FF725E"/>
<path d="M87.3459 204.949C87.6359 204.096 87.9842 203.264 88.3885 202.459C89.0731 200.903 90.0145 198.842 91.0181 196.515C92.0217 194.189 92.9087 192.057 93.5388 190.517C93.8485 189.671 94.215 188.847 94.6358 188.051C94.6096 188.294 94.5493 188.532 94.4569 188.759C94.3168 189.202 94.0912 189.84 93.8111 190.626C93.2432 192.182 92.403 194.337 91.3916 196.671C90.3802 199.005 89.3999 201.09 88.653 202.584C88.2795 203.362 87.9606 203.922 87.7349 204.334C87.6327 204.555 87.5019 204.762 87.3459 204.949V204.949Z" fill="#263238"/>
<path d="M86.7236 192.275C86.894 191.274 87.2003 190.3 87.6339 189.381C87.943 188.416 88.3772 187.495 88.9254 186.643C88.7532 187.641 88.447 188.612 88.0151 189.529C87.7028 190.495 87.2688 191.418 86.7236 192.275V192.275Z" fill="#263238"/>
<path d="M91.9518 187.194C91.9518 187.194 92.6208 184.534 94.6359 183.499C96.6509 182.464 113.362 173.774 113.362 173.774L115.346 175.812L95.0249 188.058L91.9518 187.194Z" fill="#E0E0E0"/>
<path d="M65.1807 181.796L68.565 180.1C68.565 180.1 78.15 179.065 83.6893 180.1C89.2287 181.134 92.1306 184.231 91.9517 187.195L65.1807 181.796Z" fill="#E0E0E0"/>
<path d="M104.462 188.945C102.74 189.683 101.368 191.053 100.626 192.773C99.296 195.722 98.4169 197.2 96.7909 198.219C95.1649 199.238 94.2857 199.985 92.3718 199.098C90.458 198.211 87.346 195.317 85.8755 195.084C85.0042 194.944 84.7008 196.297 84.7008 196.297C84.7008 196.297 80.873 193.745 79.5426 194.212C78.2122 194.679 79.3948 195.706 80.3206 196.741C80.8688 197.385 81.3608 198.074 81.791 198.802C82.0789 198.686 79.1303 195.908 77.3098 196.468C77.1595 196.495 77.0165 196.553 76.8906 196.639C76.7646 196.725 76.6586 196.837 76.5797 196.967C76.5008 197.098 76.4508 197.244 76.4331 197.395C76.4155 197.547 76.4305 197.7 76.4773 197.846L78.6946 199.479C78.6946 199.479 77.5198 201.588 78.5468 202.031C79.5737 202.475 86.957 207.633 88.5752 207.633C90.1934 207.633 97.5689 208.963 100.665 208.224C103.762 207.485 107.216 206.427 107.216 206.427C107.216 206.427 119.392 202.475 123.072 197.76L112.016 190.976C112.016 190.976 104.649 200.561 104.236 199.534C103.592 197.794 103.438 195.909 103.793 194.088C104.166 191.894 105.738 188.229 104.462 188.945Z" fill="#FF907B"/>
<path d="M94.2468 203.346C93.6486 203.297 93.0664 203.128 92.5353 202.848C91.2657 202.195 90.0461 201.448 88.8864 200.615C87.6583 199.86 86.5404 198.938 85.5644 197.877C85.1312 197.453 84.8311 196.912 84.7008 196.321C85.0319 196.8 85.3903 197.26 85.7744 197.698C86.7906 198.673 87.9067 199.539 89.1043 200.281C90.5202 201.191 91.695 202.117 92.6597 202.615C93.6244 203.113 94.2702 203.284 94.2468 203.346Z" fill="#724A44"/>
<path d="M91.7339 206.459C91.1784 206.22 90.6556 205.911 90.1779 205.541C89.2443 204.926 87.9839 204.031 86.6302 202.989C85.2765 201.946 84.1017 200.943 83.2692 200.196C82.795 199.817 82.3668 199.383 81.9933 198.904C82.5155 199.209 83.0055 199.567 83.4559 199.97L86.8791 202.67L90.349 205.307C90.8479 205.644 91.3119 206.03 91.7339 206.459V206.459Z" fill="#724A44"/>
<path d="M85.5799 205.478C85.4865 205.556 84.1639 203.922 82.2189 202.288C80.2739 200.654 78.4845 199.557 78.5467 199.456C80.0013 200.053 81.3352 200.91 82.4834 201.985C83.7145 202.956 84.763 204.139 85.5799 205.478V205.478Z" fill="#724A44"/>
<path d="M87.8206 162.135C87.7647 161.964 87.718 161.79 87.6805 161.614C87.5449 161.169 87.2728 160.777 86.9025 160.494C86.5982 160.274 86.2393 160.142 85.865 160.113C85.4907 160.083 85.1155 160.157 84.7805 160.327C84.4456 160.496 84.1637 160.755 83.9657 161.074C83.7678 161.393 83.6614 161.76 83.6583 162.135C83.6624 162.546 83.79 162.946 84.0245 163.283C84.259 163.62 84.5895 163.879 84.9731 164.026C85.2925 164.144 85.6359 164.182 85.9735 164.138C86.3111 164.093 86.6327 163.966 86.9103 163.769C87.2805 163.487 87.5527 163.095 87.6883 162.649C87.7236 162.475 87.7703 162.303 87.8284 162.135C87.8284 162.135 87.8984 162.33 87.8284 162.688C87.7365 163.204 87.4599 163.668 87.0504 163.995C86.7412 164.243 86.3739 164.408 85.9833 164.475C85.5926 164.541 85.1914 164.507 84.8175 164.376C84.3533 164.212 83.9515 163.908 83.6672 163.506C83.383 163.104 83.2304 162.624 83.2304 162.132C83.2304 161.639 83.383 161.159 83.6672 160.757C83.9515 160.355 84.3533 160.051 84.8175 159.887C85.1914 159.756 85.5926 159.722 85.9833 159.789C86.3739 159.855 86.7412 160.02 87.0504 160.268C87.4583 160.596 87.7345 161.06 87.8284 161.575C87.9139 161.933 87.8439 162.135 87.8206 162.135Z" fill="#263238"/>
<path d="M88.6064 176.979C88.6064 176.979 88.5597 176.785 88.4585 176.458C88.3205 176.016 88.0487 175.627 87.6805 175.345C87.4479 175.171 87.1806 175.049 86.8967 174.988C86.6129 174.926 86.319 174.925 86.0351 174.987C85.7511 175.048 85.4836 175.17 85.2507 175.344C85.0178 175.517 84.8248 175.739 84.6849 175.993C84.5449 176.248 84.4613 176.53 84.4395 176.819C84.4177 177.109 84.4584 177.4 84.5587 177.673C84.659 177.945 84.8167 178.193 85.0211 178.4C85.2254 178.606 85.4717 178.767 85.7433 178.87C86.0624 178.99 86.4062 179.029 86.7442 178.984C87.0821 178.94 87.4038 178.812 87.6805 178.613C88.0487 178.332 88.3205 177.943 88.4585 177.5C88.5597 177.174 88.5675 176.979 88.6064 176.979C88.6553 177.16 88.6553 177.351 88.6064 177.532C88.5112 178.046 88.2353 178.51 87.8284 178.839C87.5192 179.087 87.1519 179.252 86.7613 179.318C86.3706 179.385 85.9694 179.351 85.5955 179.22C85.1305 179.058 84.7274 178.755 84.4422 178.353C84.157 177.952 84.0038 177.472 84.0038 176.979C84.0038 176.487 84.157 176.006 84.4422 175.605C84.7274 175.204 85.1305 174.901 85.5955 174.739C85.9688 174.606 86.3696 174.571 86.7602 174.636C87.1509 174.702 87.5184 174.865 87.8284 175.112C88.2327 175.443 88.508 175.906 88.6064 176.419C88.6556 176.603 88.6556 176.796 88.6064 176.979V176.979Z" fill="#263238"/>
<path d="M90.0612 212.154C90.0024 211.985 89.953 211.814 89.9134 211.64C89.7807 211.193 89.508 210.8 89.1354 210.52C88.8592 210.323 88.539 210.196 88.2026 210.151C87.8663 210.107 87.5241 210.145 87.206 210.263C86.8202 210.407 86.4876 210.666 86.2529 211.005C86.0181 211.343 85.8923 211.746 85.8923 212.157C85.8923 212.569 86.0181 212.972 86.2529 213.31C86.4876 213.649 86.8202 213.907 87.206 214.052C87.5241 214.17 87.8663 214.208 88.2026 214.164C88.539 214.119 88.8592 213.992 89.1354 213.795C89.5064 213.513 89.7787 213.121 89.9134 212.675C90.0223 212.356 90.0301 212.154 90.0612 212.154C90.0924 212.154 90.1313 212.356 90.0612 212.714C89.9661 213.228 89.6901 213.692 89.2832 214.021C88.974 214.269 88.6068 214.434 88.2162 214.5C87.8255 214.567 87.4243 214.533 87.0504 214.402C86.5862 214.238 86.1844 213.934 85.9001 213.532C85.6159 213.13 85.4633 212.65 85.4633 212.157C85.4633 211.665 85.6159 211.185 85.9001 210.783C86.1844 210.381 86.5862 210.077 87.0504 209.913C87.4243 209.782 87.8255 209.748 88.2162 209.815C88.6068 209.881 88.974 210.046 89.2832 210.294C89.6917 210.622 89.968 211.086 90.0612 211.601C90.1313 211.959 90.0846 212.161 90.0612 212.154Z" fill="#263238"/>
<path d="M89.7266 226.009C89.7266 226.009 89.68 225.807 89.5788 225.488C89.4413 225.043 89.1695 224.652 88.8008 224.367C88.5232 224.17 88.2016 224.044 87.864 223.999C87.5264 223.954 87.183 223.993 86.8636 224.111C86.4778 224.255 86.1452 224.514 85.9105 224.852C85.6757 225.191 85.5499 225.593 85.5499 226.005C85.5499 226.417 85.6757 226.819 85.9105 227.158C86.1452 227.496 86.4778 227.755 86.8636 227.9C87.183 228.018 87.5264 228.056 87.864 228.011C88.2016 227.966 88.5232 227.84 88.8008 227.643C89.171 227.36 89.4432 226.968 89.5788 226.523C89.68 226.204 89.6877 226.001 89.7266 226.009C89.7763 226.19 89.7763 226.381 89.7266 226.561C89.6302 227.075 89.3545 227.539 88.9486 227.868C88.6394 228.116 88.2722 228.281 87.8816 228.348C87.4909 228.415 87.0897 228.381 86.7158 228.25C86.2516 228.086 85.8498 227.782 85.5655 227.38C85.2813 226.978 85.1286 226.497 85.1286 226.005C85.1286 225.513 85.2813 225.033 85.5655 224.631C85.8498 224.229 86.2516 223.925 86.7158 223.761C87.0897 223.629 87.4909 223.596 87.8816 223.662C88.2722 223.729 88.6394 223.894 88.9486 224.142C89.3529 224.473 89.6283 224.936 89.7266 225.449C89.7751 225.632 89.7751 225.825 89.7266 226.009Z" fill="#263238"/>
<path d="M70.0588 100.798C70.4539 99.3805 71.1272 98.0563 72.0395 96.9022C72.9519 95.7481 74.0849 94.7873 75.3726 94.0757C78.2874 92.6103 81.6224 92.2086 84.8019 92.9399C87.9493 93.6738 90.9556 94.9168 93.7022 96.6198C95.3127 97.4497 96.7535 98.5738 97.9501 99.9341C100.004 102.517 100.284 106.041 100.486 109.332C100.642 112.001 100.782 114.778 99.6539 117.213C99.1263 118.322 98.357 119.299 97.4025 120.072C96.448 120.845 95.3325 121.394 94.1379 121.679" fill="#263238"/>
<path d="M98.9926 114.156C100.539 112.368 101.712 110.288 102.44 108.039C103.168 105.79 103.438 103.417 103.233 101.062C103.085 99.5061 102.649 97.8101 101.436 96.7909C100.813 96.2697 100.043 95.9585 99.405 95.4528C98.2535 94.5347 97.6856 93.041 96.5964 92.0529C96.0322 91.5444 95.348 91.1876 94.608 91.0161C93.8681 90.8446 93.0967 90.864 92.3663 91.0725C91.6359 91.2809 90.9705 91.6716 90.4326 92.2078C89.8946 92.7441 89.5018 93.4082 89.291 94.1379C88.7153 96.1374 89.5788 98.238 90.4191 100.144L94.3091 108.967C94.743 110.091 95.3493 111.141 96.1063 112.079C96.4878 112.549 96.9727 112.925 97.5232 113.177C98.0738 113.43 98.6751 113.551 99.2805 113.533" fill="#263238"/>
<path d="M71.397 98.806C69.0615 101.336 67.6566 104.586 67.4134 108.02C67.1702 111.455 68.1032 114.87 70.0588 117.704C71.701 110.471 73.9709 103.396 76.843 96.5576" fill="#263238"/>
<path d="M68.5884 108.656C68.9307 103.412 72.4239 96.9858 77.6521 97.5459L89.7422 100.658C91.5993 101.136 93.2545 102.196 94.4655 103.683C95.6764 105.17 96.3796 107.005 96.4719 108.92C96.4719 109.123 96.4719 108.874 96.4719 109.029L95.6939 138.632L84.4441 151.329L76.7263 139.457C76.7263 136.905 76.7263 134.867 76.7263 134.882C76.7263 134.898 70.0199 133.723 68.6584 124.978C67.9816 120.629 68.215 114.483 68.5884 108.656Z" fill="#FF907B"/>
<path d="M80.6084 105.916C79.7923 106.211 78.9382 106.386 78.0721 106.438C77.2129 106.56 76.3407 106.56 75.4814 106.438C75.4814 106.375 76.6406 106.375 78.0488 106.228C79.457 106.08 80.5929 105.854 80.6084 105.916Z" fill="#724A44"/>
<path d="M78.6558 105.606C77.6293 105.955 76.5284 106.024 75.466 105.808C75.9817 105.739 76.5018 105.708 77.022 105.715C77.5629 105.636 78.1092 105.599 78.6558 105.606Z" fill="#724A44"/>
<path d="M82.2968 122.924C82.2346 122.924 82.1568 122.574 81.8067 122.349C81.4566 122.123 81.1065 122.178 81.0909 122.123C81.0754 122.069 81.1609 122.038 81.3243 122.014C81.5363 121.992 81.7492 122.047 81.9234 122.17C82.1028 122.288 82.2371 122.464 82.3046 122.668C82.3435 122.816 82.3202 122.924 82.2968 122.924Z" fill="#724A44"/>
<path d="M71.8249 115.448C71.8206 115.74 71.9304 116.022 72.1309 116.234C72.3315 116.446 72.6069 116.572 72.8986 116.584C73.0415 116.595 73.1853 116.578 73.3215 116.533C73.4577 116.489 73.5835 116.417 73.6916 116.323C73.7996 116.228 73.8877 116.113 73.9506 115.984C74.0135 115.856 74.0499 115.715 74.0578 115.572C74.062 115.281 73.952 115 73.7513 114.789C73.5505 114.578 73.2751 114.454 72.9841 114.444C72.8416 114.431 72.698 114.448 72.5618 114.491C72.4257 114.535 72.2997 114.606 72.1915 114.7C72.0834 114.794 71.9952 114.908 71.9322 115.037C71.8692 115.165 71.8327 115.305 71.8249 115.448Z" fill="#263238"/>
<path d="M70.1288 112.367C70.2689 112.515 71.1169 111.885 72.3228 111.893C73.5287 111.9 74.4156 112.499 74.5479 112.359C74.6801 112.219 74.4701 112.025 74.0889 111.745C73.5654 111.383 72.9436 111.19 72.3072 111.192C71.6793 111.19 71.0666 111.386 70.5567 111.753C70.1911 112.033 70.0588 112.297 70.1288 112.367Z" fill="#263238"/>
<path d="M83.0748 115.448C83.0704 115.739 83.1802 116.021 83.3808 116.234C83.5813 116.446 83.8567 116.571 84.1484 116.583C84.2911 116.594 84.4345 116.576 84.5702 116.531C84.706 116.486 84.8314 116.414 84.9392 116.32C85.0471 116.226 85.1351 116.111 85.1984 115.983C85.2616 115.854 85.2987 115.715 85.3076 115.572C85.3119 115.281 85.2018 115 85.0011 114.789C84.8004 114.578 84.525 114.454 84.234 114.444C84.0912 114.43 83.9472 114.445 83.8105 114.489C83.6739 114.532 83.5475 114.603 83.4391 114.697C83.3307 114.791 83.2425 114.906 83.1799 115.035C83.1172 115.164 83.0815 115.304 83.0748 115.448V115.448Z" fill="#263238"/>
<path d="M81.9856 112.615C82.1257 112.763 82.9815 112.141 84.1874 112.141C85.3933 112.141 86.2724 112.755 86.4047 112.607C86.5369 112.46 86.3346 112.281 85.9456 111.993C85.4222 111.631 84.8004 111.438 84.164 111.44C83.539 111.441 82.9298 111.637 82.4213 112.001C82.0479 112.288 81.9234 112.553 81.9856 112.615Z" fill="#263238"/>
<path d="M77.5899 121.555C76.9547 121.351 76.2956 121.231 75.6293 121.197C75.3259 121.197 75.0303 121.104 74.9836 120.894C74.9564 120.577 75.027 120.259 75.1859 119.984C75.4815 119.206 75.7849 118.428 76.1039 117.65C77.3798 114.312 78.2979 111.573 78.1656 111.519C78.0333 111.464 76.8897 114.133 75.6138 117.471C75.3103 118.295 75.0147 119.081 74.7424 119.805C74.5443 120.177 74.4863 120.607 74.579 121.018C74.6238 121.127 74.6926 121.224 74.7801 121.302C74.8677 121.38 74.9718 121.437 75.0847 121.47C75.2551 121.513 75.4301 121.537 75.606 121.54C76.2638 121.631 76.9307 121.636 77.5899 121.555V121.555Z" fill="#263238"/>
<path d="M88.3185 131.739C88.3185 131.739 85.4788 137.745 76.7263 136.905V134.851C80.8042 134.909 84.818 133.832 88.3185 131.739V131.739Z" fill="#724A44"/>
<path d="M78.0955 124.481C78.328 124.196 78.6293 123.975 78.971 123.839C79.3127 123.703 79.6835 123.656 80.0483 123.703C80.3177 123.732 80.5782 123.816 80.8138 123.95C81.0494 124.083 81.2549 124.264 81.4176 124.481C81.5777 124.681 81.6719 124.927 81.6872 125.183C81.7026 125.439 81.6383 125.694 81.5032 125.912C81.3126 126.126 81.0628 126.277 80.7856 126.348C80.5085 126.419 80.2166 126.405 79.9472 126.309C79.3737 126.107 78.8451 125.796 78.3912 125.391C78.256 125.294 78.14 125.173 78.0488 125.033C78.005 124.966 77.9816 124.888 77.9816 124.808C77.9816 124.727 78.005 124.649 78.0488 124.582" fill="#F16854"/>
<path d="M81.1375 122.395C80.943 122.395 80.9352 123.694 79.8149 124.62C78.6946 125.546 77.3019 125.398 77.2864 125.584C77.2708 125.771 77.5976 125.841 78.1889 125.857C78.956 125.87 79.703 125.611 80.2972 125.125C80.8678 124.662 81.2361 123.996 81.3242 123.266C81.3787 122.714 81.2308 122.387 81.1375 122.395Z" fill="#263238"/>
<path d="M81.6899 109.083C81.8066 109.41 83.0125 109.262 84.4285 109.433C85.8444 109.605 86.9881 109.994 87.1748 109.698C87.2604 109.558 87.0659 109.254 86.5991 108.92C85.9855 108.526 85.2897 108.279 84.5654 108.196C83.8411 108.114 83.1075 108.199 82.4212 108.445C81.9078 108.671 81.6899 108.92 81.6899 109.083Z" fill="#263238"/>
<path d="M70.5801 108.874C70.7902 109.146 71.6226 108.874 72.6263 108.874C73.6299 108.874 74.4701 109.06 74.6646 108.772C74.7502 108.632 74.6179 108.36 74.2523 108.103C73.7574 107.788 73.1792 107.628 72.5925 107.645C72.0058 107.661 71.4376 107.854 70.9613 108.197C70.6035 108.461 70.4868 108.741 70.5801 108.874Z" fill="#263238"/>
<path d="M70.9691 100.665C71.2769 100.024 71.7574 99.4811 72.3566 99.0977C72.9557 98.7143 73.6499 98.5054 74.3611 98.4945C75.7926 98.486 77.1955 98.8942 78.399 99.6693C83.6038 102.68 86.5291 108.655 91.6716 111.767C92.9997 112.423 94.2542 113.219 95.4138 114.14C96.4875 115.152 97.1877 116.778 96.5886 118.131C97.3256 117.215 97.9281 116.199 98.378 115.113C98.5979 114.567 98.6985 113.981 98.673 113.393C98.6475 112.805 98.4965 112.23 98.2302 111.705C97.7867 110.927 97.001 110.343 96.7831 109.48C96.5653 108.616 96.892 107.924 96.8609 107.146C96.7825 106.353 96.5158 105.59 96.0829 104.921C94.1489 101.283 91.2602 98.241 87.7272 96.1216C85.3964 94.7793 82.7454 94.0937 80.0561 94.1377C77.3526 94.202 74.7614 95.2314 72.7507 97.0397C71.607 98.1133 70.4167 99.2181 70.9924 100.673" fill="#263238"/>
<path d="M96.5264 118.155C96.5264 118.155 96.6275 118.039 96.7987 117.797C97.0474 117.453 97.2368 117.069 97.3589 116.661C97.7634 115.126 97.5918 113.496 96.8765 112.079C96.4875 111.169 95.9273 110.227 95.3205 109.193C94.7221 108.085 94.187 106.945 93.7178 105.777C93.2115 104.493 92.5973 103.254 91.8817 102.074C91.0939 100.822 90.1177 99.6988 88.9876 98.7441C86.8118 96.8716 84.1538 95.6478 81.3165 95.212C79.007 94.805 76.6282 95.1258 74.509 96.1301C73.095 96.8398 71.9467 97.9854 71.2336 99.3977C71.0502 99.7821 70.9043 100.183 70.7979 100.596C70.7745 100.745 70.7354 100.891 70.6812 101.031C70.6777 100.995 70.6777 100.959 70.6812 100.923C70.6934 100.81 70.7116 100.698 70.7357 100.588C70.8288 100.166 70.9698 99.7564 71.1558 99.3665C71.8551 97.9167 73.0076 96.7341 74.439 95.9978C76.5813 94.9522 78.999 94.6092 81.3476 95.0175C84.2246 95.4495 86.9212 96.6846 89.1276 98.5808C90.2749 99.5499 91.2644 100.692 92.0607 101.965C92.7813 103.156 93.3957 104.408 93.8968 105.707C94.3524 106.868 94.8718 108.003 95.4528 109.107C96.0129 110.142 96.5653 111.091 96.9543 112.025C97.6733 113.473 97.8232 115.139 97.3744 116.693C97.2412 117.107 97.0357 117.494 96.7676 117.836C96.6943 117.948 96.6138 118.054 96.5264 118.155V118.155Z" fill="#455A64"/>
<path d="M100.556 113.588C100.546 113.505 100.546 113.422 100.556 113.339C100.556 113.152 100.556 112.919 100.556 112.623C100.556 112.009 100.603 111.114 100.556 110.009C100.528 108.718 100.384 107.432 100.129 106.166C99.8473 104.611 99.208 103.144 98.2613 101.879C97.2573 100.658 96.134 99.5398 94.9081 98.5414C93.7956 97.5845 92.7686 96.7676 91.8739 96.1218C90.9792 95.4761 90.2168 94.9937 89.6878 94.6825L89.0654 94.3246C88.9903 94.2891 88.9198 94.2447 88.8553 94.1924C88.9376 94.2106 89.0165 94.2422 89.0887 94.2857C89.2365 94.3558 89.4544 94.4647 89.7267 94.6125C90.4984 95.0283 91.2441 95.4907 91.9595 95.9973C92.8698 96.6275 93.9201 97.4366 95.0326 98.3858C96.2777 99.3871 97.4169 100.513 98.4325 101.747C99.3964 103.036 100.044 104.534 100.323 106.119C100.573 107.401 100.701 108.703 100.704 110.009C100.704 111.122 100.704 112.016 100.619 112.639C100.619 112.95 100.572 113.183 100.556 113.347C100.565 113.427 100.565 113.508 100.556 113.588V113.588Z" fill="#455A64"/>
<path d="M96.7209 92.4502C96.8466 92.7668 96.9278 93.0993 96.9621 93.4383C97.0874 94.254 97.1265 95.0806 97.0788 95.9045C97.0296 96.7262 96.8913 97.5401 96.6664 98.3319C96.5934 98.6663 96.4729 98.9885 96.3085 99.2888C96.5677 98.169 96.7523 97.0332 96.8609 95.889C96.8933 94.7408 96.8465 93.5919 96.7209 92.4502Z" fill="#455A64"/>
<path d="M102.867 98.9229C102.826 99.1861 102.725 99.4363 102.572 99.6542C102.252 100.207 101.82 100.686 101.303 101.062C100.787 101.437 100.199 101.702 99.5762 101.84C99.3248 101.919 99.0596 101.943 98.7982 101.91C99.0519 101.819 99.3119 101.746 99.5762 101.693C100.76 101.333 101.786 100.581 102.486 99.5608C102.602 99.3417 102.729 99.1288 102.867 98.9229V98.9229Z" fill="#455A64"/>
<path d="M103.303 104.805C102.756 105.049 102.158 105.156 101.56 105.116C100.962 105.124 100.371 104.982 99.8407 104.704C99.8407 104.634 100.619 104.867 101.568 104.906C102.517 104.945 103.287 104.735 103.303 104.805Z" fill="#455A64"/>
<path d="M99.4984 120.084C99.2961 119.975 99.3973 119.4 99.4206 118.458C99.4537 117.933 99.3932 117.406 99.2417 116.902C99.1967 116.781 99.142 116.664 99.0783 116.552C99.0492 116.497 99.0153 116.445 98.9771 116.397L98.8371 116.194C98.6174 115.896 98.3755 115.616 98.1136 115.354C97.8969 115.122 97.6311 114.941 97.3356 114.825C97.2422 114.825 97.2189 114.825 97.2578 114.825L96.9543 114.887L96.6276 114.965C96.196 115.072 95.7782 115.229 95.3828 115.432C95.1727 115.541 94.9704 115.658 94.7526 115.79L94.597 115.899L94.3247 116.054C94.146 116.153 93.9616 116.242 93.7723 116.319C92.9938 116.638 92.1538 116.779 91.3138 116.731C90.8027 116.702 90.3013 116.578 89.8356 116.365L89.6489 116.264L89.5011 116.179C89.3987 116.123 89.2999 116.061 89.2055 115.992C89.0143 115.859 88.8323 115.714 88.6609 115.556C88.0413 114.97 87.5326 114.277 87.1593 113.51C86.8092 112.818 86.5447 112.141 86.288 111.526C85.3669 109.285 84.0988 107.203 82.5302 105.357C81.2362 103.834 79.7658 102.471 78.1501 101.296C77.1019 100.475 75.9412 99.8095 74.7035 99.3195C73.8322 98.9928 73.2642 98.9072 73.2253 98.6738C73.1864 98.4404 73.7466 98.1058 74.8903 98.0747C76.4515 98.1341 77.9753 98.5692 79.3326 99.3429C81.3403 100.376 83.1644 101.732 84.732 103.357C86.6725 105.36 88.2121 107.716 89.2677 110.297C89.54 110.958 89.7734 111.557 90.0457 112.063C90.2421 112.495 90.5046 112.894 90.8237 113.246C90.8898 113.312 90.9599 113.375 91.0338 113.432C91.067 113.46 91.1036 113.484 91.1427 113.502H91.1971C91.3083 113.562 91.4298 113.599 91.555 113.611C91.9433 113.649 92.3352 113.607 92.7065 113.487L92.9632 113.386L93.0799 113.331L93.2977 113.215C93.5955 113.055 93.902 112.912 94.2158 112.787C94.8262 112.543 95.4635 112.374 96.1141 112.281L96.5653 112.227H96.7832H97.0321C97.5162 112.203 97.9968 112.32 98.417 112.561C98.9727 112.884 99.4508 113.325 99.8174 113.853C100.116 114.255 100.377 114.685 100.595 115.136C100.642 115.245 100.689 115.331 100.735 115.463C100.791 115.586 100.835 115.713 100.868 115.844C100.94 116.077 100.984 116.317 101 116.56C101.047 117.289 100.921 118.02 100.634 118.692C100.191 119.812 99.6851 120.178 99.4984 120.084Z" fill="#263238"/>
<path d="M95.2894 115.222C95.3749 114.973 99.9574 113.324 99.9574 118.171C100.02 122.885 95.2894 121.96 95.2894 121.82C95.2894 121.679 95.2894 115.222 95.2894 115.222Z" fill="#FF907B"/>
<path d="M96.7365 120.022C96.7365 120.022 96.8143 120.077 96.9544 120.139C97.1516 120.218 97.3718 120.218 97.569 120.139C97.8721 119.944 98.1178 119.672 98.2806 119.351C98.4433 119.029 98.5173 118.67 98.4948 118.311C98.4985 117.907 98.4163 117.506 98.2536 117.136C98.2067 116.99 98.1258 116.858 98.0175 116.75C97.9093 116.641 97.7769 116.561 97.6312 116.514C97.5362 116.489 97.4354 116.498 97.347 116.541C97.2585 116.584 97.1883 116.657 97.1489 116.747C97.0866 116.879 97.1489 116.973 97.0866 116.98C97.0244 116.988 96.9855 116.903 97.0244 116.708C97.0462 116.591 97.1098 116.486 97.2033 116.412C97.2675 116.362 97.3412 116.325 97.4201 116.303C97.499 116.282 97.5814 116.277 97.6623 116.288C97.8554 116.324 98.036 116.408 98.1872 116.534C98.3383 116.659 98.4549 116.821 98.5259 117.004C98.7274 117.412 98.8287 117.863 98.8216 118.319C98.8482 118.738 98.7502 119.156 98.5398 119.521C98.3294 119.885 98.0159 120.178 97.639 120.365C97.5091 120.406 97.3713 120.418 97.2363 120.397C97.1014 120.377 96.973 120.326 96.861 120.248C96.7443 120.139 96.721 120.03 96.7365 120.022Z" fill="#724A44"/>
<path d="M98.9149 115.144C98.8582 115.033 98.7932 114.927 98.7204 114.825C98.5045 114.54 98.2097 114.323 97.8724 114.203C97.3383 114.016 96.7661 113.965 96.2075 114.055C95.4677 114.209 94.7547 114.471 94.0913 114.833C93.2699 115.279 92.3497 115.512 91.415 115.51C90.332 115.385 89.3368 114.854 88.6297 114.024C87.8696 113.11 87.3031 112.051 86.9648 110.912C86.568 109.761 86.1868 108.578 85.7433 107.372C84.9244 105.105 83.6629 103.024 82.0323 101.249C80.6831 99.819 78.9569 98.7995 77.0531 98.3084C76.3239 98.1185 75.5737 98.0218 74.8202 98.0205C74.252 98.0289 73.6861 98.0966 73.132 98.2228C72.2217 98.4484 71.7627 98.7051 71.7471 98.674L71.8327 98.6273L72.0895 98.5106C72.4159 98.3546 72.7574 98.2321 73.1086 98.145C73.6674 97.9959 74.2421 97.9149 74.8202 97.9038C75.5829 97.8898 76.3441 97.9762 77.0842 98.1605C79.0299 98.6359 80.7984 99.6592 82.1801 101.109C83.841 102.91 85.1218 105.026 85.9456 107.333C86.4202 108.524 86.7781 109.737 87.1593 110.881C87.4939 111.986 88.0439 113.015 88.7776 113.907C89.4497 114.703 90.3968 115.217 91.4305 115.347C92.3386 115.352 93.2341 115.133 94.0368 114.709C94.7146 114.357 95.4409 114.108 96.1919 113.97C96.769 113.882 97.3588 113.947 97.9035 114.156C98.2504 114.287 98.5473 114.524 98.7515 114.833C98.8073 114.909 98.8518 114.993 98.8838 115.082C98.9149 115.144 98.9227 115.144 98.9149 115.144Z" fill="#455A64"/>
<path d="M97.1566 112.81C97.0585 112.767 96.9648 112.715 96.8765 112.654C96.6975 112.538 96.4175 112.382 96.0985 112.149C95.1722 111.463 94.3219 110.681 93.5622 109.815C92.4521 108.526 91.4132 107.178 90.4502 105.777C89.2905 104.058 87.9893 102.44 86.5602 100.938C85.7979 100.186 84.9552 99.5208 84.0473 98.9537C83.1985 98.4346 82.2893 98.0218 81.3398 97.7245C79.7314 97.206 78.0391 96.9974 76.3529 97.1098C75.2141 97.1816 74.0895 97.4013 73.0074 97.7634C72.6262 97.8801 72.3384 98.0123 72.1361 98.0901C72.0385 98.1356 71.9369 98.172 71.8327 98.199C71.9211 98.1363 72.018 98.0865 72.1205 98.0512C72.4001 97.9106 72.6886 97.7884 72.9841 97.6856C74.0613 97.2848 75.1906 97.0411 76.3373 96.962C78.0469 96.8237 79.7671 97.0192 81.4021 97.5377C82.3692 97.8306 83.2948 98.2464 84.1562 98.7748C85.0784 99.3475 85.9342 100.021 86.708 100.782C88.1429 102.293 89.4444 103.925 90.598 105.66C91.5467 107.063 92.5673 108.416 93.6556 109.713C94.4034 110.572 95.2348 111.354 96.1374 112.047C96.4564 112.296 96.7287 112.46 96.9154 112.584C97.0028 112.652 97.0835 112.727 97.1566 112.81V112.81Z" fill="#455A64"/>
<path d="M97.2498 120.855C97.4814 120.811 97.7209 120.857 97.9196 120.984C98.1183 121.111 98.2612 121.308 98.3193 121.536C98.3774 121.765 98.3462 122.007 98.2322 122.213C98.1181 122.419 97.9297 122.574 97.7054 122.646C97.4811 122.718 97.2377 122.702 97.0249 122.601C96.812 122.5 96.6457 122.321 96.5599 122.102C96.474 121.883 96.4751 121.639 96.5628 121.42C96.6505 121.201 96.8183 121.024 97.032 120.925" fill="white"/>
<path d="M97.0476 120.924C96.8495 121.089 96.7035 121.308 96.6275 121.554C96.5916 121.683 96.5892 121.818 96.6205 121.947C96.6518 122.077 96.7159 122.196 96.8064 122.294C96.9158 122.412 97.0554 122.499 97.2103 122.544C97.3652 122.589 97.5295 122.592 97.6856 122.55C97.8368 122.493 97.97 122.397 98.0713 122.271C98.1726 122.145 98.2382 121.994 98.2613 121.835C98.2756 121.703 98.2576 121.569 98.2088 121.446C98.16 121.323 98.0819 121.213 97.9812 121.127C97.7772 120.963 97.5267 120.868 97.2655 120.854C97.3339 120.815 97.4122 120.796 97.4911 120.8C97.7031 120.805 97.9077 120.879 98.0746 121.01C98.2055 121.107 98.3094 121.235 98.3761 121.384C98.4429 121.533 98.4703 121.696 98.4558 121.858C98.4425 122.061 98.3681 122.256 98.2424 122.416C98.1167 122.576 97.9455 122.695 97.7513 122.756C97.5571 122.817 97.3489 122.819 97.1539 122.76C96.9589 122.701 96.7863 122.584 96.6586 122.426C96.5534 122.302 96.4817 122.153 96.4504 121.994C96.419 121.835 96.4291 121.67 96.4797 121.516C96.5417 121.313 96.6671 121.136 96.8376 121.01C96.962 120.924 97.0476 120.916 97.0476 120.924Z" fill="#263238"/>
<path d="M350.66 306.189C351.353 303.793 352.831 301.482 355.118 300.502C357.405 299.522 360.245 300.059 362.68 300.938C365.115 301.817 367.504 303.007 370.087 303.171C372.67 303.334 375.587 302.105 376.365 299.631C377.089 297.297 375.688 294.831 373.938 293.142C372.086 291.359 369.815 290.071 367.335 289.396C364.854 288.721 362.243 288.682 359.744 289.282C357.244 289.882 354.935 291.102 353.031 292.829C351.127 294.556 349.688 296.735 348.847 299.164" fill="#263238"/>
<path d="M330.183 316.569C326.394 312.966 326.581 306.696 328.472 301.826C330.362 296.955 334.493 293.197 339.107 290.731C343.608 288.367 348.586 287.054 353.667 286.89C358.748 286.725 363.801 287.714 368.445 289.782C366.171 289.879 363.955 290.533 361.992 291.686C360.03 292.839 358.38 294.456 357.188 296.395C355.11 299.849 354.644 304.035 352.932 307.676C350.997 311.786 347.56 314.999 343.329 316.653C339.097 318.307 334.393 318.277 330.183 316.569" fill="#455A64"/>
<path d="M328.363 294.932C324.161 289.976 323.601 282.017 324.224 275.552C324.846 269.087 326.34 262.583 325.321 256.164C324.714 252.368 323.243 248.735 322.745 244.922C322.247 241.11 322.948 236.792 325.904 234.326C329.304 231.494 334.657 232.163 338.189 234.824C341.721 237.485 343.775 241.655 345.269 245.817C348.559 254.959 349.765 265.104 347.066 274.432C344.366 283.76 338.025 292.108 328.728 294.932" fill="#455A64"/>
<path d="M326.348 335.59C326.327 335.399 326.327 335.206 326.348 335.014C326.348 334.641 326.348 334.089 326.348 333.381C326.402 331.957 326.534 329.903 326.846 327.374C327.218 324.416 327.756 321.481 328.456 318.583C329.322 315.021 330.673 311.594 332.471 308.399C334.268 305.205 336.473 302.257 339.029 299.631C341.11 297.486 343.415 295.571 345.907 293.92C346.957 293.197 347.976 292.645 348.847 292.139C349.719 291.633 350.528 291.283 351.181 290.972L352.699 290.342C352.863 290.272 353.036 290.222 353.212 290.194C353.049 290.292 352.88 290.38 352.706 290.458L351.228 291.159C350.598 291.485 349.828 291.89 348.949 292.372C348.069 292.855 347.089 293.461 346.062 294.193C340.605 297.928 336.079 302.869 332.836 308.632C328.946 315.385 327.919 322.473 327.149 327.452C326.799 329.965 326.62 332.011 326.519 333.427C326.48 334.104 326.449 334.649 326.418 335.061C326.406 335.239 326.383 335.416 326.348 335.59V335.59Z" fill="#263238"/>
<path d="M290.132 275.412C282.352 280.08 282.391 284.359 283.69 288.389C284.989 292.419 289.751 295.212 293.703 293.702C295.936 292.854 297.554 290.909 298.939 288.957C300.324 287.004 301.623 284.919 303.56 283.511C305.497 282.102 308.306 281.573 310.251 282.958" fill="#263238"/>
<path d="M284.32 280.516C286.351 277.707 291.369 276.898 294.535 278.299C297.702 279.699 300.02 282.476 302.097 285.246C304.175 288.016 306.198 290.949 309.099 292.878C312.001 294.808 316 295.5 318.863 293.563C319.779 292.881 320.546 292.019 321.117 291.031C321.688 290.042 322.052 288.947 322.185 287.814C322.437 285.548 322.282 283.256 321.726 281.045C321.042 277.785 319.921 274.385 317.315 272.316C314.413 269.982 310.375 269.896 306.672 270.021C302.416 270.161 298.114 270.48 294.107 271.95C290.101 273.421 286.04 276.618 284.343 280.508" fill="#455A64"/>
<path d="M319.89 329.366C319.854 329.145 319.835 328.921 319.836 328.697C319.836 328.223 319.797 327.577 319.766 326.768C319.711 325.056 319.641 322.644 319.548 319.68C319.455 316.716 319.33 313.122 319.112 309.169C318.894 305.217 318.599 300.876 318 296.356C317.744 294.157 317.312 291.982 316.708 289.852C316.096 287.886 315.301 285.982 314.335 284.165C312.739 281.058 310.626 278.246 308.088 275.848C306.355 274.251 304.401 272.915 302.284 271.88C301.71 271.589 301.12 271.329 300.518 271.102C300.303 271.029 300.095 270.938 299.896 270.83C300.115 270.88 300.331 270.945 300.541 271.024C301.159 271.215 301.762 271.449 302.346 271.724C304.511 272.707 306.511 274.019 308.275 275.614C310.87 278.01 313.032 280.837 314.662 283.97C315.649 285.807 316.462 287.731 317.09 289.719C317.706 291.868 318.143 294.065 318.397 296.286C319.003 300.829 319.283 305.178 319.486 309.138C319.688 313.098 319.774 316.662 319.836 319.657C319.898 322.652 319.914 325.103 319.921 326.752V328.682C319.93 328.91 319.92 329.139 319.89 329.366V329.366Z" fill="#263238"/>
<path d="M322.683 332.875C322.307 331.79 322.019 330.677 321.82 329.546C321.279 326.451 321.156 323.298 321.454 320.171C321.934 315.528 322.931 310.954 324.426 306.532C325.982 301.538 328.184 296.193 330.035 290.451C331.801 285.072 332.914 279.501 333.35 273.856C333.705 269.236 333.79 264.599 333.606 259.969C333.474 256.017 333.264 252.819 333.14 250.633C333.077 249.552 333.031 248.704 332.992 248.089C332.992 247.817 332.992 247.599 332.992 247.428C332.983 247.353 332.983 247.277 332.992 247.202C333.004 247.277 333.004 247.353 332.992 247.428L333.062 248.081C333.108 248.696 333.186 249.544 333.28 250.625C333.459 252.835 333.708 256.032 333.871 259.961C334.119 264.591 334.083 269.231 333.762 273.856C333.551 276.595 333.187 279.32 332.673 282.018C332.103 284.913 331.357 287.771 330.44 290.576C328.588 296.341 326.41 301.678 324.807 306.657C323.309 311.038 322.294 315.569 321.781 320.171C321.458 323.28 321.536 326.418 322.014 329.507C322.209 330.596 322.38 331.436 322.528 332.004L322.683 332.65C322.693 332.725 322.693 332.801 322.683 332.875V332.875Z" fill="#263238"/>
<path d="M341.939 336.392H305.466L304.634 329.366H341.939V336.392Z" fill="#263238"/>
<path d="M309.387 335.59L313.946 356.651H333.762L338.025 335.59H309.387Z" fill="#263238"/>
<path d="M341.939 336.392C341.939 336.501 333.925 336.571 324.045 336.54C314.164 336.509 306.151 336.4 306.151 336.291C306.151 336.182 314.164 336.112 324.045 336.135C333.925 336.159 341.939 336.275 341.939 336.392Z" fill="#455A64"/>
<path d="M335.684 346.787C334.684 346.054 333.604 345.441 332.463 344.958C331.221 344.475 329.905 344.212 328.573 344.18C326.936 344.186 325.313 344.483 323.78 345.059C322.115 345.62 320.567 346.273 319.05 346.615C317.705 346.905 316.318 346.947 314.958 346.74C314.041 346.604 313.152 346.317 312.328 345.892C312.108 345.774 311.897 345.638 311.698 345.487C311.558 345.386 311.496 345.324 311.503 345.308C312.582 345.914 313.769 346.303 314.997 346.452C316.321 346.617 317.663 346.551 318.964 346.258C320.419 345.892 321.975 345.231 323.632 344.702C325.209 344.11 326.881 343.815 328.565 343.83C329.941 343.876 331.296 344.174 332.564 344.709C333.4 345.071 334.185 345.542 334.898 346.11C335.096 346.262 335.286 346.426 335.466 346.6C335.629 346.709 335.691 346.771 335.684 346.787Z" fill="#455A64"/>
<path d="M335.404 348.186C334.43 347.483 333.387 346.881 332.292 346.389C331.095 345.901 329.818 345.638 328.526 345.611C326.946 345.616 325.38 345.898 323.897 346.444C322.286 346.98 320.785 347.603 319.338 348C318.06 348.366 316.729 348.514 315.401 348.435C314.504 348.378 313.628 348.14 312.826 347.735C312.611 347.619 312.406 347.486 312.211 347.338C312.087 347.237 312.017 347.183 312.025 347.167C312.032 347.152 312.336 347.338 312.896 347.595C313.699 347.93 314.555 348.117 315.424 348.147C316.714 348.183 318.001 348.012 319.237 347.642C320.645 347.237 322.139 346.615 323.765 346.086C325.294 345.523 326.912 345.244 328.542 345.261C329.882 345.296 331.204 345.592 332.432 346.132C333.248 346.492 334.012 346.96 334.703 347.525C334.897 347.672 335.079 347.833 335.248 348.007C335.362 348.121 335.414 348.181 335.404 348.186Z" fill="white"/>
<path d="M336.042 345.386C335.011 344.629 333.902 343.985 332.735 343.464C331.466 342.921 330.114 342.597 328.736 342.507C327.048 342.472 325.37 342.768 323.796 343.378C322.194 344.005 320.557 344.54 318.894 344.981C317.496 345.219 316.068 345.219 314.67 344.981C313.734 344.828 312.826 344.534 311.978 344.11C311.75 343.989 311.531 343.852 311.324 343.697C311.184 343.588 311.114 343.526 311.122 343.518C311.13 343.511 311.449 343.697 312.048 343.97C312.909 344.329 313.814 344.573 314.74 344.693C316.104 344.891 317.492 344.864 318.848 344.615C320.487 344.159 322.103 343.619 323.687 342.997C325.31 342.37 327.043 342.076 328.783 342.134C331.161 342.318 333.432 343.194 335.318 344.654C335.519 344.812 335.712 344.98 335.894 345.16C335.987 345.308 336.049 345.378 336.042 345.386Z" fill="white"/>
<path d="M187.673 134.858C187.673 134.396 187.596 133.983 187.442 133.621C187.287 133.258 187.033 132.934 186.678 132.649C186.331 132.356 185.86 132.086 185.267 131.839C184.68 131.584 183.948 131.334 183.069 131.087C182.228 130.848 181.468 130.586 180.789 130.3C180.111 130.015 179.528 129.687 179.043 129.317C178.564 128.947 178.198 128.515 177.944 128.021C177.689 127.52 177.562 126.938 177.562 126.274C177.562 125.626 177.701 125.036 177.978 124.504C178.256 123.972 178.645 123.513 179.147 123.128C179.656 122.742 180.253 122.445 180.94 122.237C181.634 122.029 182.394 121.924 183.219 121.924C184.399 121.924 185.417 122.148 186.273 122.595C187.137 123.043 187.804 123.648 188.275 124.412C188.753 125.168 188.992 126.016 188.992 126.957H187.569C187.569 126.224 187.395 125.572 187.048 125.002C186.709 124.423 186.215 123.972 185.567 123.648C184.927 123.317 184.144 123.151 183.219 123.151C182.293 123.151 181.514 123.293 180.882 123.579C180.257 123.856 179.783 124.23 179.459 124.701C179.143 125.164 178.985 125.68 178.985 126.251C178.985 126.652 179.062 127.022 179.216 127.362C179.37 127.693 179.621 128.006 179.968 128.299C180.323 128.584 180.789 128.854 181.368 129.109C181.946 129.355 182.66 129.591 183.508 129.814C184.403 130.061 185.197 130.335 185.891 130.636C186.585 130.937 187.172 131.284 187.65 131.677C188.128 132.063 188.49 132.514 188.737 133.03C188.984 133.547 189.107 134.149 189.107 134.835C189.107 135.522 188.961 136.139 188.668 136.686C188.382 137.226 187.978 137.685 187.453 138.063C186.936 138.441 186.323 138.73 185.614 138.931C184.912 139.131 184.144 139.231 183.311 139.231C182.563 139.231 181.819 139.135 181.079 138.942C180.338 138.749 179.66 138.452 179.043 138.051C178.433 137.643 177.944 137.118 177.573 136.478C177.211 135.838 177.03 135.074 177.03 134.187H178.441C178.441 134.897 178.584 135.495 178.869 135.981C179.154 136.466 179.532 136.86 180.003 137.161C180.481 137.461 181.005 137.681 181.576 137.82C182.155 137.951 182.733 138.017 183.311 138.017C184.198 138.017 184.966 137.886 185.614 137.623C186.269 137.361 186.774 136.995 187.129 136.524C187.492 136.046 187.673 135.491 187.673 134.858ZM197.83 122.156V139H196.419V122.156H197.83ZM203.603 122.156V123.382H190.658V122.156H203.603ZM216.514 122.156H217.937V133.563C217.937 134.828 217.671 135.88 217.139 136.721C216.607 137.562 215.889 138.19 214.987 138.607C214.092 139.023 213.101 139.231 212.014 139.231C210.895 139.231 209.889 139.023 208.994 138.607C208.1 138.19 207.39 137.562 206.866 136.721C206.349 135.88 206.09 134.828 206.09 133.563V122.156H207.502V133.563C207.502 134.542 207.695 135.364 208.08 136.027C208.466 136.69 208.998 137.188 209.677 137.519C210.356 137.851 211.134 138.017 212.014 138.017C212.885 138.017 213.66 137.851 214.339 137.519C215.018 137.188 215.55 136.69 215.936 136.027C216.321 135.364 216.514 134.542 216.514 133.563V122.156ZM226.544 139H222.726L222.75 137.785H226.544C227.755 137.785 228.796 137.515 229.668 136.975C230.547 136.428 231.226 135.672 231.704 134.708C232.182 133.744 232.421 132.626 232.421 131.353V129.78C232.421 128.808 232.282 127.929 232.005 127.142C231.735 126.355 231.345 125.684 230.836 125.129C230.327 124.566 229.718 124.134 229.008 123.833C228.306 123.533 227.52 123.382 226.648 123.382H222.657V122.156H226.648C227.697 122.156 228.657 122.337 229.529 122.7C230.408 123.054 231.168 123.571 231.808 124.25C232.456 124.921 232.953 125.727 233.3 126.668C233.655 127.609 233.832 128.657 233.832 129.814V131.353C233.832 132.51 233.655 133.559 233.3 134.5C232.953 135.441 232.456 136.247 231.808 136.918C231.16 137.589 230.393 138.105 229.506 138.468C228.619 138.823 227.632 139 226.544 139ZM223.363 122.156V139H221.94V122.156H223.363ZM236.783 122.156L241.884 131.33L247.032 122.156H248.675L242.602 132.649V139H241.179V132.649L235.093 122.156H236.783Z" fill="white"/>
<path d="M159.193 150.156H162.317L166.366 162.199L170.403 150.156H173.527L167.627 167H165.093L159.193 150.156ZM157.388 150.156H160.57L161.16 162.639V167H157.388V150.156ZM172.15 150.156H175.343V167H171.56V162.639L172.15 150.156ZM185.35 153.36L181 167H176.974L183.21 150.156H185.755L185.35 153.36ZM188.96 167L184.598 153.36L184.147 150.156H186.727L192.985 167H188.96ZM188.774 160.73V163.645H179.994V160.73H188.774ZM200.818 150.156V167H197.058V150.156H200.818ZM205.943 150.156V153.083H192.037V150.156H205.943ZM219.258 164.085V167H210.292V164.085H219.258ZM211.577 150.156V167H207.805V150.156H211.577ZM218.101 156.935V159.758H210.292V156.935H218.101ZM219.27 150.156V153.083H210.292V150.156H219.27ZM221.109 150.156H227.576C228.864 150.156 229.979 150.349 230.92 150.734C231.868 151.12 232.597 151.691 233.106 152.446C233.615 153.202 233.87 154.135 233.87 155.246C233.87 156.172 233.719 156.958 233.418 157.606C233.118 158.254 232.693 158.79 232.146 159.214C231.606 159.638 230.974 159.982 230.249 160.244L229.022 160.915H223.516L223.492 157.988H227.588C228.151 157.988 228.617 157.888 228.988 157.687C229.358 157.487 229.635 157.205 229.821 156.843C230.013 156.472 230.11 156.04 230.11 155.547C230.11 155.038 230.013 154.598 229.821 154.228C229.628 153.858 229.342 153.576 228.964 153.384C228.594 153.183 228.132 153.083 227.576 153.083H224.881V167H221.109V150.156ZM230.434 167L226.651 159.515L230.63 159.503L234.471 166.826V167H230.434ZM240.441 150.156V167H236.681V150.156H240.441ZM250.691 153.36L246.341 167H242.315L248.55 150.156H251.096L250.691 153.36ZM254.3 167L249.939 153.36L249.488 150.156H252.067L258.326 167H254.3ZM254.115 160.73V163.645H245.334V160.73H254.115ZM270.716 164.085V167H262.213V164.085H270.716ZM263.497 150.156V167H259.726V150.156H263.497Z" fill="white"/>
</svg>
